<?xml version="1.0" encoding="UTF-8" standalone="no"?><svg xmlns="http://www.w3.org/2000/svg" xmlns:xlink="http://www.w3.org/1999/xlink" clip-rule="evenodd" stroke-miterlimit="4.00" viewBox="0 0 1920 1080"><desc>SVG generated by Keynote</desc><defs></defs><g transform="matrix(1.00, 0.00, -0.00, -1.00, 0.0, 1080.0)"><path d="M 0.0 1080.0 L 1920.0 1080.0 L 1920.0 0.0 L 0.0 0.0 Z M 0.0 1080.0 " fill="#FEFFFF"></path><text xml:space="preserve" font-family="HurmeGeometricSans4-SemiBold" font-weight="bold" font-size="112.0" fill="#5E5E5E" transform="matrix(1.00, 0.00, -0.00, -1.00, 564.0, 925.0)">O</text><text xml:space="preserve" font-family="HurmeGeometricSans4-SemiBold" font-weight="bold" font-size="112.0" fill="#5E5E5E" transform="matrix(1.00, 0.00, -0.00, -1.00, 655.4, 925.0)">U</text><text xml:space="preserve" font-family="HurmeGeometricSans4-SemiBold" font-weight="bold" font-size="112.0" fill="#5E5E5E" transform="matrix(1.00, 0.00, -0.00, -1.00, 734.7, 925.0)">R</text><text xml:space="preserve" font-family="HurmeGeometricSans4-SemiBold" font-weight="bold" font-size="112.0" fill="#5E5E5E" transform="matrix(1.00, 0.00, -0.00, -1.00, 804.6, 925.0)"> </text><text xml:space="preserve" font-family="HurmeGeometricSans4-SemiBold" font-weight="bold" font-size="112.0" fill="#5E5E5E" transform="matrix(1.00, 0.00, -0.00, -1.00, 850.2, 925.0)">P</text><text xml:space="preserve" font-family="HurmeGeometricSans4-SemiBold" font-weight="bold" font-size="112.0" fill="#5E5E5E" transform="matrix(1.00, 0.00, -0.00, -1.00, 917.9, 925.0)">U</text><text xml:space="preserve" font-family="HurmeGeometricSans4-SemiBold" font-weight="bold" font-size="112.0" fill="#5E5E5E" transform="matrix(1.00, 0.00, -0.00, -1.00, 997.2, 925.0)">R</text><text xml:space="preserve" font-family="HurmeGeometricSans4-SemiBold" font-weight="bold" font-size="112.0" fill="#5E5E5E" transform="matrix(1.00, 0.00, -0.00, -1.00, 1068.4, 925.0)">P</text><text xml:space="preserve" font-family="HurmeGeometricSans4-SemiBold" font-weight="bold" font-size="112.0" fill="#5E5E5E" transform="matrix(1.00, 0.00, -0.00, -1.00, 1136.2, 925.0)">O</text><text xml:space="preserve" font-family="HurmeGeometricSans4-SemiBold" font-weight="bold" font-size="112.0" fill="#5E5E5E" transform="matrix(1.00, 0.00, -0.00, -1.00, 1227.6, 925.0)">S</text><text xml:space="preserve" font-family="HurmeGeometricSans4-SemiBold" font-weight="bold" font-size="112.0" fill="#5E5E5E" transform="matrix(1.00, 0.00, -0.00, -1.00, 1291.2, 925.0)">E</text><image xlink:href="../../389E36ED-F7CF-4E89-AF32-ECC49FB10071/assets/3C7F4012EC65B624D45185E742F17910.png" width="189.00" height="768.00" transform="matrix(5.86, 0.00, -0.00, -1.02, 406.0, 861.0)"></image><image xlink:href="../../D5BD7D0B-2B79-40AA-A566-EA270711DA6F/assets/F33CF05FFBAF3E9FD04E05C59117B1BA.png" width="1142.00" height="830.00" transform="matrix(1.00, 0.00, -0.00, 1.00, 389.0, 42.0)"></image><image xlink:href="../../9CA56402-2BB0-4C02-91E4-E09E9D091E30/assets/B52A813563C5B58C237ABF9E82ED712C.png" width="54.00" height="51.00" transform="matrix(0.99, 0.00, -0.00, -1.01, 1213.6, 470.1)" opacity="0.50"></image><path d="M 1240.4 469.1 L 1246.0 451.8 L 1264.2 451.8 L 1249.5 441.1 L 1255.1 423.8 L 1240.4 434.5 L 1225.7 423.8 L 1231.3 441.1 L 1216.6 451.8 L 1234.8 451.8 Z M 1240.4 469.1 " fill="#D62B73"></path><image xlink:href="../../9CA56402-2BB0-4C02-91E4-E09E9D091E30/assets/81A437EF9D1D48283AC253A7A8135D17.png" width="192.00" height="372.00" transform="matrix(1.00, 0.00, -0.00, -1.00, 1144.4, 630.6)" opacity="0.50"></image><path d="M 153.6 52.7 C 188.7 123.1 188.7 237.1 153.6 307.4 C 118.5 377.8 61.5 377.8 26.4 307.4 C -8.8 237.1 -8.8 123.1 26.4 52.7 C 61.5 -17.6 118.5 -17.6 153.6 52.7 Z M 153.6 52.7 " fill="none" stroke="#D62B73" stroke-width="6.00" transform="matrix(1.00, 0.00, 0.00, -1.00, 1150.4, 626.6)"></path></g></svg>