<?xml version="1.0" encoding="UTF-8" standalone="no"?><svg xmlns="http://www.w3.org/2000/svg" xmlns:xlink="http://www.w3.org/1999/xlink" clip-rule="evenodd" stroke-miterlimit="4.00" viewBox="0 0 290 50"><desc>SVG generated by Keynote</desc><defs></defs><g transform="matrix(1.00, 0.00, -0.00, -1.00, 0.0, 50.0)"><text xml:space="preserve" font-family="HurmeGeometricSans3-Regular" font-size="50.0" fill="#000000" transform="matrix(1.00, 0.00, -0.00, -1.00, 1.0, 13.0)">W</text><text xml:space="preserve" font-family="HurmeGeometricSans3-Regular" font-size="50.0" fill="#000000" transform="matrix(1.00, 0.00, -0.00, -1.00, 47.0, 13.0)">i</text><text xml:space="preserve" font-family="HurmeGeometricSans3-Regular" font-size="50.0" fill="#000000" transform="matrix(1.00, 0.00, -0.00, -1.00, 56.5, 13.0)">t</text><text xml:space="preserve" font-family="HurmeGeometricSans3-Regular" font-size="50.0" fill="#000000" transform="matrix(1.00, 0.00, -0.00, -1.00, 71.9, 13.0)">h</text><text xml:space="preserve" font-family="HurmeGeometricSans3-Regular" font-size="50.0" fill="#000000" transform="matrix(1.00, 0.00, -0.00, -1.00, 98.1, 13.0)"> </text><text xml:space="preserve" font-family="HurmeGeometricSans3-Regular" font-size="50.0" fill="#000000" transform="matrix(1.00, 0.00, -0.00, -1.00, 116.5, 13.0)">W</text><text xml:space="preserve" font-family="HurmeGeometricSans3-Regular" font-size="50.0" fill="#000000" transform="matrix(1.00, 0.00, -0.00, -1.00, 160.0, 13.0)">e</text><text xml:space="preserve" font-family="HurmeGeometricSans3-Regular" font-size="50.0" fill="#000000" transform="matrix(1.00, 0.00, -0.00, -1.00, 187.5, 13.0)">i</text><text xml:space="preserve" font-family="HurmeGeometricSans3-Regular" font-size="50.0" fill="#000000" transform="matrix(1.00, 0.00, -0.00, -1.00, 197.0, 13.0)">g</text><text xml:space="preserve" font-family="HurmeGeometricSans3-Regular" font-size="50.0" fill="#000000" transform="matrix(1.00, 0.00, -0.00, -1.00, 227.0, 13.0)">h</text><text xml:space="preserve" font-family="HurmeGeometricSans3-Regular" font-size="50.0" fill="#000000" transform="matrix(1.00, 0.00, -0.00, -1.00, 253.2, 13.0)">t</text><text xml:space="preserve" font-family="HurmeGeometricSans3-Regular" font-size="50.0" fill="#000000" transform="matrix(1.00, 0.00, -0.00, -1.00, 268.6, 13.0)">s</text></g></svg>