<?xml version="1.0" encoding="UTF-8" standalone="no"?><svg xmlns="http://www.w3.org/2000/svg" xmlns:xlink="http://www.w3.org/1999/xlink" clip-rule="evenodd" stroke-miterlimit="10" viewBox="0 0 1920 1080"><desc>SVG generated by Keynote</desc><defs></defs><g transform="matrix(1.00, 0.00, -0.00, -1.00, 0.0, 1080.0)"><g><clipPath id="clip0x7fbe63109810"><path d="M 0.0 1080.0 L 1920.0 1080.0 L 1920.0 0.0 L 0.0 0.0 Z M 0.0 1080.0 "></path></clipPath><g clip-path="url(#clip0x7fbe63109810)"><image xlink:href="341B0C0B581803F8883E3F196AEABCB3.png" width="4000.00" height="2672.00" transform="matrix(0.48, 0.00, -0.00, -0.48, 0.0, 1181.3)"></image></g></g><image xlink:href="049DAA61E0717D6040E406402F7E48DC.png" width="1280.00" height="721.00" transform="matrix(1.00, 0.00, -0.00, -1.00, 320.0, 1075.5)"></image><text xml:space="preserve" font-family="Helvetica-Light,Helvetica" font-size="107.5" fill="#FEFFFF" transform="matrix(1.00, 0.00, -0.00, -1.00, 364.0, 804.0)">A</text><text xml:space="preserve" font-family="Helvetica-Light,Helvetica" font-size="107.5" fill="#FEFFFF" transform="matrix(1.00, 0.00, -0.00, -1.00, 435.7, 804.0)"> </text><text xml:space="preserve" font-family="Helvetica-Light,Helvetica" font-size="107.5" fill="#FEFFFF" transform="matrix(1.00, 0.00, -0.00, -1.00, 465.6, 804.0)">M</text><text xml:space="preserve" font-family="Helvetica-Light,Helvetica" font-size="107.5" fill="#FEFFFF" transform="matrix(1.00, 0.00, -0.00, -1.00, 555.2, 804.0)">o</text><text xml:space="preserve" font-family="Helvetica-Light,Helvetica" font-size="107.5" fill="#FEFFFF" transform="matrix(1.00, 0.00, -0.00, -1.00, 615.0, 804.0)">b</text><text xml:space="preserve" font-family="Helvetica-Light,Helvetica" font-size="107.5" fill="#FEFFFF" transform="matrix(1.00, 0.00, -0.00, -1.00, 680.6, 804.0)">i</text><text xml:space="preserve" font-family="Helvetica-Light,Helvetica" font-size="107.5" fill="#FEFFFF" transform="matrix(1.00, 0.00, -0.00, -1.00, 704.5, 804.0)">l</text><text xml:space="preserve" font-family="Helvetica-Light,Helvetica" font-size="107.5" fill="#FEFFFF" transform="matrix(1.00, 0.00, -0.00, -1.00, 728.4, 804.0)">e</text><text xml:space="preserve" font-family="Helvetica-Light,Helvetica" font-size="107.5" fill="#FEFFFF" transform="matrix(1.00, 0.00, -0.00, -1.00, 788.2, 804.0)"> </text><text xml:space="preserve" font-family="Helvetica-Light,Helvetica" font-size="107.5" fill="#FEFFFF" transform="matrix(1.00, 0.00, -0.00, -1.00, 818.1, 804.0)">A</text><text xml:space="preserve" font-family="Helvetica-Light,Helvetica" font-size="107.5" fill="#FEFFFF" transform="matrix(1.00, 0.00, -0.00, -1.00, 889.8, 804.0)">p</text><text xml:space="preserve" font-family="Helvetica-Light,Helvetica" font-size="107.5" fill="#FEFFFF" transform="matrix(1.00, 0.00, -0.00, -1.00, 955.5, 804.0)">p</text><text xml:space="preserve" font-family="Helvetica-Light,Helvetica" font-size="107.5" fill="#FEFFFF" transform="matrix(1.00, 0.00, -0.00, -1.00, 1021.2, 804.0)">l</text><text xml:space="preserve" font-family="Helvetica-Light,Helvetica" font-size="107.5" fill="#FEFFFF" transform="matrix(1.00, 0.00, -0.00, -1.00, 1045.0, 804.0)">i</text><text xml:space="preserve" font-family="Helvetica-Light,Helvetica" font-size="107.5" fill="#FEFFFF" transform="matrix(1.00, 0.00, -0.00, -1.00, 1068.9, 804.0)">c</text><text xml:space="preserve" font-family="Helvetica-Light,Helvetica" font-size="107.5" fill="#FEFFFF" transform="matrix(1.00, 0.00, -0.00, -1.00, 1128.7, 804.0)">a</text><text xml:space="preserve" font-family="Helvetica-Light,Helvetica" font-size="107.5" fill="#FEFFFF" transform="matrix(1.00, 0.00, -0.00, -1.00, 1188.5, 804.0)">t</text><text xml:space="preserve" font-family="Helvetica-Light,Helvetica" font-size="107.5" fill="#FEFFFF" transform="matrix(1.00, 0.00, -0.00, -1.00, 1218.4, 804.0)">i</text><text xml:space="preserve" font-family="Helvetica-Light,Helvetica" font-size="107.5" fill="#FEFFFF" transform="matrix(1.00, 0.00, -0.00, -1.00, 1242.2, 804.0)">o</text><text xml:space="preserve" font-family="Helvetica-Light,Helvetica" font-size="107.5" fill="#FEFFFF" transform="matrix(1.00, 0.00, -0.00, -1.00, 1302.0, 804.0)">n</text><text xml:space="preserve" font-family="Helvetica-Light,Helvetica" font-size="107.5" fill="#FEFFFF" transform="matrix(1.00, 0.00, -0.00, -1.00, 1361.8, 804.0)"> </text><text xml:space="preserve" font-family="Helvetica-Light,Helvetica" font-size="107.5" fill="#FEFFFF" transform="matrix(1.00, 0.00, -0.00, -1.00, 1391.7, 804.0)">F</text><text xml:space="preserve" font-family="Helvetica-Light,Helvetica" font-size="107.5" fill="#FEFFFF" transform="matrix(1.00, 0.00, -0.00, -1.00, 1451.5, 804.0)">o</text><text xml:space="preserve" font-family="Helvetica-Light,Helvetica" font-size="107.5" fill="#FEFFFF" transform="matrix(1.00, 0.00, -0.00, -1.00, 1511.2, 804.0)">r</text><text xml:space="preserve" font-family="Helvetica-Light,Helvetica" font-size="107.5" fill="#FEFFFF" transform="matrix(1.00, 0.00, -0.00, -1.00, 1547.0, 804.0)"> </text><text xml:space="preserve" font-family="Helvetica-Light,Helvetica" font-size="107.5" fill="#FEFFFF" transform="matrix(1.00, 0.00, -0.00, -1.00, 364.0, 674.0)">U</text><text xml:space="preserve" font-family="Helvetica-Light,Helvetica" font-size="107.5" fill="#FEFFFF" transform="matrix(1.00, 0.00, -0.00, -1.00, 441.6, 674.0)">n</text><text xml:space="preserve" font-family="Helvetica-Light,Helvetica" font-size="107.5" fill="#FEFFFF" transform="matrix(1.00, 0.00, -0.00, -1.00, 501.4, 674.0)">i</text><text xml:space="preserve" font-family="Helvetica-Light,Helvetica" font-size="107.5" fill="#FEFFFF" transform="matrix(1.00, 0.00, -0.00, -1.00, 525.3, 674.0)">v</text><text xml:space="preserve" font-family="Helvetica-Light,Helvetica" font-size="107.5" fill="#FEFFFF" transform="matrix(1.00, 0.00, -0.00, -1.00, 579.0, 674.0)">e</text><text xml:space="preserve" font-family="Helvetica-Light,Helvetica" font-size="107.5" fill="#FEFFFF" transform="matrix(1.00, 0.00, -0.00, -1.00, 638.8, 674.0)">r</text><text xml:space="preserve" font-family="Helvetica-Light,Helvetica" font-size="107.5" fill="#FEFFFF" transform="matrix(1.00, 0.00, -0.00, -1.00, 674.6, 674.0)">s</text><text xml:space="preserve" font-family="Helvetica-Light,Helvetica" font-size="107.5" fill="#FEFFFF" transform="matrix(1.00, 0.00, -0.00, -1.00, 728.4, 674.0)">i</text><text xml:space="preserve" font-family="Helvetica-Light,Helvetica" font-size="107.5" fill="#FEFFFF" transform="matrix(1.00, 0.00, -0.00, -1.00, 752.3, 674.0)">t</text><text xml:space="preserve" font-family="Helvetica-Light,Helvetica" font-size="107.5" fill="#FEFFFF" transform="matrix(1.00, 0.00, -0.00, -1.00, 782.1, 674.0)">y</text><text xml:space="preserve" font-family="Helvetica-Light,Helvetica" font-size="107.5" fill="#FEFFFF" transform="matrix(1.00, 0.00, -0.00, -1.00, 835.9, 674.0)"> </text><text xml:space="preserve" font-family="Helvetica-Light,Helvetica" font-size="107.5" fill="#FEFFFF" transform="matrix(1.00, 0.00, -0.00, -1.00, 865.8, 674.0)">o</text><text xml:space="preserve" font-family="Helvetica-Light,Helvetica" font-size="107.5" fill="#FEFFFF" transform="matrix(1.00, 0.00, -0.00, -1.00, 925.6, 674.0)">f</text><text xml:space="preserve" font-family="Helvetica-Light,Helvetica" font-size="107.5" fill="#FEFFFF" transform="matrix(1.00, 0.00, -0.00, -1.00, 955.5, 674.0)"> </text><text xml:space="preserve" font-family="Helvetica-Light,Helvetica" font-size="107.5" fill="#FEFFFF" transform="matrix(1.00, 0.00, -0.00, -1.00, 985.4, 674.0)">W</text><text xml:space="preserve" font-family="Helvetica-Light,Helvetica" font-size="107.5" fill="#FEFFFF" transform="matrix(1.00, 0.00, -0.00, -1.00, 1077.0, 674.0)">a</text><text xml:space="preserve" font-family="Helvetica-Light,Helvetica" font-size="107.5" fill="#FEFFFF" transform="matrix(1.00, 0.00, -0.00, -1.00, 1136.7, 674.0)">t</text><text xml:space="preserve" font-family="Helvetica-Light,Helvetica" font-size="107.5" fill="#FEFFFF" transform="matrix(1.00, 0.00, -0.00, -1.00, 1166.6, 674.0)">e</text><text xml:space="preserve" font-family="Helvetica-Light,Helvetica" font-size="107.5" fill="#FEFFFF" transform="matrix(1.00, 0.00, -0.00, -1.00, 1226.4, 674.0)">r</text><text xml:space="preserve" font-family="Helvetica-Light,Helvetica" font-size="107.5" fill="#FEFFFF" transform="matrix(1.00, 0.00, -0.00, -1.00, 1262.2, 674.0)">l</text><text xml:space="preserve" font-family="Helvetica-Light,Helvetica" font-size="107.5" fill="#FEFFFF" transform="matrix(1.00, 0.00, -0.00, -1.00, 1286.1, 674.0)">o</text><text xml:space="preserve" font-family="Helvetica-Light,Helvetica" font-size="107.5" fill="#FEFFFF" transform="matrix(1.00, 0.00, -0.00, -1.00, 1345.9, 674.0)">o</text><text xml:space="preserve" font-family="Helvetica-Light,Helvetica" font-size="107.5" fill="#FEFFFF" transform="matrix(1.00, 0.00, -0.00, -1.00, 1405.7, 674.0)"> </text><text xml:space="preserve" font-family="Helvetica-Light,Helvetica" font-size="107.5" fill="#FEFFFF" transform="matrix(1.00, 0.00, -0.00, -1.00, 1435.5, 674.0)"> </text><text xml:space="preserve" font-family="Helvetica-Light,Helvetica" font-size="107.5" fill="#FEFFFF" transform="matrix(1.00, 0.00, -0.00, -1.00, 364.0, 544.0)">S</text><text xml:space="preserve" font-family="Helvetica-Light,Helvetica" font-size="107.5" fill="#FEFFFF" transform="matrix(1.00, 0.00, -0.00, -1.00, 429.7, 544.0)">t</text><text xml:space="preserve" font-family="Helvetica-Light,Helvetica" font-size="107.5" fill="#FEFFFF" transform="matrix(1.00, 0.00, -0.00, -1.00, 459.6, 544.0)">u</text><text xml:space="preserve" font-family="Helvetica-Light,Helvetica" font-size="107.5" fill="#FEFFFF" transform="matrix(1.00, 0.00, -0.00, -1.00, 519.4, 544.0)">d</text><text xml:space="preserve" font-family="Helvetica-Light,Helvetica" font-size="107.5" fill="#FEFFFF" transform="matrix(1.00, 0.00, -0.00, -1.00, 585.1, 544.0)">e</text><text xml:space="preserve" font-family="Helvetica-Light,Helvetica" font-size="107.5" fill="#FEFFFF" transform="matrix(1.00, 0.00, -0.00, -1.00, 644.8, 544.0)">n</text><text xml:space="preserve" font-family="Helvetica-Light,Helvetica" font-size="107.5" fill="#FEFFFF" transform="matrix(1.00, 0.00, -0.00, -1.00, 704.6, 544.0)">t</text><text xml:space="preserve" font-family="Helvetica-Light,Helvetica" font-size="107.5" fill="#FEFFFF" transform="matrix(1.00, 0.00, -0.00, -1.00, 734.5, 544.0)">s</text><image xlink:href="F21EAEECB64523E963C910DC1231E66E.png" width="783.00" height="501.00" transform="matrix(1.00, 0.00, -0.00, -1.00, 319.6, 557.5)"></image><text xml:space="preserve" font-family="Helvetica,Helvetica" font-size="45.6" fill="#FEFFFF" transform="matrix(1.00, 0.00, -0.00, -1.00, 363.6, 383.8)">M</text><text xml:space="preserve" font-family="Helvetica,Helvetica" font-size="45.6" fill="#FEFFFF" transform="matrix(1.00, 0.00, -0.00, -1.00, 401.6, 383.8)">S</text><text xml:space="preserve" font-family="Helvetica,Helvetica" font-size="45.6" fill="#FEFFFF" transform="matrix(1.00, 0.00, -0.00, -1.00, 432.0, 383.8)">C</text><text xml:space="preserve" font-family="Helvetica,Helvetica" font-size="45.6" fill="#FEFFFF" transform="matrix(1.00, 0.00, -0.00, -1.00, 465.0, 383.8)">I</text><text xml:space="preserve" font-family="Helvetica,Helvetica" font-size="45.6" fill="#FEFFFF" transform="matrix(1.00, 0.00, -0.00, -1.00, 477.6, 383.8)"> </text><text xml:space="preserve" font-family="Helvetica,Helvetica" font-size="45.6" fill="#FEFFFF" transform="matrix(1.00, 0.00, -0.00, -1.00, 490.3, 383.8)">7</text><text xml:space="preserve" font-family="Helvetica,Helvetica" font-size="45.6" fill="#FEFFFF" transform="matrix(1.00, 0.00, -0.00, -1.00, 515.7, 383.8)">3</text><text xml:space="preserve" font-family="Helvetica,Helvetica" font-size="45.6" fill="#FEFFFF" transform="matrix(1.00, 0.00, -0.00, -1.00, 541.0, 383.8)">0</text><text xml:space="preserve" font-family="Helvetica,Helvetica" font-size="45.6" fill="#FEFFFF" transform="matrix(1.00, 0.00, -0.00, -1.00, 566.4, 383.8)"> </text><text xml:space="preserve" font-family="Helvetica,Helvetica" font-size="45.6" fill="#FEFFFF" transform="matrix(1.00, 0.00, -0.00, -1.00, 363.6, 321.8)">H</text><text xml:space="preserve" font-family="Helvetica,Helvetica" font-size="45.6" fill="#FEFFFF" transform="matrix(1.00, 0.00, -0.00, -1.00, 396.6, 321.8)">u</text><text xml:space="preserve" font-family="Helvetica,Helvetica" font-size="45.6" fill="#FEFFFF" transform="matrix(1.00, 0.00, -0.00, -1.00, 421.9, 321.8)">m</text><text xml:space="preserve" font-family="Helvetica,Helvetica" font-size="45.6" fill="#FEFFFF" transform="matrix(1.00, 0.00, -0.00, -1.00, 459.9, 321.8)">a</text><text xml:space="preserve" font-family="Helvetica,Helvetica" font-size="45.6" fill="#FEFFFF" transform="matrix(1.00, 0.00, -0.00, -1.00, 485.3, 321.8)">n</text><text xml:space="preserve" font-family="Helvetica,Helvetica" font-size="45.6" fill="#FEFFFF" transform="matrix(1.00, 0.00, -0.00, -1.00, 510.7, 321.8)"> </text><text xml:space="preserve" font-family="Helvetica,Helvetica" font-size="45.6" fill="#FEFFFF" transform="matrix(1.00, 0.00, -0.00, -1.00, 523.3, 321.8)">C</text><text xml:space="preserve" font-family="Helvetica,Helvetica" font-size="45.6" fill="#FEFFFF" transform="matrix(1.00, 0.00, -0.00, -1.00, 556.3, 321.8)">o</text><text xml:space="preserve" font-family="Helvetica,Helvetica" font-size="45.6" fill="#FEFFFF" transform="matrix(1.00, 0.00, -0.00, -1.00, 581.6, 321.8)">m</text><text xml:space="preserve" font-family="Helvetica,Helvetica" font-size="45.6" fill="#FEFFFF" transform="matrix(1.00, 0.00, -0.00, -1.00, 619.6, 321.8)">p</text><text xml:space="preserve" font-family="Helvetica,Helvetica" font-size="45.6" fill="#FEFFFF" transform="matrix(1.00, 0.00, -0.00, -1.00, 645.0, 321.8)">u</text><text xml:space="preserve" font-family="Helvetica,Helvetica" font-size="45.6" fill="#FEFFFF" transform="matrix(1.00, 0.00, -0.00, -1.00, 670.4, 321.8)">t</text><text xml:space="preserve" font-family="Helvetica,Helvetica" font-size="45.6" fill="#FEFFFF" transform="matrix(1.00, 0.00, -0.00, -1.00, 683.0, 321.8)">e</text><text xml:space="preserve" font-family="Helvetica,Helvetica" font-size="45.6" fill="#FEFFFF" transform="matrix(1.00, 0.00, -0.00, -1.00, 708.4, 321.8)">r</text><text xml:space="preserve" font-family="Helvetica,Helvetica" font-size="45.6" fill="#FEFFFF" transform="matrix(1.00, 0.00, -0.00, -1.00, 723.6, 321.8)"> </text><text xml:space="preserve" font-family="Helvetica,Helvetica" font-size="45.6" fill="#FEFFFF" transform="matrix(1.00, 0.00, -0.00, -1.00, 736.2, 321.8)">I</text><text xml:space="preserve" font-family="Helvetica,Helvetica" font-size="45.6" fill="#FEFFFF" transform="matrix(1.00, 0.00, -0.00, -1.00, 748.9, 321.8)">n</text><text xml:space="preserve" font-family="Helvetica,Helvetica" font-size="45.6" fill="#FEFFFF" transform="matrix(1.00, 0.00, -0.00, -1.00, 774.3, 321.8)">t</text><text xml:space="preserve" font-family="Helvetica,Helvetica" font-size="45.6" fill="#FEFFFF" transform="matrix(1.00, 0.00, -0.00, -1.00, 786.9, 321.8)">e</text><text xml:space="preserve" font-family="Helvetica,Helvetica" font-size="45.6" fill="#FEFFFF" transform="matrix(1.00, 0.00, -0.00, -1.00, 812.3, 321.8)">r</text><text xml:space="preserve" font-family="Helvetica,Helvetica" font-size="45.6" fill="#FEFFFF" transform="matrix(1.00, 0.00, -0.00, -1.00, 827.5, 321.8)">a</text><text xml:space="preserve" font-family="Helvetica,Helvetica" font-size="45.6" fill="#FEFFFF" transform="matrix(1.00, 0.00, -0.00, -1.00, 852.9, 321.8)">c</text><text xml:space="preserve" font-family="Helvetica,Helvetica" font-size="45.6" fill="#FEFFFF" transform="matrix(1.00, 0.00, -0.00, -1.00, 875.7, 321.8)">t</text><text xml:space="preserve" font-family="Helvetica,Helvetica" font-size="45.6" fill="#FEFFFF" transform="matrix(1.00, 0.00, -0.00, -1.00, 888.3, 321.8)">i</text><text xml:space="preserve" font-family="Helvetica,Helvetica" font-size="45.6" fill="#FEFFFF" transform="matrix(1.00, 0.00, -0.00, -1.00, 898.5, 321.8)">o</text><text xml:space="preserve" font-family="Helvetica,Helvetica" font-size="45.6" fill="#FEFFFF" transform="matrix(1.00, 0.00, -0.00, -1.00, 923.8, 321.8)">n</text><text xml:space="preserve" font-family="Helvetica,Helvetica" font-size="45.6" fill="#FEFFFF" transform="matrix(1.00, 0.00, -0.00, -1.00, 949.2, 321.8)"> </text><text xml:space="preserve" font-family="Helvetica,Helvetica" font-size="45.6" fill="#FEFFFF" transform="matrix(1.00, 0.00, -0.00, -1.00, 363.6, 259.8)">T</text><text xml:space="preserve" font-family="Helvetica,Helvetica" font-size="45.6" fill="#FEFFFF" transform="matrix(1.00, 0.00, -0.00, -1.00, 391.5, 259.8)">e</text><text xml:space="preserve" font-family="Helvetica,Helvetica" font-size="45.6" fill="#FEFFFF" transform="matrix(1.00, 0.00, -0.00, -1.00, 416.9, 259.8)">r</text><text xml:space="preserve" font-family="Helvetica,Helvetica" font-size="45.6" fill="#FEFFFF" transform="matrix(1.00, 0.00, -0.00, -1.00, 432.0, 259.8)">m</text><text xml:space="preserve" font-family="Helvetica,Helvetica" font-size="45.6" fill="#FEFFFF" transform="matrix(1.00, 0.00, -0.00, -1.00, 470.0, 259.8)"> </text><text xml:space="preserve" font-family="Helvetica,Helvetica" font-size="45.6" fill="#FEFFFF" transform="matrix(1.00, 0.00, -0.00, -1.00, 482.7, 259.8)">P</text><text xml:space="preserve" font-family="Helvetica,Helvetica" font-size="45.6" fill="#FEFFFF" transform="matrix(1.00, 0.00, -0.00, -1.00, 513.1, 259.8)">r</text><text xml:space="preserve" font-family="Helvetica,Helvetica" font-size="45.6" fill="#FEFFFF" transform="matrix(1.00, 0.00, -0.00, -1.00, 528.3, 259.8)">o</text><text xml:space="preserve" font-family="Helvetica,Helvetica" font-size="45.6" fill="#FEFFFF" transform="matrix(1.00, 0.00, -0.00, -1.00, 553.7, 259.8)">j</text><text xml:space="preserve" font-family="Helvetica,Helvetica" font-size="45.6" fill="#FEFFFF" transform="matrix(1.00, 0.00, -0.00, -1.00, 563.8, 259.8)">e</text><text xml:space="preserve" font-family="Helvetica,Helvetica" font-size="45.6" fill="#FEFFFF" transform="matrix(1.00, 0.00, -0.00, -1.00, 589.2, 259.8)">c</text><text xml:space="preserve" font-family="Helvetica,Helvetica" font-size="45.6" fill="#FEFFFF" transform="matrix(1.00, 0.00, -0.00, -1.00, 612.0, 259.8)">t</text><text xml:space="preserve" font-family="Helvetica,Helvetica" font-size="45.6" fill="#FEFFFF" transform="matrix(1.00, 0.00, -0.00, -1.00, 624.6, 259.8)"> </text><text xml:space="preserve" font-family="Helvetica,Helvetica" font-size="45.6" fill="#FEFFFF" transform="matrix(1.00, 0.00, -0.00, -1.00, 363.6, 197.8)">D</text><text xml:space="preserve" font-family="Helvetica,Helvetica" font-size="45.6" fill="#FEFFFF" transform="matrix(1.00, 0.00, -0.00, -1.00, 396.6, 197.8)">u</text><text xml:space="preserve" font-family="Helvetica,Helvetica" font-size="45.6" fill="#FEFFFF" transform="matrix(1.00, 0.00, -0.00, -1.00, 421.9, 197.8)">n</text><text xml:space="preserve" font-family="Helvetica,Helvetica" font-size="45.6" fill="#FEFFFF" transform="matrix(1.00, 0.00, -0.00, -1.00, 447.3, 197.8)"> </text><text xml:space="preserve" font-family="Helvetica,Helvetica" font-size="45.6" fill="#FEFFFF" transform="matrix(1.00, 0.00, -0.00, -1.00, 460.0, 197.8)">H</text><text xml:space="preserve" font-family="Helvetica,Helvetica" font-size="45.6" fill="#FEFFFF" transform="matrix(1.00, 0.00, -0.00, -1.00, 492.9, 197.8)">u</text><text xml:space="preserve" font-family="Helvetica,Helvetica" font-size="45.6" fill="#FEFFFF" transform="matrix(1.00, 0.00, -0.00, -1.00, 518.3, 197.8)">a</text><text xml:space="preserve" font-family="Helvetica,Helvetica" font-size="45.6" fill="#FEFFFF" transform="matrix(1.00, 0.00, -0.00, -1.00, 543.7, 197.8)">n</text><text xml:space="preserve" font-family="Helvetica,Helvetica" font-size="45.6" fill="#FEFFFF" transform="matrix(1.00, 0.00, -0.00, -1.00, 569.0, 197.8)">g</text><text xml:space="preserve" font-family="Helvetica-Light,Helvetica" font-size="36.0" fill="#FEFFFF" transform="matrix(1.00, 0.00, -0.00, -1.00, 1794.9, 11.7)">©</text><text xml:space="preserve" font-family="Helvetica-Light,Helvetica" font-size="36.0" fill="#FEFFFF" transform="matrix(1.00, 0.00, -0.00, -1.00, 1823.7, 11.7)">F</text><text xml:space="preserve" font-family="Helvetica-Light,Helvetica" font-size="36.0" fill="#FEFFFF" transform="matrix(1.00, 0.00, -0.00, -1.00, 1843.7, 11.7)">l</text><text xml:space="preserve" font-family="Helvetica-Light,Helvetica" font-size="36.0" fill="#FEFFFF" transform="matrix(1.00, 0.00, -0.00, -1.00, 1851.7, 11.7)">i</text><text xml:space="preserve" font-family="Helvetica-Light,Helvetica" font-size="36.0" fill="#FEFFFF" transform="matrix(1.00, 0.00, -0.00, -1.00, 1859.7, 11.7)">c</text><text xml:space="preserve" font-family="Helvetica-Light,Helvetica" font-size="36.0" fill="#FEFFFF" transform="matrix(1.00, 0.00, -0.00, -1.00, 1879.7, 11.7)">k</text><text xml:space="preserve" font-family="Helvetica-Light,Helvetica" font-size="36.0" fill="#FEFFFF" transform="matrix(1.00, 0.00, -0.00, -1.00, 1897.7, 11.7)">r</text></g></svg>