<?xml version="1.0" encoding="UTF-8" standalone="no"?><svg xmlns="http://www.w3.org/2000/svg" xmlns:xlink="http://www.w3.org/1999/xlink" clip-rule="evenodd" stroke-miterlimit="10" viewBox="0 0 366 308"><desc>SVG generated by Keynote</desc><defs></defs><g transform="matrix(1.00, 0.00, -0.00, -1.00, 0.0, 308.0)"><image xlink:href="862D8CA9D972364D4F599BE600EB541F.png" width="398.00" height="368.00" transform="matrix(1.00, 0.00, -0.00, -1.00, -18.2, 339.2)"></image><text xml:space="preserve" font-family="Helvetica-Light,Helvetica" font-size="72.0" fill="#FEFFFF" transform="matrix(1.00, 0.00, -0.00, -1.00, 36.3, 172.4)">N</text><text xml:space="preserve" font-family="Helvetica-Light,Helvetica" font-size="72.0" fill="#FEFFFF" transform="matrix(1.00, 0.00, -0.00, -1.00, 88.3, 172.4)">o</text><text xml:space="preserve" font-family="Helvetica-Light,Helvetica" font-size="72.0" fill="#FEFFFF" transform="matrix(1.00, 0.00, -0.00, -1.00, 128.3, 172.4)">t</text><text xml:space="preserve" font-family="Helvetica-Light,Helvetica" font-size="72.0" fill="#FEFFFF" transform="matrix(1.00, 0.00, -0.00, -1.00, 148.3, 172.4)"> </text><text xml:space="preserve" font-family="Helvetica-Light,Helvetica" font-size="72.0" fill="#FEFFFF" transform="matrix(1.00, 0.00, -0.00, -1.00, 168.4, 172.4)">E</text><text xml:space="preserve" font-family="Helvetica-Light,Helvetica" font-size="72.0" fill="#FEFFFF" transform="matrix(1.00, 0.00, -0.00, -1.00, 212.3, 172.4)">a</text><text xml:space="preserve" font-family="Helvetica-Light,Helvetica" font-size="72.0" fill="#FEFFFF" transform="matrix(1.00, 0.00, -0.00, -1.00, 252.4, 172.4)">s</text><text xml:space="preserve" font-family="Helvetica-Light,Helvetica" font-size="72.0" fill="#FEFFFF" transform="matrix(1.00, 0.00, -0.00, -1.00, 288.4, 172.4)">y</text><text xml:space="preserve" font-family="Helvetica-Light,Helvetica" font-size="72.0" fill="#FEFFFF" transform="matrix(1.00, 0.00, -0.00, -1.00, 324.4, 172.4)"> </text><text xml:space="preserve" font-family="Helvetica-Light,Helvetica" font-size="72.0" fill="#FEFFFF" transform="matrix(1.00, 0.00, -0.00, -1.00, 108.3, 86.4)">7</text><text xml:space="preserve" font-family="Helvetica-Light,Helvetica" font-size="72.0" fill="#FEFFFF" transform="matrix(1.00, 0.00, -0.00, -1.00, 148.3, 86.4)">9</text><text xml:space="preserve" font-family="Helvetica-Light,Helvetica" font-size="72.0" fill="#FEFFFF" transform="matrix(1.00, 0.00, -0.00, -1.00, 188.4, 86.4)">%</text></g></svg>