<?xml version="1.0" encoding="UTF-8" standalone="no"?><svg xmlns="http://www.w3.org/2000/svg" xmlns:xlink="http://www.w3.org/1999/xlink" clip-rule="evenodd" stroke-miterlimit="4.00" viewBox="0 0 884 95"><desc>SVG generated by Keynote</desc><defs></defs><g transform="matrix(1.00, 0.00, -0.00, -1.00, 0.0, 95.0)"><g><clipPath id="clip-756"><path d="M 18.6 -46.0 L 899.9 -46.0 L 899.9 110.0 L 18.6 110.0 Z M 18.6 -46.0 "></path></clipPath><g clip-path="url(#clip-756)"><text xml:space="preserve" font-family="HurmeGeometricSans4-SemiBold" font-weight="bold" font-size="84.0" fill="#5E5E5E" transform="matrix(1.00, 0.00, -0.00, -1.00, 40.0, 25.0)">2</text><text xml:space="preserve" font-family="HurmeGeometricSans4-SemiBold" font-weight="bold" font-size="84.0" fill="#5E5E5E" transform="matrix(1.00, 0.00, -0.00, -1.00, 84.2, 25.0)">5</text><text xml:space="preserve" font-family="HurmeGeometricSans4-SemiBold" font-weight="bold" font-size="84.0" fill="#5E5E5E" transform="matrix(1.00, 0.00, -0.00, -1.00, 131.1, 25.0)">8</text><text xml:space="preserve" font-family="HurmeGeometricSans4-SemiBold" font-weight="bold" font-size="84.0" fill="#5E5E5E" transform="matrix(1.00, 0.00, -0.00, -1.00, 177.3, 25.0)">,</text><text xml:space="preserve" font-family="HurmeGeometricSans4-SemiBold" font-weight="bold" font-size="84.0" fill="#5E5E5E" transform="matrix(1.00, 0.00, -0.00, -1.00, 196.0, 25.0)"> </text><text xml:space="preserve" font-family="HurmeGeometricSans4-SemiBold" font-weight="bold" font-size="84.0" fill="#5E5E5E" transform="matrix(1.00, 0.00, -0.00, -1.00, 230.2, 25.0)">4</text><text xml:space="preserve" font-family="HurmeGeometricSans4-SemiBold" font-weight="bold" font-size="84.0" fill="#5E5E5E" transform="matrix(1.00, 0.00, -0.00, -1.00, 275.2, 25.0)">7</text><text xml:space="preserve" font-family="HurmeGeometricSans4-SemiBold" font-weight="bold" font-size="84.0" fill="#5E5E5E" transform="matrix(1.00, 0.00, -0.00, -1.00, 318.6, 25.0)">9</text><text xml:space="preserve" font-family="HurmeGeometricSans4-SemiBold" font-weight="bold" font-size="84.0" fill="#5E5E5E" transform="matrix(1.00, 0.00, -0.00, -1.00, 360.4, 25.0)">,</text><text xml:space="preserve" font-family="HurmeGeometricSans4-SemiBold" font-weight="bold" font-size="84.0" fill="#5E5E5E" transform="matrix(1.00, 0.00, -0.00, -1.00, 379.0, 25.0)"> </text><text xml:space="preserve" font-family="HurmeGeometricSans4-SemiBold" font-weight="bold" font-size="84.0" fill="#5E5E5E" transform="matrix(1.00, 0.00, -0.00, -1.00, 410.8, 25.0)">1</text><text xml:space="preserve" font-family="HurmeGeometricSans4-SemiBold" font-weight="bold" font-size="84.0" fill="#5E5E5E" transform="matrix(1.00, 0.00, -0.00, -1.00, 439.0, 25.0)">2</text><text xml:space="preserve" font-family="HurmeGeometricSans4-SemiBold" font-weight="bold" font-size="84.0" fill="#5E5E5E" transform="matrix(1.00, 0.00, -0.00, -1.00, 483.2, 25.0)">3</text><text xml:space="preserve" font-family="HurmeGeometricSans4-SemiBold" font-weight="bold" font-size="84.0" fill="#5E5E5E" transform="matrix(1.00, 0.00, -0.00, -1.00, 528.9, 25.0)">,</text><text xml:space="preserve" font-family="HurmeGeometricSans4-SemiBold" font-weight="bold" font-size="84.0" fill="#5E5E5E" transform="matrix(1.00, 0.00, -0.00, -1.00, 547.5, 25.0)"> </text><text xml:space="preserve" font-family="HurmeGeometricSans4-SemiBold" font-weight="bold" font-size="84.0" fill="#5E5E5E" transform="matrix(1.00, 0.00, -0.00, -1.00, 581.7, 25.0)">…</text><text xml:space="preserve" font-family="HurmeGeometricSans4-SemiBold" font-weight="bold" font-size="84.0" fill="#5E5E5E" transform="matrix(1.00, 0.00, -0.00, -1.00, 632.8, 25.0)">…</text><text xml:space="preserve" font-family="HurmeGeometricSans4-SemiBold" font-weight="bold" font-size="84.0" fill="#5E5E5E" transform="matrix(1.00, 0.00, -0.00, -1.00, 683.9, 25.0)">,</text><text xml:space="preserve" font-family="HurmeGeometricSans4-SemiBold" font-weight="bold" font-size="84.0" fill="#5E5E5E" transform="matrix(1.00, 0.00, -0.00, -1.00, 702.5, 25.0)"> </text><text xml:space="preserve" font-family="HurmeGeometricSans4-SemiBold" font-weight="bold" font-size="84.0" fill="#5E5E5E" transform="matrix(1.00, 0.00, -0.00, -1.00, 736.7, 25.0)">4</text><text xml:space="preserve" font-family="HurmeGeometricSans4-SemiBold" font-weight="bold" font-size="84.0" fill="#5E5E5E" transform="matrix(1.00, 0.00, -0.00, -1.00, 786.7, 25.0)">2</text><text xml:space="preserve" font-family="HurmeGeometricSans4-SemiBold" font-weight="bold" font-size="84.0" fill="#5E5E5E" transform="matrix(1.00, 0.00, -0.00, -1.00, 830.9, 25.0)">3</text></g></g><g><clipPath id="clip-757"><path d="M -15.0 -46.0 L 54.4 -46.0 L 54.4 110.0 L -15.0 110.0 Z M -15.0 -46.0 "></path></clipPath><g clip-path="url(#clip-757)"><text xml:space="preserve" font-family="HurmeGeometricSans4-SemiBold" font-weight="bold" font-size="84.0" fill="#5E5E5E" transform="matrix(1.00, 0.00, -0.00, -1.00, 6.0, 25.0)">(</text></g></g></g></svg>