<?xml version="1.0" encoding="UTF-8" standalone="no"?><svg xmlns="http://www.w3.org/2000/svg" xmlns:xlink="http://www.w3.org/1999/xlink" clip-rule="evenodd" stroke-miterlimit="4.00" viewBox="0 0 429 234"><desc>SVG generated by Keynote</desc><defs></defs><g transform="matrix(1.00, 0.00, -0.00, -1.00, 0.0, 234.0)"><g><clipPath id="clip-533"><path d="M -14.8 96.2 L 205.7 96.2 L 205.7 249.2 L -14.8 249.2 Z M -14.8 96.2 "></path></clipPath><g clip-path="url(#clip-533)"><text xml:space="preserve" font-family="HurmeGeometricSans4-SemiBold" font-weight="bold" font-size="82.0" fill="#DF4585" transform="matrix(1.00, 0.00, -0.00, -1.00, 6.0, 166.0)">2</text><text xml:space="preserve" font-family="HurmeGeometricSans4-SemiBold" font-weight="bold" font-size="82.0" fill="#DF4585" transform="matrix(1.00, 0.00, -0.00, -1.00, 48.3, 166.0)">0</text><text xml:space="preserve" font-family="HurmeGeometricSans4-SemiBold" font-weight="bold" font-size="82.0" fill="#DF4585" transform="matrix(1.00, 0.00, -0.00, -1.00, 95.2, 166.0)">0</text><text xml:space="preserve" font-family="HurmeGeometricSans4-SemiBold" font-weight="bold" font-size="82.0" fill="#DF4585" transform="matrix(1.00, 0.00, -0.00, -1.00, 140.5, 166.0)">7</text></g></g><g><clipPath id="clip-534"><path d="M 4.6 -2.2 L 841.0 -2.2 L 841.0 148.4 L 4.6 148.4 Z M 4.6 -2.2 "></path></clipPath><g clip-path="url(#clip-534)"><text xml:space="preserve" font-family="Helvetica-Bold" font-weight="bold" font-size="22.0" fill="#5E5E5E" transform="matrix(1.00, 0.00, -0.00, -1.00, 12.0, 116.0)">T</text><text xml:space="preserve" font-family="Helvetica-Bold" font-weight="bold" font-size="22.0" fill="#5E5E5E" transform="matrix(1.00, 0.00, -0.00, -1.00, 25.4, 116.0)">h</text><text xml:space="preserve" font-family="Helvetica-Bold" font-weight="bold" font-size="22.0" fill="#5E5E5E" transform="matrix(1.00, 0.00, -0.00, -1.00, 38.9, 116.0)">e</text><text xml:space="preserve" font-family="Helvetica-Bold" font-weight="bold" font-size="22.0" fill="#5E5E5E" transform="matrix(1.00, 0.00, -0.00, -1.00, 51.1, 116.0)"> </text><text xml:space="preserve" font-family="Helvetica-Bold" font-weight="bold" font-size="22.0" fill="#5E5E5E" transform="matrix(1.00, 0.00, -0.00, -1.00, 57.2, 116.0)">A</text><text xml:space="preserve" font-family="Helvetica-Bold" font-weight="bold" font-size="22.0" fill="#5E5E5E" transform="matrix(1.00, 0.00, -0.00, -1.00, 73.1, 116.0)">m</text><text xml:space="preserve" font-family="Helvetica-Bold" font-weight="bold" font-size="22.0" fill="#5E5E5E" transform="matrix(1.00, 0.00, -0.00, -1.00, 92.7, 116.0)">e</text><text xml:space="preserve" font-family="Helvetica-Bold" font-weight="bold" font-size="22.0" fill="#5E5E5E" transform="matrix(1.00, 0.00, -0.00, -1.00, 104.9, 116.0)">r</text><text xml:space="preserve" font-family="Helvetica-Bold" font-weight="bold" font-size="22.0" fill="#5E5E5E" transform="matrix(1.00, 0.00, -0.00, -1.00, 113.5, 116.0)">i</text><text xml:space="preserve" font-family="Helvetica-Bold" font-weight="bold" font-size="22.0" fill="#5E5E5E" transform="matrix(1.00, 0.00, -0.00, -1.00, 119.6, 116.0)">c</text><text xml:space="preserve" font-family="Helvetica-Bold" font-weight="bold" font-size="22.0" fill="#5E5E5E" transform="matrix(1.00, 0.00, -0.00, -1.00, 131.8, 116.0)">a</text><text xml:space="preserve" font-family="Helvetica-Bold" font-weight="bold" font-size="22.0" fill="#5E5E5E" transform="matrix(1.00, 0.00, -0.00, -1.00, 144.1, 116.0)">n</text><text xml:space="preserve" font-family="Helvetica-Bold" font-weight="bold" font-size="22.0" fill="#5E5E5E" transform="matrix(1.00, 0.00, -0.00, -1.00, 157.5, 116.0)"> </text><text xml:space="preserve" font-family="Helvetica-Bold" font-weight="bold" font-size="22.0" fill="#5E5E5E" transform="matrix(1.00, 0.00, -0.00, -1.00, 163.6, 116.0)">C</text><text xml:space="preserve" font-family="Helvetica-Bold" font-weight="bold" font-size="22.0" fill="#5E5E5E" transform="matrix(1.00, 0.00, -0.00, -1.00, 179.5, 116.0)">a</text><text xml:space="preserve" font-family="Helvetica-Bold" font-weight="bold" font-size="22.0" fill="#5E5E5E" transform="matrix(1.00, 0.00, -0.00, -1.00, 191.7, 116.0)">n</text><text xml:space="preserve" font-family="Helvetica-Bold" font-weight="bold" font-size="22.0" fill="#5E5E5E" transform="matrix(1.00, 0.00, -0.00, -1.00, 205.2, 116.0)">c</text><text xml:space="preserve" font-family="Helvetica-Bold" font-weight="bold" font-size="22.0" fill="#5E5E5E" transform="matrix(1.00, 0.00, -0.00, -1.00, 217.4, 116.0)">e</text><text xml:space="preserve" font-family="Helvetica-Bold" font-weight="bold" font-size="22.0" fill="#5E5E5E" transform="matrix(1.00, 0.00, -0.00, -1.00, 229.7, 116.0)">r</text><text xml:space="preserve" font-family="Helvetica-Bold" font-weight="bold" font-size="22.0" fill="#5E5E5E" transform="matrix(1.00, 0.00, -0.00, -1.00, 238.2, 116.0)"> </text><text xml:space="preserve" font-family="Helvetica-Bold" font-weight="bold" font-size="22.0" fill="#5E5E5E" transform="matrix(1.00, 0.00, -0.00, -1.00, 244.3, 116.0)">S</text><text xml:space="preserve" font-family="Helvetica-Bold" font-weight="bold" font-size="22.0" fill="#5E5E5E" transform="matrix(1.00, 0.00, -0.00, -1.00, 259.0, 116.0)">o</text><text xml:space="preserve" font-family="Helvetica-Bold" font-weight="bold" font-size="22.0" fill="#5E5E5E" transform="matrix(1.00, 0.00, -0.00, -1.00, 272.4, 116.0)">c</text><text xml:space="preserve" font-family="Helvetica-Bold" font-weight="bold" font-size="22.0" fill="#5E5E5E" transform="matrix(1.00, 0.00, -0.00, -1.00, 284.7, 116.0)">i</text><text xml:space="preserve" font-family="Helvetica-Bold" font-weight="bold" font-size="22.0" fill="#5E5E5E" transform="matrix(1.00, 0.00, -0.00, -1.00, 290.8, 116.0)">e</text><text xml:space="preserve" font-family="Helvetica-Bold" font-weight="bold" font-size="22.0" fill="#5E5E5E" transform="matrix(1.00, 0.00, -0.00, -1.00, 303.0, 116.0)">t</text><text xml:space="preserve" font-family="Helvetica-Bold" font-weight="bold" font-size="22.0" fill="#5E5E5E" transform="matrix(1.00, 0.00, -0.00, -1.00, 310.3, 116.0)">y</text><text xml:space="preserve" font-family="Helvetica-Bold" font-weight="bold" font-size="22.0" fill="#5E5E5E" transform="matrix(1.00, 0.00, -0.00, -1.00, 322.6, 116.0)"> </text><text xml:space="preserve" font-family="Helvetica-Bold" font-weight="bold" font-size="22.0" fill="#5E5E5E" transform="matrix(1.00, 0.00, -0.00, -1.00, 328.7, 116.0)">r</text><text xml:space="preserve" font-family="Helvetica-Bold" font-weight="bold" font-size="22.0" fill="#5E5E5E" transform="matrix(1.00, 0.00, -0.00, -1.00, 337.3, 116.0)">e</text><text xml:space="preserve" font-family="Helvetica-Bold" font-weight="bold" font-size="22.0" fill="#5E5E5E" transform="matrix(1.00, 0.00, -0.00, -1.00, 349.5, 116.0)">l</text><text xml:space="preserve" font-family="Helvetica-Bold" font-weight="bold" font-size="22.0" fill="#5E5E5E" transform="matrix(1.00, 0.00, -0.00, -1.00, 355.6, 116.0)">e</text><text xml:space="preserve" font-family="Helvetica-Bold" font-weight="bold" font-size="22.0" fill="#5E5E5E" transform="matrix(1.00, 0.00, -0.00, -1.00, 367.9, 116.0)">a</text><text xml:space="preserve" font-family="Helvetica-Bold" font-weight="bold" font-size="22.0" fill="#5E5E5E" transform="matrix(1.00, 0.00, -0.00, -1.00, 380.1, 116.0)">s</text><text xml:space="preserve" font-family="Helvetica-Bold" font-weight="bold" font-size="22.0" fill="#5E5E5E" transform="matrix(1.00, 0.00, -0.00, -1.00, 392.3, 116.0)">e</text><text xml:space="preserve" font-family="Helvetica-Bold" font-weight="bold" font-size="22.0" fill="#5E5E5E" transform="matrix(1.00, 0.00, -0.00, -1.00, 404.6, 116.0)">s</text><text xml:space="preserve" font-family="Helvetica-Bold" font-weight="bold" font-size="22.0" fill="#5E5E5E" transform="matrix(1.00, 0.00, -0.00, -1.00, 416.8, 116.0)"> </text><text xml:space="preserve" font-family="Helvetica-Bold" font-weight="bold" font-size="22.0" fill="#5E5E5E" transform="matrix(1.00, 0.00, -0.00, -1.00, 12.0, 82.0)">g</text><text xml:space="preserve" font-family="Helvetica-Bold" font-weight="bold" font-size="22.0" fill="#5E5E5E" transform="matrix(1.00, 0.00, -0.00, -1.00, 25.4, 82.0)">u</text><text xml:space="preserve" font-family="Helvetica-Bold" font-weight="bold" font-size="22.0" fill="#5E5E5E" transform="matrix(1.00, 0.00, -0.00, -1.00, 38.9, 82.0)">i</text><text xml:space="preserve" font-family="Helvetica-Bold" font-weight="bold" font-size="22.0" fill="#5E5E5E" transform="matrix(1.00, 0.00, -0.00, -1.00, 45.0, 82.0)">d</text><text xml:space="preserve" font-family="Helvetica-Bold" font-weight="bold" font-size="22.0" fill="#5E5E5E" transform="matrix(1.00, 0.00, -0.00, -1.00, 58.4, 82.0)">e</text><text xml:space="preserve" font-family="Helvetica-Bold" font-weight="bold" font-size="22.0" fill="#5E5E5E" transform="matrix(1.00, 0.00, -0.00, -1.00, 70.6, 82.0)">l</text><text xml:space="preserve" font-family="Helvetica-Bold" font-weight="bold" font-size="22.0" fill="#5E5E5E" transform="matrix(1.00, 0.00, -0.00, -1.00, 76.8, 82.0)">i</text><text xml:space="preserve" font-family="Helvetica-Bold" font-weight="bold" font-size="22.0" fill="#5E5E5E" transform="matrix(1.00, 0.00, -0.00, -1.00, 82.9, 82.0)">n</text><text xml:space="preserve" font-family="Helvetica-Bold" font-weight="bold" font-size="22.0" fill="#5E5E5E" transform="matrix(1.00, 0.00, -0.00, -1.00, 96.3, 82.0)">e</text><text xml:space="preserve" font-family="Helvetica-Bold" font-weight="bold" font-size="22.0" fill="#5E5E5E" transform="matrix(1.00, 0.00, -0.00, -1.00, 108.5, 82.0)">s</text><text xml:space="preserve" font-family="Helvetica-Bold" font-weight="bold" font-size="22.0" fill="#5E5E5E" transform="matrix(1.00, 0.00, -0.00, -1.00, 120.8, 82.0)"> </text><text xml:space="preserve" font-family="Helvetica-Bold" font-weight="bold" font-size="22.0" fill="#5E5E5E" transform="matrix(1.00, 0.00, -0.00, -1.00, 126.9, 82.0)">r</text><text xml:space="preserve" font-family="Helvetica-Bold" font-weight="bold" font-size="22.0" fill="#5E5E5E" transform="matrix(1.00, 0.00, -0.00, -1.00, 135.5, 82.0)">e</text><text xml:space="preserve" font-family="Helvetica-Bold" font-weight="bold" font-size="22.0" fill="#5E5E5E" transform="matrix(1.00, 0.00, -0.00, -1.00, 147.7, 82.0)">c</text><text xml:space="preserve" font-family="Helvetica-Bold" font-weight="bold" font-size="22.0" fill="#5E5E5E" transform="matrix(1.00, 0.00, -0.00, -1.00, 159.9, 82.0)">o</text><text xml:space="preserve" font-family="Helvetica-Bold" font-weight="bold" font-size="22.0" fill="#5E5E5E" transform="matrix(1.00, 0.00, -0.00, -1.00, 173.4, 82.0)">m</text><text xml:space="preserve" font-family="Helvetica-Bold" font-weight="bold" font-size="22.0" fill="#5E5E5E" transform="matrix(1.00, 0.00, -0.00, -1.00, 192.9, 82.0)">m</text><text xml:space="preserve" font-family="Helvetica-Bold" font-weight="bold" font-size="22.0" fill="#5E5E5E" transform="matrix(1.00, 0.00, -0.00, -1.00, 212.5, 82.0)">e</text><text xml:space="preserve" font-family="Helvetica-Bold" font-weight="bold" font-size="22.0" fill="#5E5E5E" transform="matrix(1.00, 0.00, -0.00, -1.00, 224.7, 82.0)">n</text><text xml:space="preserve" font-family="Helvetica-Bold" font-weight="bold" font-size="22.0" fill="#5E5E5E" transform="matrix(1.00, 0.00, -0.00, -1.00, 238.2, 82.0)">d</text><text xml:space="preserve" font-family="Helvetica-Bold" font-weight="bold" font-size="22.0" fill="#5E5E5E" transform="matrix(1.00, 0.00, -0.00, -1.00, 251.6, 82.0)">i</text><text xml:space="preserve" font-family="Helvetica-Bold" font-weight="bold" font-size="22.0" fill="#5E5E5E" transform="matrix(1.00, 0.00, -0.00, -1.00, 257.7, 82.0)">n</text><text xml:space="preserve" font-family="Helvetica-Bold" font-weight="bold" font-size="22.0" fill="#5E5E5E" transform="matrix(1.00, 0.00, -0.00, -1.00, 271.1, 82.0)">g</text><text xml:space="preserve" font-family="Helvetica-Bold" font-weight="bold" font-size="22.0" fill="#5E5E5E" transform="matrix(1.00, 0.00, -0.00, -1.00, 284.6, 82.0)"> </text><text xml:space="preserve" font-family="Helvetica-Bold" font-weight="bold" font-size="22.0" fill="#5E5E5E" transform="matrix(1.00, 0.00, -0.00, -1.00, 290.7, 82.0)">r</text><text xml:space="preserve" font-family="Helvetica-Bold" font-weight="bold" font-size="22.0" fill="#5E5E5E" transform="matrix(1.00, 0.00, -0.00, -1.00, 299.3, 82.0)">o</text><text xml:space="preserve" font-family="Helvetica-Bold" font-weight="bold" font-size="22.0" fill="#5E5E5E" transform="matrix(1.00, 0.00, -0.00, -1.00, 312.7, 82.0)">u</text><text xml:space="preserve" font-family="Helvetica-Bold" font-weight="bold" font-size="22.0" fill="#5E5E5E" transform="matrix(1.00, 0.00, -0.00, -1.00, 326.1, 82.0)">t</text><text xml:space="preserve" font-family="Helvetica-Bold" font-weight="bold" font-size="22.0" fill="#5E5E5E" transform="matrix(1.00, 0.00, -0.00, -1.00, 333.5, 82.0)">i</text><text xml:space="preserve" font-family="Helvetica-Bold" font-weight="bold" font-size="22.0" fill="#5E5E5E" transform="matrix(1.00, 0.00, -0.00, -1.00, 339.6, 82.0)">n</text><text xml:space="preserve" font-family="Helvetica-Bold" font-weight="bold" font-size="22.0" fill="#5E5E5E" transform="matrix(1.00, 0.00, -0.00, -1.00, 353.0, 82.0)">e</text><text xml:space="preserve" font-family="Helvetica-Bold" font-weight="bold" font-size="22.0" fill="#5E5E5E" transform="matrix(1.00, 0.00, -0.00, -1.00, 365.2, 82.0)"> </text><text xml:space="preserve" font-family="Helvetica-Bold" font-weight="bold" font-size="22.0" fill="#5E5E5E" transform="matrix(1.00, 0.00, -0.00, -1.00, 371.3, 82.0)">M</text><text xml:space="preserve" font-family="Helvetica-Bold" font-weight="bold" font-size="22.0" fill="#5E5E5E" transform="matrix(1.00, 0.00, -0.00, -1.00, 389.7, 82.0)">R</text><text xml:space="preserve" font-family="Helvetica-Bold" font-weight="bold" font-size="22.0" fill="#5E5E5E" transform="matrix(1.00, 0.00, -0.00, -1.00, 405.6, 82.0)">I</text><text xml:space="preserve" font-family="Helvetica-Bold" font-weight="bold" font-size="22.0" fill="#5E5E5E" transform="matrix(1.00, 0.00, -0.00, -1.00, 411.7, 82.0)"> </text><text xml:space="preserve" font-family="Helvetica-Bold" font-weight="bold" font-size="22.0" fill="#5E5E5E" transform="matrix(1.00, 0.00, -0.00, -1.00, 12.0, 48.0)">s</text><text xml:space="preserve" font-family="Helvetica-Bold" font-weight="bold" font-size="22.0" fill="#5E5E5E" transform="matrix(1.00, 0.00, -0.00, -1.00, 24.2, 48.0)">c</text><text xml:space="preserve" font-family="Helvetica-Bold" font-weight="bold" font-size="22.0" fill="#5E5E5E" transform="matrix(1.00, 0.00, -0.00, -1.00, 36.5, 48.0)">r</text><text xml:space="preserve" font-family="Helvetica-Bold" font-weight="bold" font-size="22.0" fill="#5E5E5E" transform="matrix(1.00, 0.00, -0.00, -1.00, 45.0, 48.0)">e</text><text xml:space="preserve" font-family="Helvetica-Bold" font-weight="bold" font-size="22.0" fill="#5E5E5E" transform="matrix(1.00, 0.00, -0.00, -1.00, 57.3, 48.0)">e</text><text xml:space="preserve" font-family="Helvetica-Bold" font-weight="bold" font-size="22.0" fill="#5E5E5E" transform="matrix(1.00, 0.00, -0.00, -1.00, 69.5, 48.0)">n</text><text xml:space="preserve" font-family="Helvetica-Bold" font-weight="bold" font-size="22.0" fill="#5E5E5E" transform="matrix(1.00, 0.00, -0.00, -1.00, 83.0, 48.0)">i</text><text xml:space="preserve" font-family="Helvetica-Bold" font-weight="bold" font-size="22.0" fill="#5E5E5E" transform="matrix(1.00, 0.00, -0.00, -1.00, 89.1, 48.0)">n</text><text xml:space="preserve" font-family="Helvetica-Bold" font-weight="bold" font-size="22.0" fill="#5E5E5E" transform="matrix(1.00, 0.00, -0.00, -1.00, 102.5, 48.0)">g</text><text xml:space="preserve" font-family="Helvetica-Bold" font-weight="bold" font-size="22.0" fill="#5E5E5E" transform="matrix(1.00, 0.00, -0.00, -1.00, 115.9, 48.0)"> </text><text xml:space="preserve" font-family="Helvetica-Bold" font-weight="bold" font-size="22.0" fill="#5E5E5E" transform="matrix(1.00, 0.00, -0.00, -1.00, 122.0, 48.0)">f</text><text xml:space="preserve" font-family="Helvetica-Bold" font-weight="bold" font-size="22.0" fill="#5E5E5E" transform="matrix(1.00, 0.00, -0.00, -1.00, 129.4, 48.0)">o</text><text xml:space="preserve" font-family="Helvetica-Bold" font-weight="bold" font-size="22.0" fill="#5E5E5E" transform="matrix(1.00, 0.00, -0.00, -1.00, 142.8, 48.0)">r</text><text xml:space="preserve" font-family="Helvetica-Bold" font-weight="bold" font-size="22.0" fill="#5E5E5E" transform="matrix(1.00, 0.00, -0.00, -1.00, 151.4, 48.0)"> </text><text xml:space="preserve" font-family="Helvetica-Bold" font-weight="bold" font-size="22.0" fill="#5E5E5E" transform="matrix(1.00, 0.00, -0.00, -1.00, 157.5, 48.0)">w</text><text xml:space="preserve" font-family="Helvetica-Bold" font-weight="bold" font-size="22.0" fill="#5E5E5E" transform="matrix(1.00, 0.00, -0.00, -1.00, 174.6, 48.0)">o</text><text xml:space="preserve" font-family="Helvetica-Bold" font-weight="bold" font-size="22.0" fill="#5E5E5E" transform="matrix(1.00, 0.00, -0.00, -1.00, 188.0, 48.0)">m</text><text xml:space="preserve" font-family="Helvetica-Bold" font-weight="bold" font-size="22.0" fill="#5E5E5E" transform="matrix(1.00, 0.00, -0.00, -1.00, 207.6, 48.0)">e</text><text xml:space="preserve" font-family="Helvetica-Bold" font-weight="bold" font-size="22.0" fill="#5E5E5E" transform="matrix(1.00, 0.00, -0.00, -1.00, 219.8, 48.0)">n</text><text xml:space="preserve" font-family="Helvetica-Bold" font-weight="bold" font-size="22.0" fill="#5E5E5E" transform="matrix(1.00, 0.00, -0.00, -1.00, 233.3, 48.0)"> </text><text xml:space="preserve" font-family="Helvetica-Bold" font-weight="bold" font-size="22.0" fill="#5E5E5E" transform="matrix(1.00, 0.00, -0.00, -1.00, 239.4, 48.0)">a</text><text xml:space="preserve" font-family="Helvetica-Bold" font-weight="bold" font-size="22.0" fill="#5E5E5E" transform="matrix(1.00, 0.00, -0.00, -1.00, 251.6, 48.0)">t</text><text xml:space="preserve" font-family="Helvetica-Bold" font-weight="bold" font-size="22.0" fill="#5E5E5E" transform="matrix(1.00, 0.00, -0.00, -1.00, 258.9, 48.0)"> </text><text xml:space="preserve" font-family="Helvetica-Bold" font-weight="bold" font-size="22.0" fill="#5E5E5E" transform="matrix(1.00, 0.00, -0.00, -1.00, 265.0, 48.0)">i</text><text xml:space="preserve" font-family="Helvetica-Bold" font-weight="bold" font-size="22.0" fill="#5E5E5E" transform="matrix(1.00, 0.00, -0.00, -1.00, 271.1, 48.0)">n</text><text xml:space="preserve" font-family="Helvetica-Bold" font-weight="bold" font-size="22.0" fill="#5E5E5E" transform="matrix(1.00, 0.00, -0.00, -1.00, 284.6, 48.0)">c</text><text xml:space="preserve" font-family="Helvetica-Bold" font-weight="bold" font-size="22.0" fill="#5E5E5E" transform="matrix(1.00, 0.00, -0.00, -1.00, 296.8, 48.0)">r</text><text xml:space="preserve" font-family="Helvetica-Bold" font-weight="bold" font-size="22.0" fill="#5E5E5E" transform="matrix(1.00, 0.00, -0.00, -1.00, 305.4, 48.0)">e</text><text xml:space="preserve" font-family="Helvetica-Bold" font-weight="bold" font-size="22.0" fill="#5E5E5E" transform="matrix(1.00, 0.00, -0.00, -1.00, 317.6, 48.0)">a</text><text xml:space="preserve" font-family="Helvetica-Bold" font-weight="bold" font-size="22.0" fill="#5E5E5E" transform="matrix(1.00, 0.00, -0.00, -1.00, 329.9, 48.0)">s</text><text xml:space="preserve" font-family="Helvetica-Bold" font-weight="bold" font-size="22.0" fill="#5E5E5E" transform="matrix(1.00, 0.00, -0.00, -1.00, 342.1, 48.0)">e</text><text xml:space="preserve" font-family="Helvetica-Bold" font-weight="bold" font-size="22.0" fill="#5E5E5E" transform="matrix(1.00, 0.00, -0.00, -1.00, 354.3, 48.0)">d</text><text xml:space="preserve" font-family="Helvetica-Bold" font-weight="bold" font-size="22.0" fill="#5E5E5E" transform="matrix(1.00, 0.00, -0.00, -1.00, 367.8, 48.0)"> </text><text xml:space="preserve" font-family="Helvetica-Bold" font-weight="bold" font-size="22.0" fill="#5E5E5E" transform="matrix(1.00, 0.00, -0.00, -1.00, 373.9, 48.0)">r</text><text xml:space="preserve" font-family="Helvetica-Bold" font-weight="bold" font-size="22.0" fill="#5E5E5E" transform="matrix(1.00, 0.00, -0.00, -1.00, 382.5, 48.0)">i</text><text xml:space="preserve" font-family="Helvetica-Bold" font-weight="bold" font-size="22.0" fill="#5E5E5E" transform="matrix(1.00, 0.00, -0.00, -1.00, 388.6, 48.0)">s</text><text xml:space="preserve" font-family="Helvetica-Bold" font-weight="bold" font-size="22.0" fill="#5E5E5E" transform="matrix(1.00, 0.00, -0.00, -1.00, 400.8, 48.0)">k</text><text xml:space="preserve" font-family="Helvetica-Bold" font-weight="bold" font-size="22.0" fill="#5E5E5E" transform="matrix(1.00, 0.00, -0.00, -1.00, 413.0, 48.0)"> </text><text xml:space="preserve" font-family="Helvetica-Bold" font-weight="bold" font-size="22.0" fill="#5E5E5E" transform="matrix(1.00, 0.00, -0.00, -1.00, 12.0, 14.0)">o</text><text xml:space="preserve" font-family="Helvetica-Bold" font-weight="bold" font-size="22.0" fill="#5E5E5E" transform="matrix(1.00, 0.00, -0.00, -1.00, 25.4, 14.0)">f</text><text xml:space="preserve" font-family="Helvetica-Bold" font-weight="bold" font-size="22.0" fill="#5E5E5E" transform="matrix(1.00, 0.00, -0.00, -1.00, 32.8, 14.0)"> </text><text xml:space="preserve" font-family="Helvetica-Bold" font-weight="bold" font-size="22.0" fill="#5E5E5E" transform="matrix(1.00, 0.00, -0.00, -1.00, 38.9, 14.0)">d</text><text xml:space="preserve" font-family="Helvetica-Bold" font-weight="bold" font-size="22.0" fill="#5E5E5E" transform="matrix(1.00, 0.00, -0.00, -1.00, 52.3, 14.0)">e</text><text xml:space="preserve" font-family="Helvetica-Bold" font-weight="bold" font-size="22.0" fill="#5E5E5E" transform="matrix(1.00, 0.00, -0.00, -1.00, 64.5, 14.0)">v</text><text xml:space="preserve" font-family="Helvetica-Bold" font-weight="bold" font-size="22.0" fill="#5E5E5E" transform="matrix(1.00, 0.00, -0.00, -1.00, 76.8, 14.0)">e</text><text xml:space="preserve" font-family="Helvetica-Bold" font-weight="bold" font-size="22.0" fill="#5E5E5E" transform="matrix(1.00, 0.00, -0.00, -1.00, 89.0, 14.0)">l</text><text xml:space="preserve" font-family="Helvetica-Bold" font-weight="bold" font-size="22.0" fill="#5E5E5E" transform="matrix(1.00, 0.00, -0.00, -1.00, 95.1, 14.0)">o</text><text xml:space="preserve" font-family="Helvetica-Bold" font-weight="bold" font-size="22.0" fill="#5E5E5E" transform="matrix(1.00, 0.00, -0.00, -1.00, 108.6, 14.0)">p</text><text xml:space="preserve" font-family="Helvetica-Bold" font-weight="bold" font-size="22.0" fill="#5E5E5E" transform="matrix(1.00, 0.00, -0.00, -1.00, 122.0, 14.0)">i</text><text xml:space="preserve" font-family="Helvetica-Bold" font-weight="bold" font-size="22.0" fill="#5E5E5E" transform="matrix(1.00, 0.00, -0.00, -1.00, 128.1, 14.0)">n</text><text xml:space="preserve" font-family="Helvetica-Bold" font-weight="bold" font-size="22.0" fill="#5E5E5E" transform="matrix(1.00, 0.00, -0.00, -1.00, 141.5, 14.0)">g</text><text xml:space="preserve" font-family="Helvetica-Bold" font-weight="bold" font-size="22.0" fill="#5E5E5E" transform="matrix(1.00, 0.00, -0.00, -1.00, 155.0, 14.0)"> </text><text xml:space="preserve" font-family="Helvetica-Bold" font-weight="bold" font-size="22.0" fill="#5E5E5E" transform="matrix(1.00, 0.00, -0.00, -1.00, 161.1, 14.0)">b</text><text xml:space="preserve" font-family="Helvetica-Bold" font-weight="bold" font-size="22.0" fill="#5E5E5E" transform="matrix(1.00, 0.00, -0.00, -1.00, 174.5, 14.0)">r</text><text xml:space="preserve" font-family="Helvetica-Bold" font-weight="bold" font-size="22.0" fill="#5E5E5E" transform="matrix(1.00, 0.00, -0.00, -1.00, 183.1, 14.0)">e</text><text xml:space="preserve" font-family="Helvetica-Bold" font-weight="bold" font-size="22.0" fill="#5E5E5E" transform="matrix(1.00, 0.00, -0.00, -1.00, 195.3, 14.0)">a</text><text xml:space="preserve" font-family="Helvetica-Bold" font-weight="bold" font-size="22.0" fill="#5E5E5E" transform="matrix(1.00, 0.00, -0.00, -1.00, 207.6, 14.0)">s</text><text xml:space="preserve" font-family="Helvetica-Bold" font-weight="bold" font-size="22.0" fill="#5E5E5E" transform="matrix(1.00, 0.00, -0.00, -1.00, 219.8, 14.0)">t</text><text xml:space="preserve" font-family="Helvetica-Bold" font-weight="bold" font-size="22.0" fill="#5E5E5E" transform="matrix(1.00, 0.00, -0.00, -1.00, 227.1, 14.0)"> </text><text xml:space="preserve" font-family="Helvetica-Bold" font-weight="bold" font-size="22.0" fill="#5E5E5E" transform="matrix(1.00, 0.00, -0.00, -1.00, 233.2, 14.0)">c</text><text xml:space="preserve" font-family="Helvetica-Bold" font-weight="bold" font-size="22.0" fill="#5E5E5E" transform="matrix(1.00, 0.00, -0.00, -1.00, 245.5, 14.0)">a</text><text xml:space="preserve" font-family="Helvetica-Bold" font-weight="bold" font-size="22.0" fill="#5E5E5E" transform="matrix(1.00, 0.00, -0.00, -1.00, 257.7, 14.0)">n</text><text xml:space="preserve" font-family="Helvetica-Bold" font-weight="bold" font-size="22.0" fill="#5E5E5E" transform="matrix(1.00, 0.00, -0.00, -1.00, 271.1, 14.0)">c</text><text xml:space="preserve" font-family="Helvetica-Bold" font-weight="bold" font-size="22.0" fill="#5E5E5E" transform="matrix(1.00, 0.00, -0.00, -1.00, 283.4, 14.0)">e</text><text xml:space="preserve" font-family="Helvetica-Bold" font-weight="bold" font-size="22.0" fill="#5E5E5E" transform="matrix(1.00, 0.00, -0.00, -1.00, 295.6, 14.0)">r</text><text xml:space="preserve" font-family="Helvetica-Bold" font-weight="bold" font-size="22.0" fill="#5E5E5E" transform="matrix(1.00, 0.00, -0.00, -1.00, 304.2, 14.0)">.</text></g></g></g></svg>