<?xml version="1.0" encoding="UTF-8" standalone="no"?><svg xmlns="http://www.w3.org/2000/svg" xmlns:xlink="http://www.w3.org/1999/xlink" clip-rule="evenodd" stroke-miterlimit="4.00" viewBox="0 0 366 207"><desc>SVG generated by Keynote</desc><defs></defs><g transform="matrix(1.00, 0.00, -0.00, -1.00, 0.0, 207.0)"><g><clipPath id="clip-535"><path d="M -14.5 68.5 L 238.4 68.5 L 238.4 221.5 L -14.5 221.5 Z M -14.5 68.5 "></path></clipPath><g clip-path="url(#clip-535)"><text xml:space="preserve" font-family="HurmeGeometricSans4-SemiBold" font-weight="bold" font-size="82.0" fill="#DF4685" transform="matrix(1.00, 0.00, -0.00, -1.00, 6.0, 138.0)">1</text><text xml:space="preserve" font-family="HurmeGeometricSans4-SemiBold" font-weight="bold" font-size="82.0" fill="#DF4685" transform="matrix(1.00, 0.00, -0.00, -1.00, 32.7, 138.0)">9</text><text xml:space="preserve" font-family="HurmeGeometricSans4-SemiBold" font-weight="bold" font-size="82.0" fill="#DF4685" transform="matrix(1.00, 0.00, -0.00, -1.00, 78.5, 138.0)">9</text><text xml:space="preserve" font-family="HurmeGeometricSans4-SemiBold" font-weight="bold" font-size="82.0" fill="#DF4685" transform="matrix(1.00, 0.00, -0.00, -1.00, 124.2, 138.0)">0</text><text xml:space="preserve" font-family="HurmeGeometricSans4-SemiBold" font-weight="bold" font-size="82.0" fill="#DF4685" transform="matrix(1.00, 0.00, -0.00, -1.00, 171.1, 138.0)">S</text></g></g><g><clipPath id="clip-536"><path d="M 6.5 -2.3 L 713.2 -2.3 L 713.2 114.3 L 6.5 114.3 Z M 6.5 -2.3 "></path></clipPath><g clip-path="url(#clip-536)"><text xml:space="preserve" font-family="Helvetica-Bold" font-weight="bold" font-size="22.0" fill="#5E5E5E" transform="matrix(1.00, 0.00, -0.00, -1.00, 14.0, 82.0)">D</text><text xml:space="preserve" font-family="Helvetica-Bold" font-weight="bold" font-size="22.0" fill="#5E5E5E" transform="matrix(1.00, 0.00, -0.00, -1.00, 29.9, 82.0)">o</text><text xml:space="preserve" font-family="Helvetica-Bold" font-weight="bold" font-size="22.0" fill="#5E5E5E" transform="matrix(1.00, 0.00, -0.00, -1.00, 43.3, 82.0)">c</text><text xml:space="preserve" font-family="Helvetica-Bold" font-weight="bold" font-size="22.0" fill="#5E5E5E" transform="matrix(1.00, 0.00, -0.00, -1.00, 55.6, 82.0)">t</text><text xml:space="preserve" font-family="Helvetica-Bold" font-weight="bold" font-size="22.0" fill="#5E5E5E" transform="matrix(1.00, 0.00, -0.00, -1.00, 62.9, 82.0)">o</text><text xml:space="preserve" font-family="Helvetica-Bold" font-weight="bold" font-size="22.0" fill="#5E5E5E" transform="matrix(1.00, 0.00, -0.00, -1.00, 76.3, 82.0)">r</text><text xml:space="preserve" font-family="Helvetica-Bold" font-weight="bold" font-size="22.0" fill="#5E5E5E" transform="matrix(1.00, 0.00, -0.00, -1.00, 84.9, 82.0)">s</text><text xml:space="preserve" font-family="Helvetica-Bold" font-weight="bold" font-size="22.0" fill="#5E5E5E" transform="matrix(1.00, 0.00, -0.00, -1.00, 97.1, 82.0)"> </text><text xml:space="preserve" font-family="Helvetica-Bold" font-weight="bold" font-size="22.0" fill="#5E5E5E" transform="matrix(1.00, 0.00, -0.00, -1.00, 103.2, 82.0)">a</text><text xml:space="preserve" font-family="Helvetica-Bold" font-weight="bold" font-size="22.0" fill="#5E5E5E" transform="matrix(1.00, 0.00, -0.00, -1.00, 115.5, 82.0)">r</text><text xml:space="preserve" font-family="Helvetica-Bold" font-weight="bold" font-size="22.0" fill="#5E5E5E" transform="matrix(1.00, 0.00, -0.00, -1.00, 124.0, 82.0)">e</text><text xml:space="preserve" font-family="Helvetica-Bold" font-weight="bold" font-size="22.0" fill="#5E5E5E" transform="matrix(1.00, 0.00, -0.00, -1.00, 136.3, 82.0)"> </text><text xml:space="preserve" font-family="Helvetica-Bold" font-weight="bold" font-size="22.0" fill="#5E5E5E" transform="matrix(1.00, 0.00, -0.00, -1.00, 142.4, 82.0)">a</text><text xml:space="preserve" font-family="Helvetica-Bold" font-weight="bold" font-size="22.0" fill="#5E5E5E" transform="matrix(1.00, 0.00, -0.00, -1.00, 154.6, 82.0)">b</text><text xml:space="preserve" font-family="Helvetica-Bold" font-weight="bold" font-size="22.0" fill="#5E5E5E" transform="matrix(1.00, 0.00, -0.00, -1.00, 168.1, 82.0)">l</text><text xml:space="preserve" font-family="Helvetica-Bold" font-weight="bold" font-size="22.0" fill="#5E5E5E" transform="matrix(1.00, 0.00, -0.00, -1.00, 174.2, 82.0)">e</text><text xml:space="preserve" font-family="Helvetica-Bold" font-weight="bold" font-size="22.0" fill="#5E5E5E" transform="matrix(1.00, 0.00, -0.00, -1.00, 186.4, 82.0)"> </text><text xml:space="preserve" font-family="Helvetica-Bold" font-weight="bold" font-size="22.0" fill="#5E5E5E" transform="matrix(1.00, 0.00, -0.00, -1.00, 192.5, 82.0)">t</text><text xml:space="preserve" font-family="Helvetica-Bold" font-weight="bold" font-size="22.0" fill="#5E5E5E" transform="matrix(1.00, 0.00, -0.00, -1.00, 199.8, 82.0)">o</text><text xml:space="preserve" font-family="Helvetica-Bold" font-weight="bold" font-size="22.0" fill="#5E5E5E" transform="matrix(1.00, 0.00, -0.00, -1.00, 213.3, 82.0)"> </text><text xml:space="preserve" font-family="Helvetica-Bold" font-weight="bold" font-size="22.0" fill="#5E5E5E" transform="matrix(1.00, 0.00, -0.00, -1.00, 219.4, 82.0)">d</text><text xml:space="preserve" font-family="Helvetica-Bold" font-weight="bold" font-size="22.0" fill="#5E5E5E" transform="matrix(1.00, 0.00, -0.00, -1.00, 232.8, 82.0)">r</text><text xml:space="preserve" font-family="Helvetica-Bold" font-weight="bold" font-size="22.0" fill="#5E5E5E" transform="matrix(1.00, 0.00, -0.00, -1.00, 241.4, 82.0)">a</text><text xml:space="preserve" font-family="Helvetica-Bold" font-weight="bold" font-size="22.0" fill="#5E5E5E" transform="matrix(1.00, 0.00, -0.00, -1.00, 253.6, 82.0)">m</text><text xml:space="preserve" font-family="Helvetica-Bold" font-weight="bold" font-size="22.0" fill="#5E5E5E" transform="matrix(1.00, 0.00, -0.00, -1.00, 273.2, 82.0)">a</text><text xml:space="preserve" font-family="Helvetica-Bold" font-weight="bold" font-size="22.0" fill="#5E5E5E" transform="matrix(1.00, 0.00, -0.00, -1.00, 285.4, 82.0)">t</text><text xml:space="preserve" font-family="Helvetica-Bold" font-weight="bold" font-size="22.0" fill="#5E5E5E" transform="matrix(1.00, 0.00, -0.00, -1.00, 292.8, 82.0)">i</text><text xml:space="preserve" font-family="Helvetica-Bold" font-weight="bold" font-size="22.0" fill="#5E5E5E" transform="matrix(1.00, 0.00, -0.00, -1.00, 298.9, 82.0)">c</text><text xml:space="preserve" font-family="Helvetica-Bold" font-weight="bold" font-size="22.0" fill="#5E5E5E" transform="matrix(1.00, 0.00, -0.00, -1.00, 311.1, 82.0)">a</text><text xml:space="preserve" font-family="Helvetica-Bold" font-weight="bold" font-size="22.0" fill="#5E5E5E" transform="matrix(1.00, 0.00, -0.00, -1.00, 323.3, 82.0)">l</text><text xml:space="preserve" font-family="Helvetica-Bold" font-weight="bold" font-size="22.0" fill="#5E5E5E" transform="matrix(1.00, 0.00, -0.00, -1.00, 329.5, 82.0)">l</text><text xml:space="preserve" font-family="Helvetica-Bold" font-weight="bold" font-size="22.0" fill="#5E5E5E" transform="matrix(1.00, 0.00, -0.00, -1.00, 335.6, 82.0)">y</text><text xml:space="preserve" font-family="Helvetica-Bold" font-weight="bold" font-size="22.0" fill="#5E5E5E" transform="matrix(1.00, 0.00, -0.00, -1.00, 347.8, 82.0)"> </text><text xml:space="preserve" font-family="Helvetica-Bold" font-weight="bold" font-size="22.0" fill="#5E5E5E" transform="matrix(1.00, 0.00, -0.00, -1.00, 353.9, 82.0)"> </text><text xml:space="preserve" font-family="Helvetica-Bold" font-weight="bold" font-size="22.0" fill="#5E5E5E" transform="matrix(1.00, 0.00, -0.00, -1.00, 14.0, 48.0)">i</text><text xml:space="preserve" font-family="Helvetica-Bold" font-weight="bold" font-size="22.0" fill="#5E5E5E" transform="matrix(1.00, 0.00, -0.00, -1.00, 20.1, 48.0)">m</text><text xml:space="preserve" font-family="Helvetica-Bold" font-weight="bold" font-size="22.0" fill="#5E5E5E" transform="matrix(1.00, 0.00, -0.00, -1.00, 39.7, 48.0)">p</text><text xml:space="preserve" font-family="Helvetica-Bold" font-weight="bold" font-size="22.0" fill="#5E5E5E" transform="matrix(1.00, 0.00, -0.00, -1.00, 53.1, 48.0)">r</text><text xml:space="preserve" font-family="Helvetica-Bold" font-weight="bold" font-size="22.0" fill="#5E5E5E" transform="matrix(1.00, 0.00, -0.00, -1.00, 61.7, 48.0)">o</text><text xml:space="preserve" font-family="Helvetica-Bold" font-weight="bold" font-size="22.0" fill="#5E5E5E" transform="matrix(1.00, 0.00, -0.00, -1.00, 75.1, 48.0)">v</text><text xml:space="preserve" font-family="Helvetica-Bold" font-weight="bold" font-size="22.0" fill="#5E5E5E" transform="matrix(1.00, 0.00, -0.00, -1.00, 87.3, 48.0)">e</text><text xml:space="preserve" font-family="Helvetica-Bold" font-weight="bold" font-size="22.0" fill="#5E5E5E" transform="matrix(1.00, 0.00, -0.00, -1.00, 99.6, 48.0)"> </text><text xml:space="preserve" font-family="Helvetica-Bold" font-weight="bold" font-size="22.0" fill="#5E5E5E" transform="matrix(1.00, 0.00, -0.00, -1.00, 105.7, 48.0)">r</text><text xml:space="preserve" font-family="Helvetica-Bold" font-weight="bold" font-size="22.0" fill="#5E5E5E" transform="matrix(1.00, 0.00, -0.00, -1.00, 114.3, 48.0)">a</text><text xml:space="preserve" font-family="Helvetica-Bold" font-weight="bold" font-size="22.0" fill="#5E5E5E" transform="matrix(1.00, 0.00, -0.00, -1.00, 126.5, 48.0)">d</text><text xml:space="preserve" font-family="Helvetica-Bold" font-weight="bold" font-size="22.0" fill="#5E5E5E" transform="matrix(1.00, 0.00, -0.00, -1.00, 139.9, 48.0)">i</text><text xml:space="preserve" font-family="Helvetica-Bold" font-weight="bold" font-size="22.0" fill="#5E5E5E" transform="matrix(1.00, 0.00, -0.00, -1.00, 146.0, 48.0)">a</text><text xml:space="preserve" font-family="Helvetica-Bold" font-weight="bold" font-size="22.0" fill="#5E5E5E" transform="matrix(1.00, 0.00, -0.00, -1.00, 158.3, 48.0)">t</text><text xml:space="preserve" font-family="Helvetica-Bold" font-weight="bold" font-size="22.0" fill="#5E5E5E" transform="matrix(1.00, 0.00, -0.00, -1.00, 165.6, 48.0)">i</text><text xml:space="preserve" font-family="Helvetica-Bold" font-weight="bold" font-size="22.0" fill="#5E5E5E" transform="matrix(1.00, 0.00, -0.00, -1.00, 171.7, 48.0)">o</text><text xml:space="preserve" font-family="Helvetica-Bold" font-weight="bold" font-size="22.0" fill="#5E5E5E" transform="matrix(1.00, 0.00, -0.00, -1.00, 185.2, 48.0)">n</text><text xml:space="preserve" font-family="Helvetica-Bold" font-weight="bold" font-size="22.0" fill="#5E5E5E" transform="matrix(1.00, 0.00, -0.00, -1.00, 198.6, 48.0)"> </text><text xml:space="preserve" font-family="Helvetica-Bold" font-weight="bold" font-size="22.0" fill="#5E5E5E" transform="matrix(1.00, 0.00, -0.00, -1.00, 204.7, 48.0)">t</text><text xml:space="preserve" font-family="Helvetica-Bold" font-weight="bold" font-size="22.0" fill="#5E5E5E" transform="matrix(1.00, 0.00, -0.00, -1.00, 212.0, 48.0)">h</text><text xml:space="preserve" font-family="Helvetica-Bold" font-weight="bold" font-size="22.0" fill="#5E5E5E" transform="matrix(1.00, 0.00, -0.00, -1.00, 225.5, 48.0)">e</text><text xml:space="preserve" font-family="Helvetica-Bold" font-weight="bold" font-size="22.0" fill="#5E5E5E" transform="matrix(1.00, 0.00, -0.00, -1.00, 237.7, 48.0)">r</text><text xml:space="preserve" font-family="Helvetica-Bold" font-weight="bold" font-size="22.0" fill="#5E5E5E" transform="matrix(1.00, 0.00, -0.00, -1.00, 246.3, 48.0)">a</text><text xml:space="preserve" font-family="Helvetica-Bold" font-weight="bold" font-size="22.0" fill="#5E5E5E" transform="matrix(1.00, 0.00, -0.00, -1.00, 258.5, 48.0)">p</text><text xml:space="preserve" font-family="Helvetica-Bold" font-weight="bold" font-size="22.0" fill="#5E5E5E" transform="matrix(1.00, 0.00, -0.00, -1.00, 271.9, 48.0)">y</text><text xml:space="preserve" font-family="Helvetica-Bold" font-weight="bold" font-size="22.0" fill="#5E5E5E" transform="matrix(1.00, 0.00, -0.00, -1.00, 284.2, 48.0)"> </text><text xml:space="preserve" font-family="Helvetica-Bold" font-weight="bold" font-size="22.0" fill="#5E5E5E" transform="matrix(1.00, 0.00, -0.00, -1.00, 290.3, 48.0)">b</text><text xml:space="preserve" font-family="Helvetica-Bold" font-weight="bold" font-size="22.0" fill="#5E5E5E" transform="matrix(1.00, 0.00, -0.00, -1.00, 303.7, 48.0)">y</text><text xml:space="preserve" font-family="Helvetica-Bold" font-weight="bold" font-size="22.0" fill="#5E5E5E" transform="matrix(1.00, 0.00, -0.00, -1.00, 316.0, 48.0)"> </text><text xml:space="preserve" font-family="Helvetica-Bold" font-weight="bold" font-size="22.0" fill="#5E5E5E" transform="matrix(1.00, 0.00, -0.00, -1.00, 322.1, 48.0)"> </text><text xml:space="preserve" font-family="Helvetica-Bold" font-weight="bold" font-size="22.0" fill="#5E5E5E" transform="matrix(1.00, 0.00, -0.00, -1.00, 14.0, 14.0)">c</text><text xml:space="preserve" font-family="Helvetica-Bold" font-weight="bold" font-size="22.0" fill="#5E5E5E" transform="matrix(1.00, 0.00, -0.00, -1.00, 26.2, 14.0)">r</text><text xml:space="preserve" font-family="Helvetica-Bold" font-weight="bold" font-size="22.0" fill="#5E5E5E" transform="matrix(1.00, 0.00, -0.00, -1.00, 34.8, 14.0)">e</text><text xml:space="preserve" font-family="Helvetica-Bold" font-weight="bold" font-size="22.0" fill="#5E5E5E" transform="matrix(1.00, 0.00, -0.00, -1.00, 47.0, 14.0)">a</text><text xml:space="preserve" font-family="Helvetica-Bold" font-weight="bold" font-size="22.0" fill="#5E5E5E" transform="matrix(1.00, 0.00, -0.00, -1.00, 59.3, 14.0)">t</text><text xml:space="preserve" font-family="Helvetica-Bold" font-weight="bold" font-size="22.0" fill="#5E5E5E" transform="matrix(1.00, 0.00, -0.00, -1.00, 66.6, 14.0)">i</text><text xml:space="preserve" font-family="Helvetica-Bold" font-weight="bold" font-size="22.0" fill="#5E5E5E" transform="matrix(1.00, 0.00, -0.00, -1.00, 72.7, 14.0)">n</text><text xml:space="preserve" font-family="Helvetica-Bold" font-weight="bold" font-size="22.0" fill="#5E5E5E" transform="matrix(1.00, 0.00, -0.00, -1.00, 86.2, 14.0)">g</text><text xml:space="preserve" font-family="Helvetica-Bold" font-weight="bold" font-size="22.0" fill="#5E5E5E" transform="matrix(1.00, 0.00, -0.00, -1.00, 99.6, 14.0)"> </text><text xml:space="preserve" font-family="Helvetica-Bold" font-weight="bold" font-size="22.0" fill="#5E5E5E" transform="matrix(1.00, 0.00, -0.00, -1.00, 105.7, 14.0)">3</text><text xml:space="preserve" font-family="Helvetica-Bold" font-weight="bold" font-size="22.0" fill="#5E5E5E" transform="matrix(1.00, 0.00, -0.00, -1.00, 117.9, 14.0)">-</text><text xml:space="preserve" font-family="Helvetica-Bold" font-weight="bold" font-size="22.0" fill="#5E5E5E" transform="matrix(1.00, 0.00, -0.00, -1.00, 125.3, 14.0)">D</text><text xml:space="preserve" font-family="Helvetica-Bold" font-weight="bold" font-size="22.0" fill="#5E5E5E" transform="matrix(1.00, 0.00, -0.00, -1.00, 141.2, 14.0)"> </text><text xml:space="preserve" font-family="Helvetica-Bold" font-weight="bold" font-size="22.0" fill="#5E5E5E" transform="matrix(1.00, 0.00, -0.00, -1.00, 147.3, 14.0)">t</text><text xml:space="preserve" font-family="Helvetica-Bold" font-weight="bold" font-size="22.0" fill="#5E5E5E" transform="matrix(1.00, 0.00, -0.00, -1.00, 154.6, 14.0)">r</text><text xml:space="preserve" font-family="Helvetica-Bold" font-weight="bold" font-size="22.0" fill="#5E5E5E" transform="matrix(1.00, 0.00, -0.00, -1.00, 163.2, 14.0)">e</text><text xml:space="preserve" font-family="Helvetica-Bold" font-weight="bold" font-size="22.0" fill="#5E5E5E" transform="matrix(1.00, 0.00, -0.00, -1.00, 175.4, 14.0)">a</text><text xml:space="preserve" font-family="Helvetica-Bold" font-weight="bold" font-size="22.0" fill="#5E5E5E" transform="matrix(1.00, 0.00, -0.00, -1.00, 187.6, 14.0)">t</text><text xml:space="preserve" font-family="Helvetica-Bold" font-weight="bold" font-size="22.0" fill="#5E5E5E" transform="matrix(1.00, 0.00, -0.00, -1.00, 195.0, 14.0)">m</text><text xml:space="preserve" font-family="Helvetica-Bold" font-weight="bold" font-size="22.0" fill="#5E5E5E" transform="matrix(1.00, 0.00, -0.00, -1.00, 214.5, 14.0)">e</text><text xml:space="preserve" font-family="Helvetica-Bold" font-weight="bold" font-size="22.0" fill="#5E5E5E" transform="matrix(1.00, 0.00, -0.00, -1.00, 226.8, 14.0)">n</text><text xml:space="preserve" font-family="Helvetica-Bold" font-weight="bold" font-size="22.0" fill="#5E5E5E" transform="matrix(1.00, 0.00, -0.00, -1.00, 240.2, 14.0)">t</text><text xml:space="preserve" font-family="Helvetica-Bold" font-weight="bold" font-size="22.0" fill="#5E5E5E" transform="matrix(1.00, 0.00, -0.00, -1.00, 247.5, 14.0)"> </text><text xml:space="preserve" font-family="Helvetica-Bold" font-weight="bold" font-size="22.0" fill="#5E5E5E" transform="matrix(1.00, 0.00, -0.00, -1.00, 253.6, 14.0)">p</text><text xml:space="preserve" font-family="Helvetica-Bold" font-weight="bold" font-size="22.0" fill="#5E5E5E" transform="matrix(1.00, 0.00, -0.00, -1.00, 267.1, 14.0)">l</text><text xml:space="preserve" font-family="Helvetica-Bold" font-weight="bold" font-size="22.0" fill="#5E5E5E" transform="matrix(1.00, 0.00, -0.00, -1.00, 273.2, 14.0)">a</text><text xml:space="preserve" font-family="Helvetica-Bold" font-weight="bold" font-size="22.0" fill="#5E5E5E" transform="matrix(1.00, 0.00, -0.00, -1.00, 285.4, 14.0)">n</text><text xml:space="preserve" font-family="Helvetica-Bold" font-weight="bold" font-size="22.0" fill="#5E5E5E" transform="matrix(1.00, 0.00, -0.00, -1.00, 298.8, 14.0)">s</text><text xml:space="preserve" font-family="Helvetica-Bold" font-weight="bold" font-size="22.0" fill="#5E5E5E" transform="matrix(1.00, 0.00, -0.00, -1.00, 311.1, 14.0)">.</text></g></g></g></svg>