<?xml version="1.0" encoding="UTF-8" standalone="no"?><svg xmlns="http://www.w3.org/2000/svg" xmlns:xlink="http://www.w3.org/1999/xlink" clip-rule="evenodd" stroke-miterlimit="4.00" viewBox="0 0 431 238"><desc>SVG generated by Keynote</desc><defs></defs><g transform="matrix(1.00, 0.00, -0.00, -1.00, 0.0, 238.0)"><g><clipPath id="clip-529"><path d="M -15.0 100.2 L 191.8 100.2 L 191.8 253.2 L -15.0 253.2 Z M -15.0 100.2 "></path></clipPath><g clip-path="url(#clip-529)"><text xml:space="preserve" font-family="HurmeGeometricSans4-SemiBold" font-weight="bold" font-size="82.0" fill="#E48A6B" transform="matrix(1.00, 0.00, -0.00, -1.00, 5.0, 170.0)">1</text><text xml:space="preserve" font-family="HurmeGeometricSans4-SemiBold" font-weight="bold" font-size="82.0" fill="#E48A6B" transform="matrix(1.00, 0.00, -0.00, -1.00, 31.7, 170.0)">9</text><text xml:space="preserve" font-family="HurmeGeometricSans4-SemiBold" font-weight="bold" font-size="82.0" fill="#E48A6B" transform="matrix(1.00, 0.00, -0.00, -1.00, 77.5, 170.0)">0</text><text xml:space="preserve" font-family="HurmeGeometricSans4-SemiBold" font-weight="bold" font-size="82.0" fill="#E48A6B" transform="matrix(1.00, 0.00, -0.00, -1.00, 124.4, 170.0)">3</text></g></g><g><clipPath id="clip-530"><path d="M -2.1 -2.3 L 852.1 -2.3 L 852.1 148.3 L -2.1 148.3 Z M -2.1 -2.3 "></path></clipPath><g clip-path="url(#clip-530)"><text xml:space="preserve" font-family="Helvetica-Bold" font-weight="bold" font-size="22.0" fill="#5E5E5E" transform="matrix(1.00, 0.00, -0.00, -1.00, 5.0, 116.0)">F</text><text xml:space="preserve" font-family="Helvetica-Bold" font-weight="bold" font-size="22.0" fill="#5E5E5E" transform="matrix(1.00, 0.00, -0.00, -1.00, 18.4, 116.0)">i</text><text xml:space="preserve" font-family="Helvetica-Bold" font-weight="bold" font-size="22.0" fill="#5E5E5E" transform="matrix(1.00, 0.00, -0.00, -1.00, 24.5, 116.0)">v</text><text xml:space="preserve" font-family="Helvetica-Bold" font-weight="bold" font-size="22.0" fill="#5E5E5E" transform="matrix(1.00, 0.00, -0.00, -1.00, 36.8, 116.0)">e</text><text xml:space="preserve" font-family="Helvetica-Bold" font-weight="bold" font-size="22.0" fill="#5E5E5E" transform="matrix(1.00, 0.00, -0.00, -1.00, 49.0, 116.0)"> </text><text xml:space="preserve" font-family="Helvetica-Bold" font-weight="bold" font-size="22.0" fill="#5E5E5E" transform="matrix(1.00, 0.00, -0.00, -1.00, 55.1, 116.0)">y</text><text xml:space="preserve" font-family="Helvetica-Bold" font-weight="bold" font-size="22.0" fill="#5E5E5E" transform="matrix(1.00, 0.00, -0.00, -1.00, 67.4, 116.0)">e</text><text xml:space="preserve" font-family="Helvetica-Bold" font-weight="bold" font-size="22.0" fill="#5E5E5E" transform="matrix(1.00, 0.00, -0.00, -1.00, 79.6, 116.0)">a</text><text xml:space="preserve" font-family="Helvetica-Bold" font-weight="bold" font-size="22.0" fill="#5E5E5E" transform="matrix(1.00, 0.00, -0.00, -1.00, 91.8, 116.0)">r</text><text xml:space="preserve" font-family="Helvetica-Bold" font-weight="bold" font-size="22.0" fill="#5E5E5E" transform="matrix(1.00, 0.00, -0.00, -1.00, 100.4, 116.0)">s</text><text xml:space="preserve" font-family="Helvetica-Bold" font-weight="bold" font-size="22.0" fill="#5E5E5E" transform="matrix(1.00, 0.00, -0.00, -1.00, 112.7, 116.0)"> </text><text xml:space="preserve" font-family="Helvetica-Bold" font-weight="bold" font-size="22.0" fill="#5E5E5E" transform="matrix(1.00, 0.00, -0.00, -1.00, 118.8, 116.0)">a</text><text xml:space="preserve" font-family="Helvetica-Bold" font-weight="bold" font-size="22.0" fill="#5E5E5E" transform="matrix(1.00, 0.00, -0.00, -1.00, 131.0, 116.0)">f</text><text xml:space="preserve" font-family="Helvetica-Bold" font-weight="bold" font-size="22.0" fill="#5E5E5E" transform="matrix(1.00, 0.00, -0.00, -1.00, 138.3, 116.0)">t</text><text xml:space="preserve" font-family="Helvetica-Bold" font-weight="bold" font-size="22.0" fill="#5E5E5E" transform="matrix(1.00, 0.00, -0.00, -1.00, 145.7, 116.0)">e</text><text xml:space="preserve" font-family="Helvetica-Bold" font-weight="bold" font-size="22.0" fill="#5E5E5E" transform="matrix(1.00, 0.00, -0.00, -1.00, 157.9, 116.0)">r</text><text xml:space="preserve" font-family="Helvetica-Bold" font-weight="bold" font-size="22.0" fill="#5E5E5E" transform="matrix(1.00, 0.00, -0.00, -1.00, 166.5, 116.0)"> </text><text xml:space="preserve" font-family="Helvetica-Bold" font-weight="bold" font-size="22.0" fill="#5E5E5E" transform="matrix(1.00, 0.00, -0.00, -1.00, 172.6, 116.0)">M</text><text xml:space="preserve" font-family="Helvetica-Bold" font-weight="bold" font-size="22.0" fill="#5E5E5E" transform="matrix(1.00, 0.00, -0.00, -1.00, 190.9, 116.0)">a</text><text xml:space="preserve" font-family="Helvetica-Bold" font-weight="bold" font-size="22.0" fill="#5E5E5E" transform="matrix(1.00, 0.00, -0.00, -1.00, 203.1, 116.0)">r</text><text xml:space="preserve" font-family="Helvetica-Bold" font-weight="bold" font-size="22.0" fill="#5E5E5E" transform="matrix(1.00, 0.00, -0.00, -1.00, 211.7, 116.0)">i</text><text xml:space="preserve" font-family="Helvetica-Bold" font-weight="bold" font-size="22.0" fill="#5E5E5E" transform="matrix(1.00, 0.00, -0.00, -1.00, 217.8, 116.0)">e</text><text xml:space="preserve" font-family="Helvetica-Bold" font-weight="bold" font-size="22.0" fill="#5E5E5E" transform="matrix(1.00, 0.00, -0.00, -1.00, 230.0, 116.0)"> </text><text xml:space="preserve" font-family="Helvetica-Bold" font-weight="bold" font-size="22.0" fill="#5E5E5E" transform="matrix(1.00, 0.00, -0.00, -1.00, 236.2, 116.0)">C</text><text xml:space="preserve" font-family="Helvetica-Bold" font-weight="bold" font-size="22.0" fill="#5E5E5E" transform="matrix(1.00, 0.00, -0.00, -1.00, 252.0, 116.0)">u</text><text xml:space="preserve" font-family="Helvetica-Bold" font-weight="bold" font-size="22.0" fill="#5E5E5E" transform="matrix(1.00, 0.00, -0.00, -1.00, 265.5, 116.0)">r</text><text xml:space="preserve" font-family="Helvetica-Bold" font-weight="bold" font-size="22.0" fill="#5E5E5E" transform="matrix(1.00, 0.00, -0.00, -1.00, 274.0, 116.0)">i</text><text xml:space="preserve" font-family="Helvetica-Bold" font-weight="bold" font-size="22.0" fill="#5E5E5E" transform="matrix(1.00, 0.00, -0.00, -1.00, 280.2, 116.0)">e</text><text xml:space="preserve" font-family="Helvetica-Bold" font-weight="bold" font-size="22.0" fill="#5E5E5E" transform="matrix(1.00, 0.00, -0.00, -1.00, 292.4, 116.0)">'</text><text xml:space="preserve" font-family="Helvetica-Bold" font-weight="bold" font-size="22.0" fill="#5E5E5E" transform="matrix(1.00, 0.00, -0.00, -1.00, 297.6, 116.0)">s</text><text xml:space="preserve" font-family="Helvetica-Bold" font-weight="bold" font-size="22.0" fill="#5E5E5E" transform="matrix(1.00, 0.00, -0.00, -1.00, 309.9, 116.0)"> </text><text xml:space="preserve" font-family="Helvetica-Bold" font-weight="bold" font-size="22.0" fill="#5E5E5E" transform="matrix(1.00, 0.00, -0.00, -1.00, 316.0, 116.0)">d</text><text xml:space="preserve" font-family="Helvetica-Bold" font-weight="bold" font-size="22.0" fill="#5E5E5E" transform="matrix(1.00, 0.00, -0.00, -1.00, 329.4, 116.0)">i</text><text xml:space="preserve" font-family="Helvetica-Bold" font-weight="bold" font-size="22.0" fill="#5E5E5E" transform="matrix(1.00, 0.00, -0.00, -1.00, 335.5, 116.0)">s</text><text xml:space="preserve" font-family="Helvetica-Bold" font-weight="bold" font-size="22.0" fill="#5E5E5E" transform="matrix(1.00, 0.00, -0.00, -1.00, 347.8, 116.0)">c</text><text xml:space="preserve" font-family="Helvetica-Bold" font-weight="bold" font-size="22.0" fill="#5E5E5E" transform="matrix(1.00, 0.00, -0.00, -1.00, 360.0, 116.0)">o</text><text xml:space="preserve" font-family="Helvetica-Bold" font-weight="bold" font-size="22.0" fill="#5E5E5E" transform="matrix(1.00, 0.00, -0.00, -1.00, 373.4, 116.0)">v</text><text xml:space="preserve" font-family="Helvetica-Bold" font-weight="bold" font-size="22.0" fill="#5E5E5E" transform="matrix(1.00, 0.00, -0.00, -1.00, 385.7, 116.0)">e</text><text xml:space="preserve" font-family="Helvetica-Bold" font-weight="bold" font-size="22.0" fill="#5E5E5E" transform="matrix(1.00, 0.00, -0.00, -1.00, 397.9, 116.0)">r</text><text xml:space="preserve" font-family="Helvetica-Bold" font-weight="bold" font-size="22.0" fill="#5E5E5E" transform="matrix(1.00, 0.00, -0.00, -1.00, 406.5, 116.0)">y</text><text xml:space="preserve" font-family="Helvetica-Bold" font-weight="bold" font-size="22.0" fill="#5E5E5E" transform="matrix(1.00, 0.00, -0.00, -1.00, 418.7, 116.0)"> </text><text xml:space="preserve" font-family="Helvetica-Bold" font-weight="bold" font-size="22.0" fill="#5E5E5E" transform="matrix(1.00, 0.00, -0.00, -1.00, 5.0, 82.0)">o</text><text xml:space="preserve" font-family="Helvetica-Bold" font-weight="bold" font-size="22.0" fill="#5E5E5E" transform="matrix(1.00, 0.00, -0.00, -1.00, 18.4, 82.0)">f</text><text xml:space="preserve" font-family="Helvetica-Bold" font-weight="bold" font-size="22.0" fill="#5E5E5E" transform="matrix(1.00, 0.00, -0.00, -1.00, 25.8, 82.0)"> </text><text xml:space="preserve" font-family="Helvetica-Bold" font-weight="bold" font-size="22.0" fill="#5E5E5E" transform="matrix(1.00, 0.00, -0.00, -1.00, 31.9, 82.0)">r</text><text xml:space="preserve" font-family="Helvetica-Bold" font-weight="bold" font-size="22.0" fill="#5E5E5E" transform="matrix(1.00, 0.00, -0.00, -1.00, 40.4, 82.0)">a</text><text xml:space="preserve" font-family="Helvetica-Bold" font-weight="bold" font-size="22.0" fill="#5E5E5E" transform="matrix(1.00, 0.00, -0.00, -1.00, 52.7, 82.0)">d</text><text xml:space="preserve" font-family="Helvetica-Bold" font-weight="bold" font-size="22.0" fill="#5E5E5E" transform="matrix(1.00, 0.00, -0.00, -1.00, 66.1, 82.0)">i</text><text xml:space="preserve" font-family="Helvetica-Bold" font-weight="bold" font-size="22.0" fill="#5E5E5E" transform="matrix(1.00, 0.00, -0.00, -1.00, 72.2, 82.0)">u</text><text xml:space="preserve" font-family="Helvetica-Bold" font-weight="bold" font-size="22.0" fill="#5E5E5E" transform="matrix(1.00, 0.00, -0.00, -1.00, 85.6, 82.0)">m</text><text xml:space="preserve" font-family="Helvetica-Bold" font-weight="bold" font-size="22.0" fill="#5E5E5E" transform="matrix(1.00, 0.00, -0.00, -1.00, 105.2, 82.0)">,</text><text xml:space="preserve" font-family="Helvetica-Bold" font-weight="bold" font-size="22.0" fill="#5E5E5E" transform="matrix(1.00, 0.00, -0.00, -1.00, 111.3, 82.0)"> </text><text xml:space="preserve" font-family="Helvetica-Bold" font-weight="bold" font-size="22.0" fill="#5E5E5E" transform="matrix(1.00, 0.00, -0.00, -1.00, 117.4, 82.0)">d</text><text xml:space="preserve" font-family="Helvetica-Bold" font-weight="bold" font-size="22.0" fill="#5E5E5E" transform="matrix(1.00, 0.00, -0.00, -1.00, 130.9, 82.0)">o</text><text xml:space="preserve" font-family="Helvetica-Bold" font-weight="bold" font-size="22.0" fill="#5E5E5E" transform="matrix(1.00, 0.00, -0.00, -1.00, 144.3, 82.0)">c</text><text xml:space="preserve" font-family="Helvetica-Bold" font-weight="bold" font-size="22.0" fill="#5E5E5E" transform="matrix(1.00, 0.00, -0.00, -1.00, 156.5, 82.0)">t</text><text xml:space="preserve" font-family="Helvetica-Bold" font-weight="bold" font-size="22.0" fill="#5E5E5E" transform="matrix(1.00, 0.00, -0.00, -1.00, 163.9, 82.0)">o</text><text xml:space="preserve" font-family="Helvetica-Bold" font-weight="bold" font-size="22.0" fill="#5E5E5E" transform="matrix(1.00, 0.00, -0.00, -1.00, 177.3, 82.0)">r</text><text xml:space="preserve" font-family="Helvetica-Bold" font-weight="bold" font-size="22.0" fill="#5E5E5E" transform="matrix(1.00, 0.00, -0.00, -1.00, 185.9, 82.0)">s</text><text xml:space="preserve" font-family="Helvetica-Bold" font-weight="bold" font-size="22.0" fill="#5E5E5E" transform="matrix(1.00, 0.00, -0.00, -1.00, 198.1, 82.0)"> </text><text xml:space="preserve" font-family="Helvetica-Bold" font-weight="bold" font-size="22.0" fill="#5E5E5E" transform="matrix(1.00, 0.00, -0.00, -1.00, 204.2, 82.0)">r</text><text xml:space="preserve" font-family="Helvetica-Bold" font-weight="bold" font-size="22.0" fill="#5E5E5E" transform="matrix(1.00, 0.00, -0.00, -1.00, 212.8, 82.0)">e</text><text xml:space="preserve" font-family="Helvetica-Bold" font-weight="bold" font-size="22.0" fill="#5E5E5E" transform="matrix(1.00, 0.00, -0.00, -1.00, 225.0, 82.0)">p</text><text xml:space="preserve" font-family="Helvetica-Bold" font-weight="bold" font-size="22.0" fill="#5E5E5E" transform="matrix(1.00, 0.00, -0.00, -1.00, 238.5, 82.0)">o</text><text xml:space="preserve" font-family="Helvetica-Bold" font-weight="bold" font-size="22.0" fill="#5E5E5E" transform="matrix(1.00, 0.00, -0.00, -1.00, 251.9, 82.0)">r</text><text xml:space="preserve" font-family="Helvetica-Bold" font-weight="bold" font-size="22.0" fill="#5E5E5E" transform="matrix(1.00, 0.00, -0.00, -1.00, 260.5, 82.0)">t</text><text xml:space="preserve" font-family="Helvetica-Bold" font-weight="bold" font-size="22.0" fill="#5E5E5E" transform="matrix(1.00, 0.00, -0.00, -1.00, 267.8, 82.0)"> </text><text xml:space="preserve" font-family="Helvetica-Bold" font-weight="bold" font-size="22.0" fill="#5E5E5E" transform="matrix(1.00, 0.00, -0.00, -1.00, 273.9, 82.0)">t</text><text xml:space="preserve" font-family="Helvetica-Bold" font-weight="bold" font-size="22.0" fill="#5E5E5E" transform="matrix(1.00, 0.00, -0.00, -1.00, 281.2, 82.0)">h</text><text xml:space="preserve" font-family="Helvetica-Bold" font-weight="bold" font-size="22.0" fill="#5E5E5E" transform="matrix(1.00, 0.00, -0.00, -1.00, 294.6, 82.0)">e</text><text xml:space="preserve" font-family="Helvetica-Bold" font-weight="bold" font-size="22.0" fill="#5E5E5E" transform="matrix(1.00, 0.00, -0.00, -1.00, 306.9, 82.0)"> </text><text xml:space="preserve" font-family="Helvetica-Bold" font-weight="bold" font-size="22.0" fill="#5E5E5E" transform="matrix(1.00, 0.00, -0.00, -1.00, 313.0, 82.0)">f</text><text xml:space="preserve" font-family="Helvetica-Bold" font-weight="bold" font-size="22.0" fill="#5E5E5E" transform="matrix(1.00, 0.00, -0.00, -1.00, 320.3, 82.0)">i</text><text xml:space="preserve" font-family="Helvetica-Bold" font-weight="bold" font-size="22.0" fill="#5E5E5E" transform="matrix(1.00, 0.00, -0.00, -1.00, 326.4, 82.0)">r</text><text xml:space="preserve" font-family="Helvetica-Bold" font-weight="bold" font-size="22.0" fill="#5E5E5E" transform="matrix(1.00, 0.00, -0.00, -1.00, 335.0, 82.0)">s</text><text xml:space="preserve" font-family="Helvetica-Bold" font-weight="bold" font-size="22.0" fill="#5E5E5E" transform="matrix(1.00, 0.00, -0.00, -1.00, 347.2, 82.0)">t</text><text xml:space="preserve" font-family="Helvetica-Bold" font-weight="bold" font-size="22.0" fill="#5E5E5E" transform="matrix(1.00, 0.00, -0.00, -1.00, 354.6, 82.0)"> </text><text xml:space="preserve" font-family="Helvetica-Bold" font-weight="bold" font-size="22.0" fill="#5E5E5E" transform="matrix(1.00, 0.00, -0.00, -1.00, 5.0, 48.0)">s</text><text xml:space="preserve" font-family="Helvetica-Bold" font-weight="bold" font-size="22.0" fill="#5E5E5E" transform="matrix(1.00, 0.00, -0.00, -1.00, 17.2, 48.0)">u</text><text xml:space="preserve" font-family="Helvetica-Bold" font-weight="bold" font-size="22.0" fill="#5E5E5E" transform="matrix(1.00, 0.00, -0.00, -1.00, 30.7, 48.0)">c</text><text xml:space="preserve" font-family="Helvetica-Bold" font-weight="bold" font-size="22.0" fill="#5E5E5E" transform="matrix(1.00, 0.00, -0.00, -1.00, 42.9, 48.0)">c</text><text xml:space="preserve" font-family="Helvetica-Bold" font-weight="bold" font-size="22.0" fill="#5E5E5E" transform="matrix(1.00, 0.00, -0.00, -1.00, 55.2, 48.0)">e</text><text xml:space="preserve" font-family="Helvetica-Bold" font-weight="bold" font-size="22.0" fill="#5E5E5E" transform="matrix(1.00, 0.00, -0.00, -1.00, 67.4, 48.0)">s</text><text xml:space="preserve" font-family="Helvetica-Bold" font-weight="bold" font-size="22.0" fill="#5E5E5E" transform="matrix(1.00, 0.00, -0.00, -1.00, 79.6, 48.0)">s</text><text xml:space="preserve" font-family="Helvetica-Bold" font-weight="bold" font-size="22.0" fill="#5E5E5E" transform="matrix(1.00, 0.00, -0.00, -1.00, 91.9, 48.0)">f</text><text xml:space="preserve" font-family="Helvetica-Bold" font-weight="bold" font-size="22.0" fill="#5E5E5E" transform="matrix(1.00, 0.00, -0.00, -1.00, 99.2, 48.0)">u</text><text xml:space="preserve" font-family="Helvetica-Bold" font-weight="bold" font-size="22.0" fill="#5E5E5E" transform="matrix(1.00, 0.00, -0.00, -1.00, 112.6, 48.0)">l</text><text xml:space="preserve" font-family="Helvetica-Bold" font-weight="bold" font-size="22.0" fill="#5E5E5E" transform="matrix(1.00, 0.00, -0.00, -1.00, 118.7, 48.0)"> </text><text xml:space="preserve" font-family="Helvetica-Bold" font-weight="bold" font-size="22.0" fill="#5E5E5E" transform="matrix(1.00, 0.00, -0.00, -1.00, 124.8, 48.0)">o</text><text xml:space="preserve" font-family="Helvetica-Bold" font-weight="bold" font-size="22.0" fill="#5E5E5E" transform="matrix(1.00, 0.00, -0.00, -1.00, 138.3, 48.0)">f</text><text xml:space="preserve" font-family="Helvetica-Bold" font-weight="bold" font-size="22.0" fill="#5E5E5E" transform="matrix(1.00, 0.00, -0.00, -1.00, 145.6, 48.0)"> </text><text xml:space="preserve" font-family="Helvetica-Bold" font-weight="bold" font-size="22.0" fill="#5E5E5E" transform="matrix(1.00, 0.00, -0.00, -1.00, 151.7, 48.0)">u</text><text xml:space="preserve" font-family="Helvetica-Bold" font-weight="bold" font-size="22.0" fill="#5E5E5E" transform="matrix(1.00, 0.00, -0.00, -1.00, 165.2, 48.0)">s</text><text xml:space="preserve" font-family="Helvetica-Bold" font-weight="bold" font-size="22.0" fill="#5E5E5E" transform="matrix(1.00, 0.00, -0.00, -1.00, 177.4, 48.0)">e</text><text xml:space="preserve" font-family="Helvetica-Bold" font-weight="bold" font-size="22.0" fill="#5E5E5E" transform="matrix(1.00, 0.00, -0.00, -1.00, 189.6, 48.0)"> </text><text xml:space="preserve" font-family="Helvetica-Bold" font-weight="bold" font-size="22.0" fill="#5E5E5E" transform="matrix(1.00, 0.00, -0.00, -1.00, 195.7, 48.0)">o</text><text xml:space="preserve" font-family="Helvetica-Bold" font-weight="bold" font-size="22.0" fill="#5E5E5E" transform="matrix(1.00, 0.00, -0.00, -1.00, 209.2, 48.0)">f</text><text xml:space="preserve" font-family="Helvetica-Bold" font-weight="bold" font-size="22.0" fill="#5E5E5E" transform="matrix(1.00, 0.00, -0.00, -1.00, 216.5, 48.0)"> </text><text xml:space="preserve" font-family="Helvetica-Bold" font-weight="bold" font-size="22.0" fill="#5E5E5E" transform="matrix(1.00, 0.00, -0.00, -1.00, 222.6, 48.0)">t</text><text xml:space="preserve" font-family="Helvetica-Bold" font-weight="bold" font-size="22.0" fill="#5E5E5E" transform="matrix(1.00, 0.00, -0.00, -1.00, 229.9, 48.0)">h</text><text xml:space="preserve" font-family="Helvetica-Bold" font-weight="bold" font-size="22.0" fill="#5E5E5E" transform="matrix(1.00, 0.00, -0.00, -1.00, 243.4, 48.0)">i</text><text xml:space="preserve" font-family="Helvetica-Bold" font-weight="bold" font-size="22.0" fill="#5E5E5E" transform="matrix(1.00, 0.00, -0.00, -1.00, 249.5, 48.0)">s</text><text xml:space="preserve" font-family="Helvetica-Bold" font-weight="bold" font-size="22.0" fill="#5E5E5E" transform="matrix(1.00, 0.00, -0.00, -1.00, 261.7, 48.0)"> </text><text xml:space="preserve" font-family="Helvetica-Bold" font-weight="bold" font-size="22.0" fill="#5E5E5E" transform="matrix(1.00, 0.00, -0.00, -1.00, 267.8, 48.0)">r</text><text xml:space="preserve" font-family="Helvetica-Bold" font-weight="bold" font-size="22.0" fill="#5E5E5E" transform="matrix(1.00, 0.00, -0.00, -1.00, 276.4, 48.0)">a</text><text xml:space="preserve" font-family="Helvetica-Bold" font-weight="bold" font-size="22.0" fill="#5E5E5E" transform="matrix(1.00, 0.00, -0.00, -1.00, 288.6, 48.0)">d</text><text xml:space="preserve" font-family="Helvetica-Bold" font-weight="bold" font-size="22.0" fill="#5E5E5E" transform="matrix(1.00, 0.00, -0.00, -1.00, 302.1, 48.0)">i</text><text xml:space="preserve" font-family="Helvetica-Bold" font-weight="bold" font-size="22.0" fill="#5E5E5E" transform="matrix(1.00, 0.00, -0.00, -1.00, 308.2, 48.0)">o</text><text xml:space="preserve" font-family="Helvetica-Bold" font-weight="bold" font-size="22.0" fill="#5E5E5E" transform="matrix(1.00, 0.00, -0.00, -1.00, 321.6, 48.0)">a</text><text xml:space="preserve" font-family="Helvetica-Bold" font-weight="bold" font-size="22.0" fill="#5E5E5E" transform="matrix(1.00, 0.00, -0.00, -1.00, 333.8, 48.0)">c</text><text xml:space="preserve" font-family="Helvetica-Bold" font-weight="bold" font-size="22.0" fill="#5E5E5E" transform="matrix(1.00, 0.00, -0.00, -1.00, 346.1, 48.0)">t</text><text xml:space="preserve" font-family="Helvetica-Bold" font-weight="bold" font-size="22.0" fill="#5E5E5E" transform="matrix(1.00, 0.00, -0.00, -1.00, 353.4, 48.0)">i</text><text xml:space="preserve" font-family="Helvetica-Bold" font-weight="bold" font-size="22.0" fill="#5E5E5E" transform="matrix(1.00, 0.00, -0.00, -1.00, 359.5, 48.0)">v</text><text xml:space="preserve" font-family="Helvetica-Bold" font-weight="bold" font-size="22.0" fill="#5E5E5E" transform="matrix(1.00, 0.00, -0.00, -1.00, 371.8, 48.0)">e</text><text xml:space="preserve" font-family="Helvetica-Bold" font-weight="bold" font-size="22.0" fill="#5E5E5E" transform="matrix(1.00, 0.00, -0.00, -1.00, 384.0, 48.0)"> </text><text xml:space="preserve" font-family="Helvetica-Bold" font-weight="bold" font-size="22.0" fill="#5E5E5E" transform="matrix(1.00, 0.00, -0.00, -1.00, 5.0, 14.0)">e</text><text xml:space="preserve" font-family="Helvetica-Bold" font-weight="bold" font-size="22.0" fill="#5E5E5E" transform="matrix(1.00, 0.00, -0.00, -1.00, 17.2, 14.0)">l</text><text xml:space="preserve" font-family="Helvetica-Bold" font-weight="bold" font-size="22.0" fill="#5E5E5E" transform="matrix(1.00, 0.00, -0.00, -1.00, 23.3, 14.0)">e</text><text xml:space="preserve" font-family="Helvetica-Bold" font-weight="bold" font-size="22.0" fill="#5E5E5E" transform="matrix(1.00, 0.00, -0.00, -1.00, 35.6, 14.0)">m</text><text xml:space="preserve" font-family="Helvetica-Bold" font-weight="bold" font-size="22.0" fill="#5E5E5E" transform="matrix(1.00, 0.00, -0.00, -1.00, 55.2, 14.0)">e</text><text xml:space="preserve" font-family="Helvetica-Bold" font-weight="bold" font-size="22.0" fill="#5E5E5E" transform="matrix(1.00, 0.00, -0.00, -1.00, 67.4, 14.0)">n</text><text xml:space="preserve" font-family="Helvetica-Bold" font-weight="bold" font-size="22.0" fill="#5E5E5E" transform="matrix(1.00, 0.00, -0.00, -1.00, 80.8, 14.0)">t</text><text xml:space="preserve" font-family="Helvetica-Bold" font-weight="bold" font-size="22.0" fill="#5E5E5E" transform="matrix(1.00, 0.00, -0.00, -1.00, 88.2, 14.0)"> </text><text xml:space="preserve" font-family="Helvetica-Bold" font-weight="bold" font-size="22.0" fill="#5E5E5E" transform="matrix(1.00, 0.00, -0.00, -1.00, 94.3, 14.0)">t</text><text xml:space="preserve" font-family="Helvetica-Bold" font-weight="bold" font-size="22.0" fill="#5E5E5E" transform="matrix(1.00, 0.00, -0.00, -1.00, 101.6, 14.0)">o</text><text xml:space="preserve" font-family="Helvetica-Bold" font-weight="bold" font-size="22.0" fill="#5E5E5E" transform="matrix(1.00, 0.00, -0.00, -1.00, 115.0, 14.0)"> </text><text xml:space="preserve" font-family="Helvetica-Bold" font-weight="bold" font-size="22.0" fill="#5E5E5E" transform="matrix(1.00, 0.00, -0.00, -1.00, 121.1, 14.0)">t</text><text xml:space="preserve" font-family="Helvetica-Bold" font-weight="bold" font-size="22.0" fill="#5E5E5E" transform="matrix(1.00, 0.00, -0.00, -1.00, 128.5, 14.0)">r</text><text xml:space="preserve" font-family="Helvetica-Bold" font-weight="bold" font-size="22.0" fill="#5E5E5E" transform="matrix(1.00, 0.00, -0.00, -1.00, 137.0, 14.0)">e</text><text xml:space="preserve" font-family="Helvetica-Bold" font-weight="bold" font-size="22.0" fill="#5E5E5E" transform="matrix(1.00, 0.00, -0.00, -1.00, 149.3, 14.0)">a</text><text xml:space="preserve" font-family="Helvetica-Bold" font-weight="bold" font-size="22.0" fill="#5E5E5E" transform="matrix(1.00, 0.00, -0.00, -1.00, 161.5, 14.0)">t</text><text xml:space="preserve" font-family="Helvetica-Bold" font-weight="bold" font-size="22.0" fill="#5E5E5E" transform="matrix(1.00, 0.00, -0.00, -1.00, 168.8, 14.0)"> </text><text xml:space="preserve" font-family="Helvetica-Bold" font-weight="bold" font-size="22.0" fill="#5E5E5E" transform="matrix(1.00, 0.00, -0.00, -1.00, 174.9, 14.0)">c</text><text xml:space="preserve" font-family="Helvetica-Bold" font-weight="bold" font-size="22.0" fill="#5E5E5E" transform="matrix(1.00, 0.00, -0.00, -1.00, 187.2, 14.0)">a</text><text xml:space="preserve" font-family="Helvetica-Bold" font-weight="bold" font-size="22.0" fill="#5E5E5E" transform="matrix(1.00, 0.00, -0.00, -1.00, 199.4, 14.0)">n</text><text xml:space="preserve" font-family="Helvetica-Bold" font-weight="bold" font-size="22.0" fill="#5E5E5E" transform="matrix(1.00, 0.00, -0.00, -1.00, 212.8, 14.0)">c</text><text xml:space="preserve" font-family="Helvetica-Bold" font-weight="bold" font-size="22.0" fill="#5E5E5E" transform="matrix(1.00, 0.00, -0.00, -1.00, 225.1, 14.0)">e</text><text xml:space="preserve" font-family="Helvetica-Bold" font-weight="bold" font-size="22.0" fill="#5E5E5E" transform="matrix(1.00, 0.00, -0.00, -1.00, 237.3, 14.0)">r</text></g></g></g></svg>