<?xml version="1.0" encoding="UTF-8" standalone="no"?><svg xmlns="http://www.w3.org/2000/svg" xmlns:xlink="http://www.w3.org/1999/xlink" clip-rule="evenodd" stroke-miterlimit="4.00" viewBox="0 0 1920 1080"><desc>SVG generated by Keynote</desc><defs></defs><g transform="matrix(1.00, 0.00, -0.00, -1.00, 0.0, 1080.0)"><path d="M 0.0 1080.0 L 1920.0 1080.0 L 1920.0 0.0 L 0.0 0.0 Z M 0.0 1080.0 " fill="#FEFFFF"></path><text xml:space="preserve" font-family="HurmeGeometricSans4-SemiBold" font-weight="bold" font-size="101.9" fill="#5E5E5E" transform="matrix(1.00, 0.00, -0.00, -1.00, 143.0, 928.0)">B</text><text xml:space="preserve" font-family="HurmeGeometricSans4-SemiBold" font-weight="bold" font-size="101.9" fill="#5E5E5E" transform="matrix(1.00, 0.00, -0.00, -1.00, 205.6, 928.0)">R</text><text xml:space="preserve" font-family="HurmeGeometricSans4-SemiBold" font-weight="bold" font-size="101.9" fill="#5E5E5E" transform="matrix(1.00, 0.00, -0.00, -1.00, 270.4, 928.0)">E</text><text xml:space="preserve" font-family="HurmeGeometricSans4-SemiBold" font-weight="bold" font-size="101.9" fill="#5E5E5E" transform="matrix(1.00, 0.00, -0.00, -1.00, 328.8, 928.0)">A</text><text xml:space="preserve" font-family="HurmeGeometricSans4-SemiBold" font-weight="bold" font-size="101.9" fill="#5E5E5E" transform="matrix(1.00, 0.00, -0.00, -1.00, 401.6, 928.0)">S</text><text xml:space="preserve" font-family="HurmeGeometricSans4-SemiBold" font-weight="bold" font-size="101.9" fill="#5E5E5E" transform="matrix(1.00, 0.00, -0.00, -1.00, 457.2, 928.0)">T</text><text xml:space="preserve" font-family="HurmeGeometricSans4-SemiBold" font-weight="bold" font-size="101.9" fill="#5E5E5E" transform="matrix(1.00, 0.00, -0.00, -1.00, 505.2, 928.0)"> </text><text xml:space="preserve" font-family="HurmeGeometricSans4-SemiBold" font-weight="bold" font-size="101.9" fill="#5E5E5E" transform="matrix(1.00, 0.00, -0.00, -1.00, 543.2, 928.0)">C</text><text xml:space="preserve" font-family="HurmeGeometricSans4-SemiBold" font-weight="bold" font-size="101.9" fill="#5E5E5E" transform="matrix(1.00, 0.00, -0.00, -1.00, 615.8, 928.0)">A</text><text xml:space="preserve" font-family="HurmeGeometricSans4-SemiBold" font-weight="bold" font-size="101.9" fill="#5E5E5E" transform="matrix(1.00, 0.00, -0.00, -1.00, 690.6, 928.0)">N</text><text xml:space="preserve" font-family="HurmeGeometricSans4-SemiBold" font-weight="bold" font-size="101.9" fill="#5E5E5E" transform="matrix(1.00, 0.00, -0.00, -1.00, 767.5, 928.0)">C</text><text xml:space="preserve" font-family="HurmeGeometricSans4-SemiBold" font-weight="bold" font-size="101.9" fill="#5E5E5E" transform="matrix(1.00, 0.00, -0.00, -1.00, 840.0, 928.0)">E</text><text xml:space="preserve" font-family="HurmeGeometricSans4-SemiBold" font-weight="bold" font-size="101.9" fill="#5E5E5E" transform="matrix(1.00, 0.00, -0.00, -1.00, 898.9, 928.0)">R</text><text xml:space="preserve" font-family="HurmeGeometricSans4-SemiBold" font-weight="bold" font-size="101.9" fill="#5E5E5E" transform="matrix(1.00, 0.00, -0.00, -1.00, 962.5, 928.0)"> </text><text xml:space="preserve" font-family="HurmeGeometricSans4-SemiBold" font-weight="bold" font-size="101.9" fill="#5E5E5E" transform="matrix(1.00, 0.00, -0.00, -1.00, 1003.1, 928.0)">S</text><text xml:space="preserve" font-family="HurmeGeometricSans4-SemiBold" font-weight="bold" font-size="101.9" fill="#5E5E5E" transform="matrix(1.00, 0.00, -0.00, -1.00, 1061.0, 928.0)">E</text><text xml:space="preserve" font-family="HurmeGeometricSans4-SemiBold" font-weight="bold" font-size="101.9" fill="#5E5E5E" transform="matrix(1.00, 0.00, -0.00, -1.00, 1119.9, 928.0)">G</text><text xml:space="preserve" font-family="HurmeGeometricSans4-SemiBold" font-weight="bold" font-size="101.9" fill="#5E5E5E" transform="matrix(1.00, 0.00, -0.00, -1.00, 1195.9, 928.0)">M</text><text xml:space="preserve" font-family="HurmeGeometricSans4-SemiBold" font-weight="bold" font-size="101.9" fill="#5E5E5E" transform="matrix(1.00, 0.00, -0.00, -1.00, 1284.3, 928.0)">E</text><text xml:space="preserve" font-family="HurmeGeometricSans4-SemiBold" font-weight="bold" font-size="101.9" fill="#5E5E5E" transform="matrix(1.00, 0.00, -0.00, -1.00, 1343.2, 928.0)">N</text><text xml:space="preserve" font-family="HurmeGeometricSans4-SemiBold" font-weight="bold" font-size="101.9" fill="#5E5E5E" transform="matrix(1.00, 0.00, -0.00, -1.00, 1420.1, 928.0)">T</text><text xml:space="preserve" font-family="HurmeGeometricSans4-SemiBold" font-weight="bold" font-size="101.9" fill="#5E5E5E" transform="matrix(1.00, 0.00, -0.00, -1.00, 1466.5, 928.0)">A</text><text xml:space="preserve" font-family="HurmeGeometricSans4-SemiBold" font-weight="bold" font-size="101.9" fill="#5E5E5E" transform="matrix(1.00, 0.00, -0.00, -1.00, 1532.5, 928.0)">T</text><text xml:space="preserve" font-family="HurmeGeometricSans4-SemiBold" font-weight="bold" font-size="101.9" fill="#5E5E5E" transform="matrix(1.00, 0.00, -0.00, -1.00, 1587.8, 928.0)">I</text><text xml:space="preserve" font-family="HurmeGeometricSans4-SemiBold" font-weight="bold" font-size="101.9" fill="#5E5E5E" transform="matrix(1.00, 0.00, -0.00, -1.00, 1617.2, 928.0)">O</text><text xml:space="preserve" font-family="HurmeGeometricSans4-SemiBold" font-weight="bold" font-size="101.9" fill="#5E5E5E" transform="matrix(1.00, 0.00, -0.00, -1.00, 1700.3, 928.0)">N</text><image xlink:href="3C7F4012EC65B624D45185E742F17910.png" width="189.00" height="768.00" transform="matrix(1.06, 0.00, -0.00, -1.05, 520.0, 867.0)"></image><image xlink:href="20B45707DBD8EAB8F92F89FE104A73C6.png" width="220.00" height="836.00" transform="matrix(1.00, 0.00, -0.00, 1.00, 510.0, 38.0)"></image><image xlink:href="3753A5ED132B21BD995D603350A9E91B.png" width="189.00" height="768.00" transform="matrix(1.06, 0.00, -0.00, -1.05, 1215.0, 867.0)"></image><image xlink:href="../../389E36ED-F7CF-4E89-AF32-ECC49FB10071/assets/20B45707DBD8EAB8F92F89FE104A73C6.png" width="220.00" height="836.00" transform="matrix(1.00, 0.00, -0.00, 1.00, 1205.0, 38.0)"></image></g></svg>