<?xml version="1.0" encoding="UTF-8" standalone="no"?><svg xmlns="http://www.w3.org/2000/svg" xmlns:xlink="http://www.w3.org/1999/xlink" clip-rule="evenodd" stroke-miterlimit="4.00" viewBox="0 0 1920 1080"><desc>SVG generated by Keynote</desc><defs></defs><g transform="matrix(1.00, 0.00, -0.00, -1.00, 0.0, 1080.0)"><path d="M 0.0 1080.0 L 1920.0 1080.0 L 1920.0 0.0 L 0.0 0.0 Z M 0.0 1080.0 " fill="#FEFFFF"></path><text xml:space="preserve" font-family="HurmeGeometricSans4-SemiBold" font-weight="bold" font-size="112.0" fill="#5E5E5E" transform="matrix(1.00, 0.00, -0.00, -1.00, 205.0, 925.0)">A</text><text xml:space="preserve" font-family="HurmeGeometricSans4-SemiBold" font-weight="bold" font-size="112.0" fill="#5E5E5E" transform="matrix(1.00, 0.00, -0.00, -1.00, 287.2, 925.0)">D</text><text xml:space="preserve" font-family="HurmeGeometricSans4-SemiBold" font-weight="bold" font-size="112.0" fill="#5E5E5E" transform="matrix(1.00, 0.00, -0.00, -1.00, 366.5, 925.0)">J</text><text xml:space="preserve" font-family="HurmeGeometricSans4-SemiBold" font-weight="bold" font-size="112.0" fill="#5E5E5E" transform="matrix(1.00, 0.00, -0.00, -1.00, 404.9, 925.0)">U</text><text xml:space="preserve" font-family="HurmeGeometricSans4-SemiBold" font-weight="bold" font-size="112.0" fill="#5E5E5E" transform="matrix(1.00, 0.00, -0.00, -1.00, 483.7, 925.0)">S</text><text xml:space="preserve" font-family="HurmeGeometricSans4-SemiBold" font-weight="bold" font-size="112.0" fill="#5E5E5E" transform="matrix(1.00, 0.00, -0.00, -1.00, 544.8, 925.0)">T</text><text xml:space="preserve" font-family="HurmeGeometricSans4-SemiBold" font-weight="bold" font-size="112.0" fill="#5E5E5E" transform="matrix(1.00, 0.00, -0.00, -1.00, 597.6, 925.0)"> </text><text xml:space="preserve" font-family="HurmeGeometricSans4-SemiBold" font-weight="bold" font-size="112.0" fill="#5E5E5E" transform="matrix(1.00, 0.00, -0.00, -1.00, 643.1, 925.0)">D</text><text xml:space="preserve" font-family="HurmeGeometricSans4-SemiBold" font-weight="bold" font-size="112.0" fill="#5E5E5E" transform="matrix(1.00, 0.00, -0.00, -1.00, 725.2, 925.0)">I</text><text xml:space="preserve" font-family="HurmeGeometricSans4-SemiBold" font-weight="bold" font-size="112.0" fill="#5E5E5E" transform="matrix(1.00, 0.00, -0.00, -1.00, 757.5, 925.0)">S</text><text xml:space="preserve" font-family="HurmeGeometricSans4-SemiBold" font-weight="bold" font-size="112.0" fill="#5E5E5E" transform="matrix(1.00, 0.00, -0.00, -1.00, 818.6, 925.0)">T</text><text xml:space="preserve" font-family="HurmeGeometricSans4-SemiBold" font-weight="bold" font-size="112.0" fill="#5E5E5E" transform="matrix(1.00, 0.00, -0.00, -1.00, 869.7, 925.0)">A</text><text xml:space="preserve" font-family="HurmeGeometricSans4-SemiBold" font-weight="bold" font-size="112.0" fill="#5E5E5E" transform="matrix(1.00, 0.00, -0.00, -1.00, 951.9, 925.0)">N</text><text xml:space="preserve" font-family="HurmeGeometricSans4-SemiBold" font-weight="bold" font-size="112.0" fill="#5E5E5E" transform="matrix(1.00, 0.00, -0.00, -1.00, 1036.4, 925.0)">C</text><text xml:space="preserve" font-family="HurmeGeometricSans4-SemiBold" font-weight="bold" font-size="112.0" fill="#5E5E5E" transform="matrix(1.00, 0.00, -0.00, -1.00, 1116.1, 925.0)">E</text><text xml:space="preserve" font-family="HurmeGeometricSans4-SemiBold" font-weight="bold" font-size="112.0" fill="#5E5E5E" transform="matrix(1.00, 0.00, -0.00, -1.00, 1180.9, 925.0)"> </text><text xml:space="preserve" font-family="HurmeGeometricSans4-SemiBold" font-weight="bold" font-size="112.0" fill="#5E5E5E" transform="matrix(1.00, 0.00, -0.00, -1.00, 1221.6, 925.0)">W</text><text xml:space="preserve" font-family="HurmeGeometricSans4-SemiBold" font-weight="bold" font-size="112.0" fill="#5E5E5E" transform="matrix(1.00, 0.00, -0.00, -1.00, 1327.8, 925.0)">E</text><text xml:space="preserve" font-family="HurmeGeometricSans4-SemiBold" font-weight="bold" font-size="112.0" fill="#5E5E5E" transform="matrix(1.00, 0.00, -0.00, -1.00, 1392.5, 925.0)">I</text><text xml:space="preserve" font-family="HurmeGeometricSans4-SemiBold" font-weight="bold" font-size="112.0" fill="#5E5E5E" transform="matrix(1.00, 0.00, -0.00, -1.00, 1424.8, 925.0)">G</text><text xml:space="preserve" font-family="HurmeGeometricSans4-SemiBold" font-weight="bold" font-size="112.0" fill="#5E5E5E" transform="matrix(1.00, 0.00, -0.00, -1.00, 1508.3, 925.0)">H</text><text xml:space="preserve" font-family="HurmeGeometricSans4-SemiBold" font-weight="bold" font-size="112.0" fill="#5E5E5E" transform="matrix(1.00, 0.00, -0.00, -1.00, 1591.1, 925.0)">T</text><text xml:space="preserve" font-family="HurmeGeometricSans4-SemiBold" font-weight="bold" font-size="112.0" fill="#5E5E5E" transform="matrix(1.00, 0.00, -0.00, -1.00, 1650.9, 925.0)">S</text><image xlink:href="../../D35177F8-5F38-46AB-93E9-A6D3014E769C/assets/EC46D3F6A68B356F3C7D17C420556E80.png" width="136.00" height="541.00" transform="matrix(1.48, 0.00, -0.00, -1.29, 59.0, 864.0)"></image><image xlink:href="../../7477E1AF-69B1-4569-8E92-42D7ECEF3C01/assets/A216C9C6D83125B8B38D8A2C8951A9A1.png" width="221.00" height="726.00" transform="matrix(1.00, 0.00, -0.00, 1.00, 49.0, 145.0)"></image><image xlink:href="../../9C519E4D-E80A-41EF-A1C4-535B91DA1C75/assets/7EF7417F63176ED3B7C4676876616006.png" width="134.00" height="535.00" transform="matrix(1.49, 0.00, -0.00, -1.31, 380.0, 864.0)"></image><image xlink:href="../../D35177F8-5F38-46AB-93E9-A6D3014E769C/assets/073BD88DDCB3173D4F1F9B2DC921C8F5.png" width="220.00" height="726.00" transform="matrix(1.00, 0.00, -0.00, 1.00, 370.0, 145.0)"></image><image xlink:href="../../7477E1AF-69B1-4569-8E92-42D7ECEF3C01/assets/BBC4C745B035E536ACFAF933331C4E73.png" width="290.00" height="1216.00" transform="matrix(1.00, 0.00, -0.00, -1.00, 654.9, 1121.7)"></image><image xlink:href="../../9C519E4D-E80A-41EF-A1C4-535B91DA1C75/assets/D1EE185A0DBD24DF48A388173B0CB53E.png" width="85.00" height="342.00" transform="matrix(2.35, 0.00, -0.00, -2.05, 700.0, 864.0)"></image><path d="M 0.1 0.4 L 200.1 0.4 L 200.1 700.4 L 0.1 700.4 Z M 0.1 0.4 " fill="none" stroke="#DC7758" stroke-width="10.00" transform="matrix(1.00, 0.00, 0.00, -1.00, 699.9, 864.4)"></path><image xlink:href="../../9C519E4D-E80A-41EF-A1C4-535B91DA1C75/assets/1C0A4ADA421288F864D8CA369BD0C0F5.png" width="132.00" height="535.00" transform="matrix(1.52, 0.00, -0.00, -1.31, 1661.0, 864.0)"></image><image xlink:href="../../D35177F8-5F38-46AB-93E9-A6D3014E769C/assets/073BD88DDCB3173D4F1F9B2DC921C8F5.png" width="220.00" height="726.00" transform="matrix(1.00, 0.00, -0.00, 1.00, 1651.0, 145.0)"></image><text xml:space="preserve" font-family="HurmeGeometricSans3-Regular" font-size="50.0" fill="#000000" transform="matrix(1.00, 0.00, -0.00, -1.00, 72.0, 68.0)">O</text><text xml:space="preserve" font-family="HurmeGeometricSans3-Regular" font-size="50.0" fill="#000000" transform="matrix(1.00, 0.00, -0.00, -1.00, 113.0, 68.0)">r</text><text xml:space="preserve" font-family="HurmeGeometricSans3-Regular" font-size="50.0" fill="#000000" transform="matrix(1.00, 0.00, -0.00, -1.00, 131.1, 68.0)">i</text><text xml:space="preserve" font-family="HurmeGeometricSans3-Regular" font-size="50.0" fill="#000000" transform="matrix(1.00, 0.00, -0.00, -1.00, 140.6, 68.0)">g</text><text xml:space="preserve" font-family="HurmeGeometricSans3-Regular" font-size="50.0" fill="#000000" transform="matrix(1.00, 0.00, -0.00, -1.00, 170.6, 68.0)">i</text><text xml:space="preserve" font-family="HurmeGeometricSans3-Regular" font-size="50.0" fill="#000000" transform="matrix(1.00, 0.00, -0.00, -1.00, 180.1, 68.0)">n</text><text xml:space="preserve" font-family="HurmeGeometricSans3-Regular" font-size="50.0" fill="#000000" transform="matrix(1.00, 0.00, -0.00, -1.00, 206.7, 68.0)">a</text><text xml:space="preserve" font-family="HurmeGeometricSans3-Regular" font-size="50.0" fill="#000000" transform="matrix(1.00, 0.00, -0.00, -1.00, 236.6, 68.0)">l</text><text xml:space="preserve" font-family="HurmeGeometricSans3-Regular" font-size="50.0" fill="#000000" transform="matrix(1.00, 0.00, -0.00, -1.00, 364.0, 68.0)">K</text><text xml:space="preserve" font-family="HurmeGeometricSans3-Regular" font-size="50.0" fill="#000000" transform="matrix(1.00, 0.00, -0.00, -1.00, 393.6, 68.0)">e</text><text xml:space="preserve" font-family="HurmeGeometricSans3-Regular" font-size="50.0" fill="#000000" transform="matrix(1.00, 0.00, -0.00, -1.00, 420.7, 68.0)">y</text><text xml:space="preserve" font-family="HurmeGeometricSans3-Regular" font-size="50.0" fill="#000000" transform="matrix(1.00, 0.00, -0.00, -1.00, 445.2, 68.0)"> </text><text xml:space="preserve" font-family="HurmeGeometricSans3-Regular" font-size="50.0" fill="#000000" transform="matrix(1.00, 0.00, -0.00, -1.00, 465.8, 68.0)">P</text><text xml:space="preserve" font-family="HurmeGeometricSans3-Regular" font-size="50.0" fill="#000000" transform="matrix(1.00, 0.00, -0.00, -1.00, 493.0, 68.0)">o</text><text xml:space="preserve" font-family="HurmeGeometricSans3-Regular" font-size="50.0" fill="#000000" transform="matrix(1.00, 0.00, -0.00, -1.00, 523.2, 68.0)">i</text><text xml:space="preserve" font-family="HurmeGeometricSans3-Regular" font-size="50.0" fill="#000000" transform="matrix(1.00, 0.00, -0.00, -1.00, 532.8, 68.0)">n</text><text xml:space="preserve" font-family="HurmeGeometricSans3-Regular" font-size="50.0" fill="#000000" transform="matrix(1.00, 0.00, -0.00, -1.00, 559.4, 68.0)">t</text><text xml:space="preserve" font-family="HurmeGeometricSans3-Regular" font-size="50.0" fill="#000000" transform="matrix(1.00, 0.00, -0.00, -1.00, 574.8, 68.0)">s</text><text xml:space="preserve" font-family="HurmeGeometricSans3-Regular" font-size="50.0" fill="#000000" transform="matrix(1.00, 0.00, -0.00, -1.00, 595.0, 68.0)"> </text><text xml:space="preserve" font-family="HurmeGeometricSans3-Regular" font-size="50.0" fill="#000000" transform="matrix(1.00, 0.00, -0.00, -1.00, 661.0, 68.0)">N</text><text xml:space="preserve" font-family="HurmeGeometricSans3-Regular" font-size="50.0" fill="#000000" transform="matrix(1.00, 0.00, -0.00, -1.00, 698.5, 68.0)">o</text><text xml:space="preserve" font-family="HurmeGeometricSans3-Regular" font-size="50.0" fill="#000000" transform="matrix(1.00, 0.00, -0.00, -1.00, 728.4, 68.0)"> </text><text xml:space="preserve" font-family="HurmeGeometricSans3-Regular" font-size="50.0" fill="#000000" transform="matrix(1.00, 0.00, -0.00, -1.00, 749.0, 68.0)">D</text><text xml:space="preserve" font-family="HurmeGeometricSans3-Regular" font-size="50.0" fill="#000000" transform="matrix(1.00, 0.00, -0.00, -1.00, 785.2, 68.0)">i</text><text xml:space="preserve" font-family="HurmeGeometricSans3-Regular" font-size="50.0" fill="#000000" transform="matrix(1.00, 0.00, -0.00, -1.00, 794.8, 68.0)">s</text><text xml:space="preserve" font-family="HurmeGeometricSans3-Regular" font-size="50.0" fill="#000000" transform="matrix(1.00, 0.00, -0.00, -1.00, 815.5, 68.0)">t</text><text xml:space="preserve" font-family="HurmeGeometricSans3-Regular" font-size="50.0" fill="#000000" transform="matrix(1.00, 0.00, -0.00, -1.00, 829.4, 68.0)">a</text><text xml:space="preserve" font-family="HurmeGeometricSans3-Regular" font-size="50.0" fill="#000000" transform="matrix(1.00, 0.00, -0.00, -1.00, 859.3, 68.0)">n</text><text xml:space="preserve" font-family="HurmeGeometricSans3-Regular" font-size="50.0" fill="#000000" transform="matrix(1.00, 0.00, -0.00, -1.00, 885.9, 68.0)">c</text><text xml:space="preserve" font-family="HurmeGeometricSans3-Regular" font-size="50.0" fill="#000000" transform="matrix(1.00, 0.00, -0.00, -1.00, 911.8, 68.0)">e</text><text xml:space="preserve" font-family="HurmeGeometricSans3-Regular" font-size="50.0" fill="#000000" transform="matrix(1.00, 0.00, -0.00, -1.00, 966.0, 68.0)">W</text><text xml:space="preserve" font-family="HurmeGeometricSans3-Regular" font-size="50.0" fill="#000000" transform="matrix(1.00, 0.00, -0.00, -1.00, 1012.0, 68.0)">i</text><text xml:space="preserve" font-family="HurmeGeometricSans3-Regular" font-size="50.0" fill="#000000" transform="matrix(1.00, 0.00, -0.00, -1.00, 1021.5, 68.0)">t</text><text xml:space="preserve" font-family="HurmeGeometricSans3-Regular" font-size="50.0" fill="#000000" transform="matrix(1.00, 0.00, -0.00, -1.00, 1036.9, 68.0)">h</text><text xml:space="preserve" font-family="HurmeGeometricSans3-Regular" font-size="50.0" fill="#000000" transform="matrix(1.00, 0.00, -0.00, -1.00, 1063.1, 68.0)"> </text><text xml:space="preserve" font-family="HurmeGeometricSans3-Regular" font-size="50.0" fill="#000000" transform="matrix(1.00, 0.00, -0.00, -1.00, 1083.7, 68.0)">D</text><text xml:space="preserve" font-family="HurmeGeometricSans3-Regular" font-size="50.0" fill="#000000" transform="matrix(1.00, 0.00, -0.00, -1.00, 1120.0, 68.0)">i</text><text xml:space="preserve" font-family="HurmeGeometricSans3-Regular" font-size="50.0" fill="#000000" transform="matrix(1.00, 0.00, -0.00, -1.00, 1129.5, 68.0)">s</text><text xml:space="preserve" font-family="HurmeGeometricSans3-Regular" font-size="50.0" fill="#000000" transform="matrix(1.00, 0.00, -0.00, -1.00, 1150.2, 68.0)">t</text><text xml:space="preserve" font-family="HurmeGeometricSans3-Regular" font-size="50.0" fill="#000000" transform="matrix(1.00, 0.00, -0.00, -1.00, 1164.1, 68.0)">a</text><text xml:space="preserve" font-family="HurmeGeometricSans3-Regular" font-size="50.0" fill="#000000" transform="matrix(1.00, 0.00, -0.00, -1.00, 1194.1, 68.0)">n</text><text xml:space="preserve" font-family="HurmeGeometricSans3-Regular" font-size="50.0" fill="#000000" transform="matrix(1.00, 0.00, -0.00, -1.00, 1220.7, 68.0)">c</text><text xml:space="preserve" font-family="HurmeGeometricSans3-Regular" font-size="50.0" fill="#000000" transform="matrix(1.00, 0.00, -0.00, -1.00, 1246.5, 68.0)">e</text><image xlink:href="../../7477E1AF-69B1-4569-8E92-42D7ECEF3C01/assets/66D3631559BDEDC1F55EA8362376F478.png" width="290.00" height="1216.00" transform="matrix(1.00, 0.00, -0.00, -1.00, 974.7, 1121.7)"></image><image xlink:href="../../08E08BCC-67A0-40C2-BA90-B3FA1CA6C8A1/assets/E05F3622F72FC7B079B23414233E79EF.png" width="85.00" height="342.00" transform="matrix(2.35, 0.00, -0.00, -2.05, 1020.0, 864.0)"></image><path d="M 0.3 0.4 L 200.3 0.4 L 200.3 700.4 L 0.3 700.4 Z M 0.3 0.4 " fill="none" stroke="#DA5B67" stroke-width="10.00" transform="matrix(1.00, 0.00, 0.00, -1.00, 1019.7, 864.4)"></path><text xml:space="preserve" font-family="HurmeGeometricSans3-Regular" font-size="50.0" fill="#000000" transform="matrix(1.00, 0.00, -0.00, -1.00, 1296.0, 68.0)">W</text><text xml:space="preserve" font-family="HurmeGeometricSans3-Regular" font-size="50.0" fill="#000000" transform="matrix(1.00, 0.00, -0.00, -1.00, 1342.0, 68.0)">i</text><text xml:space="preserve" font-family="HurmeGeometricSans3-Regular" font-size="50.0" fill="#000000" transform="matrix(1.00, 0.00, -0.00, -1.00, 1351.5, 68.0)">t</text><text xml:space="preserve" font-family="HurmeGeometricSans3-Regular" font-size="50.0" fill="#000000" transform="matrix(1.00, 0.00, -0.00, -1.00, 1366.9, 68.0)">h</text><text xml:space="preserve" font-family="HurmeGeometricSans3-Regular" font-size="50.0" fill="#000000" transform="matrix(1.00, 0.00, -0.00, -1.00, 1393.1, 68.0)"> </text><text xml:space="preserve" font-family="HurmeGeometricSans3-Regular" font-size="50.0" fill="#000000" transform="matrix(1.00, 0.00, -0.00, -1.00, 1411.5, 68.0)">W</text><text xml:space="preserve" font-family="HurmeGeometricSans3-Regular" font-size="50.0" fill="#000000" transform="matrix(1.00, 0.00, -0.00, -1.00, 1455.0, 68.0)">e</text><text xml:space="preserve" font-family="HurmeGeometricSans3-Regular" font-size="50.0" fill="#000000" transform="matrix(1.00, 0.00, -0.00, -1.00, 1482.5, 68.0)">i</text><text xml:space="preserve" font-family="HurmeGeometricSans3-Regular" font-size="50.0" fill="#000000" transform="matrix(1.00, 0.00, -0.00, -1.00, 1492.0, 68.0)">g</text><text xml:space="preserve" font-family="HurmeGeometricSans3-Regular" font-size="50.0" fill="#000000" transform="matrix(1.00, 0.00, -0.00, -1.00, 1522.0, 68.0)">h</text><text xml:space="preserve" font-family="HurmeGeometricSans3-Regular" font-size="50.0" fill="#000000" transform="matrix(1.00, 0.00, -0.00, -1.00, 1548.2, 68.0)">t</text><text xml:space="preserve" font-family="HurmeGeometricSans3-Regular" font-size="50.0" fill="#000000" transform="matrix(1.00, 0.00, -0.00, -1.00, 1563.6, 68.0)">s</text><image xlink:href="../../9C519E4D-E80A-41EF-A1C4-535B91DA1C75/assets/FF844ED199D118FFE15782C0E9F66A3D.png" width="290.00" height="1216.00" transform="matrix(1.00, 0.00, -0.00, -1.00, 1295.2, 1121.7)"></image><image xlink:href="../../7477E1AF-69B1-4569-8E92-42D7ECEF3C01/assets/6C456B358DA93C92F2D0A735ADC317DA.png" width="133.00" height="535.00" transform="matrix(1.50, 0.00, -0.00, -1.31, 1340.0, 864.0)"></image><path d="M -0.2 0.4 L 199.8 0.4 L 199.8 700.4 L -0.2 700.4 Z M -0.2 0.4 " fill="none" stroke="#D42B73" stroke-width="10.00" transform="matrix(1.00, 0.00, 0.00, -1.00, 1340.2, 864.4)"></path><text xml:space="preserve" font-family="HurmeGeometricSans3-Regular" font-size="50.0" fill="#000000" transform="matrix(1.00, 0.00, -0.00, -1.00, 1683.0, 68.0)">D</text><text xml:space="preserve" font-family="HurmeGeometricSans3-Regular" font-size="50.0" fill="#000000" transform="matrix(1.00, 0.00, -0.00, -1.00, 1719.3, 68.0)">o</text><text xml:space="preserve" font-family="HurmeGeometricSans3-Regular" font-size="50.0" fill="#000000" transform="matrix(1.00, 0.00, -0.00, -1.00, 1749.6, 68.0)">c</text><text xml:space="preserve" font-family="HurmeGeometricSans3-Regular" font-size="50.0" fill="#000000" transform="matrix(1.00, 0.00, -0.00, -1.00, 1775.5, 68.0)">t</text><text xml:space="preserve" font-family="HurmeGeometricSans3-Regular" font-size="50.0" fill="#000000" transform="matrix(1.00, 0.00, -0.00, -1.00, 1789.3, 68.0)">o</text><text xml:space="preserve" font-family="HurmeGeometricSans3-Regular" font-size="50.0" fill="#000000" transform="matrix(1.00, 0.00, -0.00, -1.00, 1819.7, 68.0)">r</text></g></svg>