<?xml version="1.0" encoding="UTF-8" standalone="no"?><svg xmlns="http://www.w3.org/2000/svg" xmlns:xlink="http://www.w3.org/1999/xlink" clip-rule="evenodd" stroke-miterlimit="4.00" viewBox="0 0 1920 1080"><desc>SVG generated by Keynote</desc><defs><linearGradient id="gradSh1.3" x1="0.0" y1="0.0" x2="100.0" y2="0.0" gradientUnits="userSpaceOnUse" gradientTransform="matrix(5.82, 0.00, 0.00, -3.82, 137.9, 462.0)"><stop offset="0.00000" stop-color="#E3A535"></stop><stop offset="0.01173" stop-color="#E3A435"></stop><stop offset="0.29179" stop-color="#E19840"></stop><stop offset="0.30059" stop-color="#E19740"></stop><stop offset="1.00000" stop-color="#DC7859"></stop></linearGradient><linearGradient id="gradSh2.4" x1="0.0" y1="0.0" x2="100.0" y2="0.0" gradientUnits="userSpaceOnUse" gradientTransform="matrix(-5.82, 0.00, 0.00, 3.82, 1251.9, 462.0)"><stop offset="0.00000" stop-color="#DA5C67"></stop><stop offset="0.01833" stop-color="#DA5D67"></stop><stop offset="1.00000" stop-color="#DC7859"></stop></linearGradient><linearGradient id="gradSh3.5" x1="0.0" y1="0.0" x2="100.0" y2="0.0" gradientUnits="userSpaceOnUse" gradientTransform="matrix(5.82, 0.00, 0.00, -3.82, 1200.5, 462.0)"><stop offset="0.00000" stop-color="#DA5C67"></stop><stop offset="0.01026" stop-color="#DA5B67"></stop><stop offset="1.00000" stop-color="#D52B73"></stop></linearGradient></defs><g transform="matrix(1.00, 0.00, -0.00, -1.00, 0.0, 1080.0)"><path d="M 0.0 1080.0 L 1920.0 1080.0 L 1920.0 0.0 L 0.0 0.0 Z M 0.0 1080.0 " fill="#FEFFFF"></path><text xml:space="preserve" font-family="HurmeGeometricSans4-SemiBold" font-weight="bold" font-size="112.0" fill="#5E5E5E" transform="matrix(1.00, 0.00, -0.00, -1.00, 409.0, 925.0)">I</text><text xml:space="preserve" font-family="HurmeGeometricSans4-SemiBold" font-weight="bold" font-size="112.0" fill="#5E5E5E" transform="matrix(1.00, 0.00, -0.00, -1.00, 441.3, 925.0)">M</text><text xml:space="preserve" font-family="HurmeGeometricSans4-SemiBold" font-weight="bold" font-size="112.0" fill="#5E5E5E" transform="matrix(1.00, 0.00, -0.00, -1.00, 538.4, 925.0)">A</text><text xml:space="preserve" font-family="HurmeGeometricSans4-SemiBold" font-weight="bold" font-size="112.0" fill="#5E5E5E" transform="matrix(1.00, 0.00, -0.00, -1.00, 615.9, 925.0)">G</text><text xml:space="preserve" font-family="HurmeGeometricSans4-SemiBold" font-weight="bold" font-size="112.0" fill="#5E5E5E" transform="matrix(1.00, 0.00, -0.00, -1.00, 699.4, 925.0)">E</text><text xml:space="preserve" font-family="HurmeGeometricSans4-SemiBold" font-weight="bold" font-size="112.0" fill="#5E5E5E" transform="matrix(1.00, 0.00, -0.00, -1.00, 764.2, 925.0)"> </text><text xml:space="preserve" font-family="HurmeGeometricSans4-SemiBold" font-weight="bold" font-size="112.0" fill="#5E5E5E" transform="matrix(1.00, 0.00, -0.00, -1.00, 809.7, 925.0)">P</text><text xml:space="preserve" font-family="HurmeGeometricSans4-SemiBold" font-weight="bold" font-size="112.0" fill="#5E5E5E" transform="matrix(1.00, 0.00, -0.00, -1.00, 877.5, 925.0)">R</text><text xml:space="preserve" font-family="HurmeGeometricSans4-SemiBold" font-weight="bold" font-size="112.0" fill="#5E5E5E" transform="matrix(1.00, 0.00, -0.00, -1.00, 947.8, 925.0)">O</text><text xml:space="preserve" font-family="HurmeGeometricSans4-SemiBold" font-weight="bold" font-size="112.0" fill="#5E5E5E" transform="matrix(1.00, 0.00, -0.00, -1.00, 1039.2, 925.0)">C</text><text xml:space="preserve" font-family="HurmeGeometricSans4-SemiBold" font-weight="bold" font-size="112.0" fill="#5E5E5E" transform="matrix(1.00, 0.00, -0.00, -1.00, 1119.0, 925.0)">E</text><text xml:space="preserve" font-family="HurmeGeometricSans4-SemiBold" font-weight="bold" font-size="112.0" fill="#5E5E5E" transform="matrix(1.00, 0.00, -0.00, -1.00, 1184.2, 925.0)">S</text><text xml:space="preserve" font-family="HurmeGeometricSans4-SemiBold" font-weight="bold" font-size="112.0" fill="#5E5E5E" transform="matrix(1.00, 0.00, -0.00, -1.00, 1247.8, 925.0)">S</text><text xml:space="preserve" font-family="HurmeGeometricSans4-SemiBold" font-weight="bold" font-size="112.0" fill="#5E5E5E" transform="matrix(1.00, 0.00, -0.00, -1.00, 1311.4, 925.0)">I</text><text xml:space="preserve" font-family="HurmeGeometricSans4-SemiBold" font-weight="bold" font-size="112.0" fill="#5E5E5E" transform="matrix(1.00, 0.00, -0.00, -1.00, 1343.6, 925.0)">N</text><text xml:space="preserve" font-family="HurmeGeometricSans4-SemiBold" font-weight="bold" font-size="112.0" fill="#5E5E5E" transform="matrix(1.00, 0.00, -0.00, -1.00, 1428.1, 925.0)">G</text><image xlink:href="../../9CA56402-2BB0-4C02-91E4-E09E9D091E30/assets/7880D4BFF1C1A073608555D7581DBA3B.png" width="586.00" height="386.00" transform="matrix(1.00, 0.00, -0.00, -1.00, 135.9, 653.0)" opacity="0.50"></image><g><clipPath id="clip-558"><path d="M 138.9 651.4 L 602.6 652.0 L 718.5 461.7 L 603.2 272.9 L 139.5 272.0 L 254.4 461.0 L 138.9 651.4 Z M 138.9 651.4 "></path></clipPath><g clip-path="url(#clip-558)"><path d="M 138.9 651.4 L 602.6 652.0 L 718.5 461.7 L 603.2 272.9 L 139.5 272.0 L 254.4 461.0 L 138.9 651.4 Z M 138.9 651.4 " fill="url(#gradSh1.3)"></path></g></g><g><clipPath id="clip-559"><path d="M 138.9 272.0 L 718.5 272.0 L 718.5 652.0 L 138.9 652.0 Z M 138.9 272.0 "></path></clipPath><g clip-path="url(#clip-559)"><text xml:space="preserve" font-family="HurmeGeometricSans4-SemiBold" font-weight="bold" font-size="48.0" fill="#424242" transform="matrix(1.00, 0.00, -0.00, -1.00, 273.0, 459.0)">P</text><text xml:space="preserve" font-family="HurmeGeometricSans4-SemiBold" font-weight="bold" font-size="48.0" fill="#424242" transform="matrix(1.00, 0.00, -0.00, -1.00, 302.0, 459.0)">R</text><text xml:space="preserve" font-family="HurmeGeometricSans4-SemiBold" font-weight="bold" font-size="48.0" fill="#424242" transform="matrix(1.00, 0.00, -0.00, -1.00, 332.6, 459.0)">E</text><text xml:space="preserve" font-family="HurmeGeometricSans4-SemiBold" font-weight="bold" font-size="48.0" fill="#424242" transform="matrix(1.00, 0.00, -0.00, -1.00, 359.4, 459.0)">-</text><text xml:space="preserve" font-family="HurmeGeometricSans4-SemiBold" font-weight="bold" font-size="48.0" fill="#424242" transform="matrix(1.00, 0.00, -0.00, -1.00, 379.3, 459.0)">P</text><text xml:space="preserve" font-family="HurmeGeometricSans4-SemiBold" font-weight="bold" font-size="48.0" fill="#424242" transform="matrix(1.00, 0.00, -0.00, -1.00, 408.4, 459.0)">R</text><text xml:space="preserve" font-family="HurmeGeometricSans4-SemiBold" font-weight="bold" font-size="48.0" fill="#424242" transform="matrix(1.00, 0.00, -0.00, -1.00, 438.5, 459.0)">O</text><text xml:space="preserve" font-family="HurmeGeometricSans4-SemiBold" font-weight="bold" font-size="48.0" fill="#424242" transform="matrix(1.00, 0.00, -0.00, -1.00, 477.7, 459.0)">C</text><text xml:space="preserve" font-family="HurmeGeometricSans4-SemiBold" font-weight="bold" font-size="48.0" fill="#424242" transform="matrix(1.00, 0.00, -0.00, -1.00, 511.8, 459.0)">E</text><text xml:space="preserve" font-family="HurmeGeometricSans4-SemiBold" font-weight="bold" font-size="48.0" fill="#424242" transform="matrix(1.00, 0.00, -0.00, -1.00, 539.8, 459.0)">S</text><text xml:space="preserve" font-family="HurmeGeometricSans4-SemiBold" font-weight="bold" font-size="48.0" fill="#424242" transform="matrix(1.00, 0.00, -0.00, -1.00, 567.0, 459.0)">S</text><text xml:space="preserve" font-family="HurmeGeometricSans4-SemiBold" font-weight="bold" font-size="48.0" fill="#424242" transform="matrix(1.00, 0.00, -0.00, -1.00, 594.3, 459.0)">I</text><text xml:space="preserve" font-family="HurmeGeometricSans4-SemiBold" font-weight="bold" font-size="48.0" fill="#424242" transform="matrix(1.00, 0.00, -0.00, -1.00, 608.1, 459.0)">N</text><text xml:space="preserve" font-family="HurmeGeometricSans4-SemiBold" font-weight="bold" font-size="48.0" fill="#424242" transform="matrix(1.00, 0.00, -0.00, -1.00, 644.3, 459.0)">G</text></g></g><image xlink:href="../../9CA56402-2BB0-4C02-91E4-E09E9D091E30/assets/7880D4BFF1C1A073608555D7581DBA3B.png" width="586.00" height="386.00" transform="matrix(1.00, 0.00, -0.00, -1.00, 668.2, 653.0)" opacity="0.50"></image><g><clipPath id="clip-560"><path d="M 671.2 651.4 L 1134.9 652.0 L 1250.9 461.7 L 1135.5 272.9 L 671.9 272.0 L 786.8 461.0 L 671.2 651.4 Z M 671.2 651.4 "></path></clipPath><g clip-path="url(#clip-560)"><path d="M 671.2 651.4 L 1134.9 652.0 L 1250.9 461.7 L 1135.5 272.9 L 671.9 272.0 L 786.8 461.0 L 671.2 651.4 Z M 671.2 651.4 " fill="url(#gradSh2.4)"></path></g></g><g><clipPath id="clip-561"><path d="M 671.2 272.0 L 1250.9 272.0 L 1250.9 652.0 L 671.2 652.0 Z M 671.2 272.0 "></path></clipPath><g clip-path="url(#clip-561)"><text xml:space="preserve" font-family="HurmeGeometricSans4-SemiBold" font-weight="bold" font-size="48.0" fill="#424242" transform="matrix(1.00, 0.00, -0.00, -1.00, 892.0, 490.0)">F</text><text xml:space="preserve" font-family="HurmeGeometricSans4-SemiBold" font-weight="bold" font-size="48.0" fill="#424242" transform="matrix(1.00, 0.00, -0.00, -1.00, 918.0, 490.0)">E</text><text xml:space="preserve" font-family="HurmeGeometricSans4-SemiBold" font-weight="bold" font-size="48.0" fill="#424242" transform="matrix(1.00, 0.00, -0.00, -1.00, 945.5, 490.0)">A</text><text xml:space="preserve" font-family="HurmeGeometricSans4-SemiBold" font-weight="bold" font-size="48.0" fill="#424242" transform="matrix(1.00, 0.00, -0.00, -1.00, 976.6, 490.0)">T</text><text xml:space="preserve" font-family="HurmeGeometricSans4-SemiBold" font-weight="bold" font-size="48.0" fill="#424242" transform="matrix(1.00, 0.00, -0.00, -1.00, 1002.6, 490.0)">U</text><text xml:space="preserve" font-family="HurmeGeometricSans4-SemiBold" font-weight="bold" font-size="48.0" fill="#424242" transform="matrix(1.00, 0.00, -0.00, -1.00, 1036.6, 490.0)">R</text><text xml:space="preserve" font-family="HurmeGeometricSans4-SemiBold" font-weight="bold" font-size="48.0" fill="#424242" transform="matrix(1.00, 0.00, -0.00, -1.00, 1067.2, 490.0)">E</text><text xml:space="preserve" font-family="HurmeGeometricSans4-SemiBold" font-weight="bold" font-size="48.0" fill="#424242" transform="matrix(1.00, 0.00, -0.00, -1.00, 1094.9, 490.0)"> </text><text xml:space="preserve" font-family="HurmeGeometricSans4-SemiBold" font-weight="bold" font-size="48.0" fill="#424242" transform="matrix(1.00, 0.00, -0.00, -1.00, 856.0, 425.0)">E</text><text xml:space="preserve" font-family="HurmeGeometricSans4-SemiBold" font-weight="bold" font-size="48.0" fill="#424242" transform="matrix(1.00, 0.00, -0.00, -1.00, 883.5, 425.0)">X</text><text xml:space="preserve" font-family="HurmeGeometricSans4-SemiBold" font-weight="bold" font-size="48.0" fill="#424242" transform="matrix(1.00, 0.00, -0.00, -1.00, 914.8, 425.0)">T</text><text xml:space="preserve" font-family="HurmeGeometricSans4-SemiBold" font-weight="bold" font-size="48.0" fill="#424242" transform="matrix(1.00, 0.00, -0.00, -1.00, 940.9, 425.0)">R</text><text xml:space="preserve" font-family="HurmeGeometricSans4-SemiBold" font-weight="bold" font-size="48.0" fill="#424242" transform="matrix(1.00, 0.00, -0.00, -1.00, 970.3, 425.0)">A</text><text xml:space="preserve" font-family="HurmeGeometricSans4-SemiBold" font-weight="bold" font-size="48.0" fill="#424242" transform="matrix(1.00, 0.00, -0.00, -1.00, 1003.5, 425.0)">C</text><text xml:space="preserve" font-family="HurmeGeometricSans4-SemiBold" font-weight="bold" font-size="48.0" fill="#424242" transform="matrix(1.00, 0.00, -0.00, -1.00, 1037.8, 425.0)">T</text><text xml:space="preserve" font-family="HurmeGeometricSans4-SemiBold" font-weight="bold" font-size="48.0" fill="#424242" transform="matrix(1.00, 0.00, -0.00, -1.00, 1063.8, 425.0)">I</text><text xml:space="preserve" font-family="HurmeGeometricSans4-SemiBold" font-weight="bold" font-size="48.0" fill="#424242" transform="matrix(1.00, 0.00, -0.00, -1.00, 1077.7, 425.0)">O</text><text xml:space="preserve" font-family="HurmeGeometricSans4-SemiBold" font-weight="bold" font-size="48.0" fill="#424242" transform="matrix(1.00, 0.00, -0.00, -1.00, 1116.8, 425.0)">N</text></g></g><image xlink:href="../../9CA56402-2BB0-4C02-91E4-E09E9D091E30/assets/7880D4BFF1C1A073608555D7581DBA3B.png" width="586.00" height="386.00" transform="matrix(1.00, 0.00, -0.00, -1.00, 1198.5, 653.0)" opacity="0.50"></image><g><clipPath id="clip-562"><path d="M 1201.5 651.4 L 1665.2 652.0 L 1781.1 461.7 L 1665.8 272.9 L 1202.1 272.0 L 1317.0 461.0 L 1201.5 651.4 Z M 1201.5 651.4 "></path></clipPath><g clip-path="url(#clip-562)"><path d="M 1201.5 651.4 L 1665.2 652.0 L 1781.1 461.7 L 1665.8 272.9 L 1202.1 272.0 L 1317.0 461.0 L 1201.5 651.4 Z M 1201.5 651.4 " fill="url(#gradSh3.5)"></path></g></g><g><clipPath id="clip-563"><path d="M 1201.5 272.0 L 1781.1 272.0 L 1781.1 652.0 L 1201.5 652.0 Z M 1201.5 272.0 "></path></clipPath><g clip-path="url(#clip-563)"><text xml:space="preserve" font-family="HurmeGeometricSans4-SemiBold" font-weight="bold" font-size="48.0" fill="#424242" transform="matrix(1.00, 0.00, -0.00, -1.00, 1348.0, 459.0)">C</text><text xml:space="preserve" font-family="HurmeGeometricSans4-SemiBold" font-weight="bold" font-size="48.0" fill="#424242" transform="matrix(1.00, 0.00, -0.00, -1.00, 1382.2, 459.0)">L</text><text xml:space="preserve" font-family="HurmeGeometricSans4-SemiBold" font-weight="bold" font-size="48.0" fill="#424242" transform="matrix(1.00, 0.00, -0.00, -1.00, 1406.1, 459.0)">A</text><text xml:space="preserve" font-family="HurmeGeometricSans4-SemiBold" font-weight="bold" font-size="48.0" fill="#424242" transform="matrix(1.00, 0.00, -0.00, -1.00, 1440.4, 459.0)">S</text><text xml:space="preserve" font-family="HurmeGeometricSans4-SemiBold" font-weight="bold" font-size="48.0" fill="#424242" transform="matrix(1.00, 0.00, -0.00, -1.00, 1467.7, 459.0)">S</text><text xml:space="preserve" font-family="HurmeGeometricSans4-SemiBold" font-weight="bold" font-size="48.0" fill="#424242" transform="matrix(1.00, 0.00, -0.00, -1.00, 1494.9, 459.0)">I</text><text xml:space="preserve" font-family="HurmeGeometricSans4-SemiBold" font-weight="bold" font-size="48.0" fill="#424242" transform="matrix(1.00, 0.00, -0.00, -1.00, 1508.8, 459.0)">F</text><text xml:space="preserve" font-family="HurmeGeometricSans4-SemiBold" font-weight="bold" font-size="48.0" fill="#424242" transform="matrix(1.00, 0.00, -0.00, -1.00, 1534.8, 459.0)">I</text><text xml:space="preserve" font-family="HurmeGeometricSans4-SemiBold" font-weight="bold" font-size="48.0" fill="#424242" transform="matrix(1.00, 0.00, -0.00, -1.00, 1548.6, 459.0)">C</text><text xml:space="preserve" font-family="HurmeGeometricSans4-SemiBold" font-weight="bold" font-size="48.0" fill="#424242" transform="matrix(1.00, 0.00, -0.00, -1.00, 1582.8, 459.0)">A</text><text xml:space="preserve" font-family="HurmeGeometricSans4-SemiBold" font-weight="bold" font-size="48.0" fill="#424242" transform="matrix(1.00, 0.00, -0.00, -1.00, 1613.8, 459.0)">T</text><text xml:space="preserve" font-family="HurmeGeometricSans4-SemiBold" font-weight="bold" font-size="48.0" fill="#424242" transform="matrix(1.00, 0.00, -0.00, -1.00, 1639.9, 459.0)">I</text><text xml:space="preserve" font-family="HurmeGeometricSans4-SemiBold" font-weight="bold" font-size="48.0" fill="#424242" transform="matrix(1.00, 0.00, -0.00, -1.00, 1653.7, 459.0)">O</text><text xml:space="preserve" font-family="HurmeGeometricSans4-SemiBold" font-weight="bold" font-size="48.0" fill="#424242" transform="matrix(1.00, 0.00, -0.00, -1.00, 1692.9, 459.0)">N</text></g></g></g></svg>