<?xml version="1.0" encoding="UTF-8" standalone="no"?><svg xmlns="http://www.w3.org/2000/svg" xmlns:xlink="http://www.w3.org/1999/xlink" clip-rule="evenodd" stroke-miterlimit="4.00" viewBox="0 0 402 253"><desc>SVG generated by Keynote</desc><defs><linearGradient id="gradSh1.11" x1="0.0" y1="0.0" x2="100.0" y2="0.0" gradientUnits="userSpaceOnUse" gradientTransform="matrix(-4.02, 0.00, 0.00, 2.52, 402.0, 126.1)"><stop offset="0.00000" stop-color="#DA5C67"></stop><stop offset="0.01833" stop-color="#DA5D67"></stop><stop offset="1.00000" stop-color="#DC7859"></stop></linearGradient></defs><g transform="matrix(1.00, 0.00, -0.00, -1.00, 0.0, 253.0)"><g><clipPath id="clip-713"><path d="M 1.0 250.7 L 321.0 251.1 L 401.0 126.0 L 321.4 1.8 L 1.5 1.1 L 80.8 125.5 L 1.0 250.7 Z M 1.0 250.7 "></path></clipPath><g clip-path="url(#clip-713)"><path d="M 1.0 250.7 L 321.0 251.1 L 401.0 126.0 L 321.4 1.8 L 1.5 1.1 L 80.8 125.5 L 1.0 250.7 Z M 1.0 250.7 " fill="url(#gradSh1.11)"></path></g></g><g><clipPath id="clip-714"><path d="M 1.0 1.1 L 401.0 1.1 L 401.0 251.1 L 1.0 251.1 Z M 1.0 1.1 "></path></clipPath><g clip-path="url(#clip-714)"><text xml:space="preserve" font-family="HurmeGeometricSans4-SemiBold" font-weight="bold" font-size="48.0" fill="#424242" transform="matrix(1.00, 0.00, -0.00, -1.00, 146.0, 122.0)">M</text><text xml:space="preserve" font-family="HurmeGeometricSans4-SemiBold" font-weight="bold" font-size="48.0" fill="#424242" transform="matrix(1.00, 0.00, -0.00, -1.00, 187.6, 122.0)">O</text><text xml:space="preserve" font-family="HurmeGeometricSans4-SemiBold" font-weight="bold" font-size="48.0" fill="#424242" transform="matrix(1.00, 0.00, -0.00, -1.00, 226.8, 122.0)">D</text><text xml:space="preserve" font-family="HurmeGeometricSans4-SemiBold" font-weight="bold" font-size="48.0" fill="#424242" transform="matrix(1.00, 0.00, -0.00, -1.00, 262.0, 122.0)">E</text><text xml:space="preserve" font-family="HurmeGeometricSans4-SemiBold" font-weight="bold" font-size="48.0" fill="#424242" transform="matrix(1.00, 0.00, -0.00, -1.00, 289.7, 122.0)">L</text></g></g></g></svg>