<?xml version="1.0" encoding="UTF-8" standalone="no"?><svg xmlns="http://www.w3.org/2000/svg" xmlns:xlink="http://www.w3.org/1999/xlink" clip-rule="evenodd" stroke-miterlimit="4.00" viewBox="0 0 341 497"><desc>SVG generated by Keynote</desc><defs></defs><g transform="matrix(1.00, 0.00, -0.00, -1.00, 0.0, 497.0)"><g><clipPath id="clip-694"><path d="M 0.6 0.5 L 340.6 0.5 L 340.6 496.5 L 0.6 496.5 Z M 0.6 0.5 "></path></clipPath><g clip-path="url(#clip-694)"><image xlink:href="C4F8953ED2E4B8A43A8ED5DE68775853.png" width="340.00" height="496.00" transform="matrix(1.00, 0.00, -0.00, -1.00, 0.6, 496.5)"></image></g></g><g><clipPath id="clip-695"><path d="M 46.0 374.0 L 296.0 374.0 L 296.0 124.0 L 46.0 124.0 Z M 45.6 374.2 "></path></clipPath><g clip-path="url(#clip-695)"><g><clipPath id="clip-696"><path d="M 0.6 0.5 L 340.6 0.5 L 340.6 496.5 L 0.6 496.5 Z M 0.6 0.5 "></path></clipPath><g clip-path="url(#clip-696)"><image xlink:href="../../389E36ED-F7CF-4E89-AF32-ECC49FB10071/assets/3C7F4012EC65B624D45185E742F17910.png" width="189.00" height="768.00" transform="matrix(1.32, 0.00, -0.00, -0.33, 46.0, 374.0)"></image></g></g></g></g><g><clipPath id="clip-697"><path d="M 0.6 0.5 L 340.6 0.5 L 340.6 496.5 L 0.6 496.5 Z M 0.6 0.5 "></path></clipPath><g clip-path="url(#clip-697)"><path d="M 0.0 0.0 L 0.0 250.0 L 250.0 250.0 L 250.0 0.0 L 0.0 0.0 Z M 0.0 0.0 " fill="none" stroke="#D42B73" stroke-width="10.00" transform="matrix(1.00, 0.00, 0.00, -1.00, 45.6, 374.2)"></path></g></g><g><clipPath id="clip-698"><path d="M 117.2 145.0 L 223.9 145.0 L 223.9 328.4 L 117.2 328.4 Z M 117.2 145.0 "></path></clipPath><g clip-path="url(#clip-698)"><text xml:space="preserve" font-family="HurmeGeometricSans4-SemiBold" font-weight="bold" font-size="80.0" fill="#424242" transform="matrix(1.00, 0.00, -0.00, -1.00, 157.0, 216.0)">1</text></g></g></g></svg>