<?xml version="1.0" encoding="UTF-8" standalone="no"?><svg xmlns="http://www.w3.org/2000/svg" xmlns:xlink="http://www.w3.org/1999/xlink" clip-rule="evenodd" stroke-miterlimit="4.00" viewBox="0 0 263 39"><desc>SVG generated by Keynote</desc><defs></defs><g transform="matrix(1.00, 0.00, -0.00, -1.00, 0.0, 39.0)"><text xml:space="preserve" font-family="HurmeGeometricSans4-SemiBold" font-weight="bold" font-size="48.0" fill="#424242" transform="matrix(1.00, 0.00, -0.00, -1.00, 1.0, 2.0)">T</text><text xml:space="preserve" font-family="HurmeGeometricSans4-SemiBold" font-weight="bold" font-size="48.0" fill="#424242" transform="matrix(1.00, 0.00, -0.00, -1.00, 27.1, 2.0)">R</text><text xml:space="preserve" font-family="HurmeGeometricSans4-SemiBold" font-weight="bold" font-size="48.0" fill="#424242" transform="matrix(1.00, 0.00, -0.00, -1.00, 56.4, 2.0)">A</text><text xml:space="preserve" font-family="HurmeGeometricSans4-SemiBold" font-weight="bold" font-size="48.0" fill="#424242" transform="matrix(1.00, 0.00, -0.00, -1.00, 91.7, 2.0)">I</text><text xml:space="preserve" font-family="HurmeGeometricSans4-SemiBold" font-weight="bold" font-size="48.0" fill="#424242" transform="matrix(1.00, 0.00, -0.00, -1.00, 105.5, 2.0)">N</text><text xml:space="preserve" font-family="HurmeGeometricSans4-SemiBold" font-weight="bold" font-size="48.0" fill="#424242" transform="matrix(1.00, 0.00, -0.00, -1.00, 141.7, 2.0)">N</text><text xml:space="preserve" font-family="HurmeGeometricSans4-SemiBold" font-weight="bold" font-size="48.0" fill="#424242" transform="matrix(1.00, 0.00, -0.00, -1.00, 177.9, 2.0)">I</text><text xml:space="preserve" font-family="HurmeGeometricSans4-SemiBold" font-weight="bold" font-size="48.0" fill="#424242" transform="matrix(1.00, 0.00, -0.00, -1.00, 191.7, 2.0)">N</text><text xml:space="preserve" font-family="HurmeGeometricSans4-SemiBold" font-weight="bold" font-size="48.0" fill="#424242" transform="matrix(1.00, 0.00, -0.00, -1.00, 227.9, 2.0)">G</text></g></svg>