<?xml version="1.0" encoding="UTF-8" standalone="no"?><svg xmlns="http://www.w3.org/2000/svg" xmlns:xlink="http://www.w3.org/1999/xlink" clip-rule="evenodd" stroke-miterlimit="10" viewBox="0 0 1600 203"><desc>SVG generated by Keynote</desc><defs></defs><g transform="matrix(1.00, 0.00, -0.00, -1.00, 0.0, 203.0)"><image xlink:href="BBD86FEDFA4BB2762014447B61CE2F27.png" width="1619.00" height="277.00" transform="matrix(1.00, 0.00, -0.00, -1.00, -14.2, 240.6)"></image><text xml:space="preserve" font-family="Helvetica-Light,Helvetica" font-size="96.0" fill="#FEFFFF" transform="matrix(1.00, 0.00, -0.00, -1.00, 30.3, 67.4)">1</text><text xml:space="preserve" font-family="Helvetica-Light,Helvetica" font-size="96.0" fill="#FEFFFF" transform="matrix(1.00, 0.00, -0.00, -1.00, 83.7, 67.4)">5</text><text xml:space="preserve" font-family="Helvetica-Light,Helvetica" font-size="96.0" fill="#FEFFFF" transform="matrix(1.00, 0.00, -0.00, -1.00, 137.1, 67.4)"> </text><text xml:space="preserve" font-family="Helvetica-Light,Helvetica" font-size="96.0" fill="#FEFFFF" transform="matrix(1.00, 0.00, -0.00, -1.00, 163.8, 67.4)">F</text><text xml:space="preserve" font-family="Helvetica-Light,Helvetica" font-size="96.0" fill="#FEFFFF" transform="matrix(1.00, 0.00, -0.00, -1.00, 217.1, 67.4)">o</text><text xml:space="preserve" font-family="Helvetica-Light,Helvetica" font-size="96.0" fill="#FEFFFF" transform="matrix(1.00, 0.00, -0.00, -1.00, 270.5, 67.4)">r</text><text xml:space="preserve" font-family="Helvetica-Light,Helvetica" font-size="96.0" fill="#FEFFFF" transform="matrix(1.00, 0.00, -0.00, -1.00, 302.5, 67.4)">w</text><text xml:space="preserve" font-family="Helvetica-Light,Helvetica" font-size="96.0" fill="#FEFFFF" transform="matrix(1.00, 0.00, -0.00, -1.00, 371.8, 67.4)">a</text><text xml:space="preserve" font-family="Helvetica-Light,Helvetica" font-size="96.0" fill="#FEFFFF" transform="matrix(1.00, 0.00, -0.00, -1.00, 425.2, 67.4)">r</text><text xml:space="preserve" font-family="Helvetica-Light,Helvetica" font-size="96.0" fill="#FEFFFF" transform="matrix(1.00, 0.00, -0.00, -1.00, 455.4, 67.4)">d</text><text xml:space="preserve" font-family="Helvetica-Light,Helvetica" font-size="96.0" fill="#FEFFFF" transform="matrix(1.00, 0.00, -0.00, -1.00, 514.1, 67.4)"> </text><text xml:space="preserve" font-family="Helvetica-Light,Helvetica" font-size="96.0" fill="#FEFFFF" transform="matrix(1.00, 0.00, -0.00, -1.00, 540.7, 67.4)">E</text><text xml:space="preserve" font-family="Helvetica-Light,Helvetica" font-size="96.0" fill="#FEFFFF" transform="matrix(1.00, 0.00, -0.00, -1.00, 599.4, 67.4)">m</text><text xml:space="preserve" font-family="Helvetica-Light,Helvetica" font-size="96.0" fill="#FEFFFF" transform="matrix(1.00, 0.00, -0.00, -1.00, 679.4, 67.4)">a</text><text xml:space="preserve" font-family="Helvetica-Light,Helvetica" font-size="96.0" fill="#FEFFFF" transform="matrix(1.00, 0.00, -0.00, -1.00, 732.7, 67.4)">i</text><text xml:space="preserve" font-family="Helvetica-Light,Helvetica" font-size="96.0" fill="#FEFFFF" transform="matrix(1.00, 0.00, -0.00, -1.00, 754.1, 67.4)">l</text><text xml:space="preserve" font-family="Helvetica-Light,Helvetica" font-size="96.0" fill="#FEFFFF" transform="matrix(1.00, 0.00, -0.00, -1.00, 775.4, 67.4)"> </text><text xml:space="preserve" font-family="Helvetica-Light,Helvetica" font-size="96.0" fill="#FEFFFF" transform="matrix(1.00, 0.00, -0.00, -1.00, 802.1, 67.4)">T</text><text xml:space="preserve" font-family="Helvetica-Light,Helvetica" font-size="96.0" fill="#FEFFFF" transform="matrix(1.00, 0.00, -0.00, -1.00, 844.8, 67.4)">o</text><text xml:space="preserve" font-family="Helvetica-Light,Helvetica" font-size="96.0" fill="#FEFFFF" transform="matrix(1.00, 0.00, -0.00, -1.00, 898.2, 67.4)"> </text><text xml:space="preserve" font-family="Helvetica-Light,Helvetica" font-size="96.0" fill="#FEFFFF" transform="matrix(1.00, 0.00, -0.00, -1.00, 924.8, 67.4)">O</text><text xml:space="preserve" font-family="Helvetica-Light,Helvetica" font-size="96.0" fill="#FEFFFF" transform="matrix(1.00, 0.00, -0.00, -1.00, 999.5, 67.4)">t</text><text xml:space="preserve" font-family="Helvetica-Light,Helvetica" font-size="96.0" fill="#FEFFFF" transform="matrix(1.00, 0.00, -0.00, -1.00, 1026.2, 67.4)">h</text><text xml:space="preserve" font-family="Helvetica-Light,Helvetica" font-size="96.0" fill="#FEFFFF" transform="matrix(1.00, 0.00, -0.00, -1.00, 1079.6, 67.4)">e</text><text xml:space="preserve" font-family="Helvetica-Light,Helvetica" font-size="96.0" fill="#FEFFFF" transform="matrix(1.00, 0.00, -0.00, -1.00, 1133.0, 67.4)">r</text><text xml:space="preserve" font-family="Helvetica-Light,Helvetica" font-size="96.0" fill="#FEFFFF" transform="matrix(1.00, 0.00, -0.00, -1.00, 1164.9, 67.4)"> </text><text xml:space="preserve" font-family="Helvetica-Light,Helvetica" font-size="96.0" fill="#FEFFFF" transform="matrix(1.00, 0.00, -0.00, -1.00, 1191.6, 67.4)">M</text><text xml:space="preserve" font-family="Helvetica-Light,Helvetica" font-size="96.0" fill="#FEFFFF" transform="matrix(1.00, 0.00, -0.00, -1.00, 1271.6, 67.4)">a</text><text xml:space="preserve" font-family="Helvetica-Light,Helvetica" font-size="96.0" fill="#FEFFFF" transform="matrix(1.00, 0.00, -0.00, -1.00, 1325.0, 67.4)">i</text><text xml:space="preserve" font-family="Helvetica-Light,Helvetica" font-size="96.0" fill="#FEFFFF" transform="matrix(1.00, 0.00, -0.00, -1.00, 1346.3, 67.4)">l</text><text xml:space="preserve" font-family="Helvetica-Light,Helvetica" font-size="96.0" fill="#FEFFFF" transform="matrix(1.00, 0.00, -0.00, -1.00, 1367.6, 67.4)"> </text><text xml:space="preserve" font-family="Helvetica-Light,Helvetica" font-size="96.0" fill="#FEFFFF" transform="matrix(1.00, 0.00, -0.00, -1.00, 1394.3, 67.4)">B</text><text xml:space="preserve" font-family="Helvetica-Light,Helvetica" font-size="96.0" fill="#FEFFFF" transform="matrix(1.00, 0.00, -0.00, -1.00, 1458.3, 67.4)">o</text><text xml:space="preserve" font-family="Helvetica-Light,Helvetica" font-size="96.0" fill="#FEFFFF" transform="matrix(1.00, 0.00, -0.00, -1.00, 1511.7, 67.4)">x</text></g></svg>