<?xml version="1.0" encoding="UTF-8" standalone="no"?><svg xmlns="http://www.w3.org/2000/svg" xmlns:xlink="http://www.w3.org/1999/xlink" clip-rule="evenodd" stroke-miterlimit="10" viewBox="0 0 1920 1080"><desc>SVG generated by Keynote</desc><defs></defs><g transform="matrix(1.00, 0.00, -0.00, -1.00, 0.0, 1080.0)"><g><clipPath id="clip0x7fbe63742630"><path d="M 0.0 1080.0 L 1920.0 1080.0 L 1920.0 0.0 L 0.0 0.0 Z M 0.0 1080.0 "></path></clipPath><g clip-path="url(#clip0x7fbe63742630)"><image xlink:href="6CC7A982D07E74CE512ACEB245D04CE0.png" width="4000.00" height="2672.00" transform="matrix(0.48, 0.00, -0.00, -0.48, 0.0, 1181.3)"></image></g></g><image xlink:href="B85FAF79B140E3A2A324C0EE2EF432DD.png" width="1957.00" height="666.00" transform="matrix(1.00, 0.00, -0.00, -1.00, -18.3, 872.1)"></image><text xml:space="preserve" font-family="Helvetica-Light,Helvetica" font-size="256.0" fill="#FEFFFF" transform="matrix(1.00, 0.00, -0.00, -1.00, 274.6, 444.9)">F</text><text xml:space="preserve" font-family="Helvetica-Light,Helvetica" font-size="256.0" fill="#FEFFFF" transform="matrix(1.00, 0.00, -0.00, -1.00, 416.9, 444.9)">u</text><text xml:space="preserve" font-family="Helvetica-Light,Helvetica" font-size="256.0" fill="#FEFFFF" transform="matrix(1.00, 0.00, -0.00, -1.00, 559.2, 444.9)">t</text><text xml:space="preserve" font-family="Helvetica-Light,Helvetica" font-size="256.0" fill="#FEFFFF" transform="matrix(1.00, 0.00, -0.00, -1.00, 630.4, 444.9)">u</text><text xml:space="preserve" font-family="Helvetica-Light,Helvetica" font-size="256.0" fill="#FEFFFF" transform="matrix(1.00, 0.00, -0.00, -1.00, 772.7, 444.9)">r</text><text xml:space="preserve" font-family="Helvetica-Light,Helvetica" font-size="256.0" fill="#FEFFFF" transform="matrix(1.00, 0.00, -0.00, -1.00, 853.4, 444.9)">e</text><text xml:space="preserve" font-family="Helvetica-Light,Helvetica" font-size="256.0" fill="#FEFFFF" transform="matrix(1.00, 0.00, -0.00, -1.00, 995.7, 444.9)"> </text><text xml:space="preserve" font-family="Helvetica-Light,Helvetica" font-size="256.0" fill="#FEFFFF" transform="matrix(1.00, 0.00, -0.00, -1.00, 1066.9, 444.9)">W</text><text xml:space="preserve" font-family="Helvetica-Light,Helvetica" font-size="256.0" fill="#FEFFFF" transform="matrix(1.00, 0.00, -0.00, -1.00, 1289.9, 444.9)">o</text><text xml:space="preserve" font-family="Helvetica-Light,Helvetica" font-size="256.0" fill="#FEFFFF" transform="matrix(1.00, 0.00, -0.00, -1.00, 1432.2, 444.9)">r</text><text xml:space="preserve" font-family="Helvetica-Light,Helvetica" font-size="256.0" fill="#FEFFFF" transform="matrix(1.00, 0.00, -0.00, -1.00, 1517.4, 444.9)">k</text><text xml:space="preserve" font-family="Helvetica-Light,Helvetica" font-size="36.0" fill="#FEFFFF" transform="matrix(1.00, 0.00, -0.00, -1.00, 1794.9, 11.7)">©</text><text xml:space="preserve" font-family="Helvetica-Light,Helvetica" font-size="36.0" fill="#FEFFFF" transform="matrix(1.00, 0.00, -0.00, -1.00, 1823.7, 11.7)">F</text><text xml:space="preserve" font-family="Helvetica-Light,Helvetica" font-size="36.0" fill="#FEFFFF" transform="matrix(1.00, 0.00, -0.00, -1.00, 1843.7, 11.7)">l</text><text xml:space="preserve" font-family="Helvetica-Light,Helvetica" font-size="36.0" fill="#FEFFFF" transform="matrix(1.00, 0.00, -0.00, -1.00, 1851.7, 11.7)">i</text><text xml:space="preserve" font-family="Helvetica-Light,Helvetica" font-size="36.0" fill="#FEFFFF" transform="matrix(1.00, 0.00, -0.00, -1.00, 1859.7, 11.7)">c</text><text xml:space="preserve" font-family="Helvetica-Light,Helvetica" font-size="36.0" fill="#FEFFFF" transform="matrix(1.00, 0.00, -0.00, -1.00, 1879.7, 11.7)">k</text><text xml:space="preserve" font-family="Helvetica-Light,Helvetica" font-size="36.0" fill="#FEFFFF" transform="matrix(1.00, 0.00, -0.00, -1.00, 1897.7, 11.7)">r</text></g></svg>