<?xml version="1.0" encoding="UTF-8" standalone="no"?><svg xmlns="http://www.w3.org/2000/svg" xmlns:xlink="http://www.w3.org/1999/xlink" clip-rule="evenodd" stroke-miterlimit="10" viewBox="0 0 422 308"><desc>SVG generated by Keynote</desc><defs></defs><g transform="matrix(1.00, 0.00, -0.00, -1.00, 0.0, 308.0)"><image xlink:href="0AF9303F38B85DAF73B52F8BB732110D.png" width="454.00" height="368.00" transform="matrix(1.00, 0.00, -0.00, -1.00, -18.2, 339.2)"></image><text xml:space="preserve" font-family="Helvetica-Light,Helvetica" font-size="72.0" fill="#FEFFFF" transform="matrix(1.00, 0.00, -0.00, -1.00, 36.3, 172.4)">N</text><text xml:space="preserve" font-family="Helvetica-Light,Helvetica" font-size="72.0" fill="#FEFFFF" transform="matrix(1.00, 0.00, -0.00, -1.00, 88.3, 172.4)">o</text><text xml:space="preserve" font-family="Helvetica-Light,Helvetica" font-size="72.0" fill="#FEFFFF" transform="matrix(1.00, 0.00, -0.00, -1.00, 128.3, 172.4)">t</text><text xml:space="preserve" font-family="Helvetica-Light,Helvetica" font-size="72.0" fill="#FEFFFF" transform="matrix(1.00, 0.00, -0.00, -1.00, 148.3, 172.4)"> </text><text xml:space="preserve" font-family="Helvetica-Light,Helvetica" font-size="72.0" fill="#FEFFFF" transform="matrix(1.00, 0.00, -0.00, -1.00, 168.3, 172.4)">B</text><text xml:space="preserve" font-family="Helvetica-Light,Helvetica" font-size="72.0" fill="#FEFFFF" transform="matrix(1.00, 0.00, -0.00, -1.00, 216.4, 172.4)">o</text><text xml:space="preserve" font-family="Helvetica-Light,Helvetica" font-size="72.0" fill="#FEFFFF" transform="matrix(1.00, 0.00, -0.00, -1.00, 256.4, 172.4)">r</text><text xml:space="preserve" font-family="Helvetica-Light,Helvetica" font-size="72.0" fill="#FEFFFF" transform="matrix(1.00, 0.00, -0.00, -1.00, 280.4, 172.4)">i</text><text xml:space="preserve" font-family="Helvetica-Light,Helvetica" font-size="72.0" fill="#FEFFFF" transform="matrix(1.00, 0.00, -0.00, -1.00, 296.4, 172.4)">n</text><text xml:space="preserve" font-family="Helvetica-Light,Helvetica" font-size="72.0" fill="#FEFFFF" transform="matrix(1.00, 0.00, -0.00, -1.00, 336.4, 172.4)">g</text><text xml:space="preserve" font-family="Helvetica-Light,Helvetica" font-size="72.0" fill="#FEFFFF" transform="matrix(1.00, 0.00, -0.00, -1.00, 380.4, 172.4)"> </text><text xml:space="preserve" font-family="Helvetica-Light,Helvetica" font-size="72.0" fill="#FEFFFF" transform="matrix(1.00, 0.00, -0.00, -1.00, 136.3, 86.4)">3</text><text xml:space="preserve" font-family="Helvetica-Light,Helvetica" font-size="72.0" fill="#FEFFFF" transform="matrix(1.00, 0.00, -0.00, -1.00, 176.3, 86.4)">6</text><text xml:space="preserve" font-family="Helvetica-Light,Helvetica" font-size="72.0" fill="#FEFFFF" transform="matrix(1.00, 0.00, -0.00, -1.00, 216.4, 86.4)">%</text></g></svg>