<?xml version="1.0" encoding="UTF-8" standalone="no"?><svg xmlns="http://www.w3.org/2000/svg" xmlns:xlink="http://www.w3.org/1999/xlink" clip-rule="evenodd" stroke-miterlimit="10" viewBox="0 0 1524 203"><desc>SVG generated by Keynote</desc><defs></defs><g transform="matrix(1.00, 0.00, -0.00, -1.00, 0.0, 203.0)"><image xlink:href="08770A9AA23A11D2172D18A7C6263691.png" width="1535.00" height="277.00" transform="matrix(1.00, 0.00, -0.00, -1.00, -7.4, 240.6)"></image><text xml:space="preserve" font-family="Helvetica-Light,Helvetica" font-size="96.0" fill="#FEFFFF" transform="matrix(1.00, 0.00, -0.00, -1.00, 37.1, 67.4)">2</text><text xml:space="preserve" font-family="Helvetica-Light,Helvetica" font-size="96.0" fill="#FEFFFF" transform="matrix(1.00, 0.00, -0.00, -1.00, 90.5, 67.4)">6</text><text xml:space="preserve" font-family="Helvetica-Light,Helvetica" font-size="96.0" fill="#FEFFFF" transform="matrix(1.00, 0.00, -0.00, -1.00, 143.9, 67.4)"> </text><text xml:space="preserve" font-family="Helvetica-Light,Helvetica" font-size="96.0" fill="#FEFFFF" transform="matrix(1.00, 0.00, -0.00, -1.00, 170.6, 67.4)">S</text><text xml:space="preserve" font-family="Helvetica-Light,Helvetica" font-size="96.0" fill="#FEFFFF" transform="matrix(1.00, 0.00, -0.00, -1.00, 229.2, 67.4)">e</text><text xml:space="preserve" font-family="Helvetica-Light,Helvetica" font-size="96.0" fill="#FEFFFF" transform="matrix(1.00, 0.00, -0.00, -1.00, 282.6, 67.4)">l</text><text xml:space="preserve" font-family="Helvetica-Light,Helvetica" font-size="96.0" fill="#FEFFFF" transform="matrix(1.00, 0.00, -0.00, -1.00, 303.9, 67.4)">d</text><text xml:space="preserve" font-family="Helvetica-Light,Helvetica" font-size="96.0" fill="#FEFFFF" transform="matrix(1.00, 0.00, -0.00, -1.00, 362.6, 67.4)">o</text><text xml:space="preserve" font-family="Helvetica-Light,Helvetica" font-size="96.0" fill="#FEFFFF" transform="matrix(1.00, 0.00, -0.00, -1.00, 415.9, 67.4)">m</text><text xml:space="preserve" font-family="Helvetica-Light,Helvetica" font-size="96.0" fill="#FEFFFF" transform="matrix(1.00, 0.00, -0.00, -1.00, 495.9, 67.4)"> </text><text xml:space="preserve" font-family="Helvetica-Light,Helvetica" font-size="96.0" fill="#FEFFFF" transform="matrix(1.00, 0.00, -0.00, -1.00, 522.6, 67.4)">R</text><text xml:space="preserve" font-family="Helvetica-Light,Helvetica" font-size="96.0" fill="#FEFFFF" transform="matrix(1.00, 0.00, -0.00, -1.00, 586.6, 67.4)">e</text><text xml:space="preserve" font-family="Helvetica-Light,Helvetica" font-size="96.0" fill="#FEFFFF" transform="matrix(1.00, 0.00, -0.00, -1.00, 640.0, 67.4)">a</text><text xml:space="preserve" font-family="Helvetica-Light,Helvetica" font-size="96.0" fill="#FEFFFF" transform="matrix(1.00, 0.00, -0.00, -1.00, 693.4, 67.4)">d</text><text xml:space="preserve" font-family="Helvetica-Light,Helvetica" font-size="96.0" fill="#FEFFFF" transform="matrix(1.00, 0.00, -0.00, -1.00, 752.0, 67.4)"> </text><text xml:space="preserve" font-family="Helvetica-Light,Helvetica" font-size="96.0" fill="#FEFFFF" transform="matrix(1.00, 0.00, -0.00, -1.00, 778.7, 67.4)">N</text><text xml:space="preserve" font-family="Helvetica-Light,Helvetica" font-size="96.0" fill="#FEFFFF" transform="matrix(1.00, 0.00, -0.00, -1.00, 848.0, 67.4)">e</text><text xml:space="preserve" font-family="Helvetica-Light,Helvetica" font-size="96.0" fill="#FEFFFF" transform="matrix(1.00, 0.00, -0.00, -1.00, 901.4, 67.4)">w</text><text xml:space="preserve" font-family="Helvetica-Light,Helvetica" font-size="96.0" fill="#FEFFFF" transform="matrix(1.00, 0.00, -0.00, -1.00, 970.7, 67.4)">s</text><text xml:space="preserve" font-family="Helvetica-Light,Helvetica" font-size="96.0" fill="#FEFFFF" transform="matrix(1.00, 0.00, -0.00, -1.00, 1018.7, 67.4)"> </text><text xml:space="preserve" font-family="Helvetica-Light,Helvetica" font-size="96.0" fill="#FEFFFF" transform="matrix(1.00, 0.00, -0.00, -1.00, 1045.4, 67.4)">A</text><text xml:space="preserve" font-family="Helvetica-Light,Helvetica" font-size="96.0" fill="#FEFFFF" transform="matrix(1.00, 0.00, -0.00, -1.00, 1109.4, 67.4)">b</text><text xml:space="preserve" font-family="Helvetica-Light,Helvetica" font-size="96.0" fill="#FEFFFF" transform="matrix(1.00, 0.00, -0.00, -1.00, 1168.1, 67.4)">o</text><text xml:space="preserve" font-family="Helvetica-Light,Helvetica" font-size="96.0" fill="#FEFFFF" transform="matrix(1.00, 0.00, -0.00, -1.00, 1221.5, 67.4)">u</text><text xml:space="preserve" font-family="Helvetica-Light,Helvetica" font-size="96.0" fill="#FEFFFF" transform="matrix(1.00, 0.00, -0.00, -1.00, 1274.8, 67.4)">t</text><text xml:space="preserve" font-family="Helvetica-Light,Helvetica" font-size="96.0" fill="#FEFFFF" transform="matrix(1.00, 0.00, -0.00, -1.00, 1301.5, 67.4)"> </text><text xml:space="preserve" font-family="Helvetica-Light,Helvetica" font-size="96.0" fill="#FEFFFF" transform="matrix(1.00, 0.00, -0.00, -1.00, 1328.2, 67.4)">U</text><text xml:space="preserve" font-family="Helvetica-Light,Helvetica" font-size="96.0" fill="#FEFFFF" transform="matrix(1.00, 0.00, -0.00, -1.00, 1397.5, 67.4)">W</text></g></svg>