<?xml version="1.0" encoding="UTF-8" standalone="no"?><svg xmlns="http://www.w3.org/2000/svg" xmlns:xlink="http://www.w3.org/1999/xlink" clip-rule="evenodd" stroke-miterlimit="4.00" viewBox="0 0 1920 1080"><desc>SVG generated by Keynote</desc><defs></defs><g transform="matrix(1.00, 0.00, -0.00, -1.00, 0.0, 1080.0)"><path d="M 0.0 1080.0 L 1920.0 1080.0 L 1920.0 0.0 L 0.0 0.0 Z M 0.0 1080.0 " fill="#FEFFFF"></path><text xml:space="preserve" font-family="HurmeGeometricSans4-SemiBold" font-weight="bold" font-size="112.0" fill="#5E5E5E" transform="matrix(1.00, 0.00, -0.00, -1.00, 515.0, 925.0)">C</text><text xml:space="preserve" font-family="HurmeGeometricSans4-SemiBold" font-weight="bold" font-size="112.0" fill="#5E5E5E" transform="matrix(1.00, 0.00, -0.00, -1.00, 594.7, 925.0)">L</text><text xml:space="preserve" font-family="HurmeGeometricSans4-SemiBold" font-weight="bold" font-size="112.0" fill="#5E5E5E" transform="matrix(1.00, 0.00, -0.00, -1.00, 650.6, 925.0)">A</text><text xml:space="preserve" font-family="HurmeGeometricSans4-SemiBold" font-weight="bold" font-size="112.0" fill="#5E5E5E" transform="matrix(1.00, 0.00, -0.00, -1.00, 730.6, 925.0)">S</text><text xml:space="preserve" font-family="HurmeGeometricSans4-SemiBold" font-weight="bold" font-size="112.0" fill="#5E5E5E" transform="matrix(1.00, 0.00, -0.00, -1.00, 794.2, 925.0)">S</text><text xml:space="preserve" font-family="HurmeGeometricSans4-SemiBold" font-weight="bold" font-size="112.0" fill="#5E5E5E" transform="matrix(1.00, 0.00, -0.00, -1.00, 857.8, 925.0)">I</text><text xml:space="preserve" font-family="HurmeGeometricSans4-SemiBold" font-weight="bold" font-size="112.0" fill="#5E5E5E" transform="matrix(1.00, 0.00, -0.00, -1.00, 890.1, 925.0)">F</text><text xml:space="preserve" font-family="HurmeGeometricSans4-SemiBold" font-weight="bold" font-size="112.0" fill="#5E5E5E" transform="matrix(1.00, 0.00, -0.00, -1.00, 950.8, 925.0)">I</text><text xml:space="preserve" font-family="HurmeGeometricSans4-SemiBold" font-weight="bold" font-size="112.0" fill="#5E5E5E" transform="matrix(1.00, 0.00, -0.00, -1.00, 983.0, 925.0)">C</text><text xml:space="preserve" font-family="HurmeGeometricSans4-SemiBold" font-weight="bold" font-size="112.0" fill="#5E5E5E" transform="matrix(1.00, 0.00, -0.00, -1.00, 1062.8, 925.0)">A</text><text xml:space="preserve" font-family="HurmeGeometricSans4-SemiBold" font-weight="bold" font-size="112.0" fill="#5E5E5E" transform="matrix(1.00, 0.00, -0.00, -1.00, 1135.3, 925.0)">T</text><text xml:space="preserve" font-family="HurmeGeometricSans4-SemiBold" font-weight="bold" font-size="112.0" fill="#5E5E5E" transform="matrix(1.00, 0.00, -0.00, -1.00, 1196.1, 925.0)">I</text><text xml:space="preserve" font-family="HurmeGeometricSans4-SemiBold" font-weight="bold" font-size="112.0" fill="#5E5E5E" transform="matrix(1.00, 0.00, -0.00, -1.00, 1228.3, 925.0)">O</text><text xml:space="preserve" font-family="HurmeGeometricSans4-SemiBold" font-weight="bold" font-size="112.0" fill="#5E5E5E" transform="matrix(1.00, 0.00, -0.00, -1.00, 1319.7, 925.0)">N</text><text xml:space="preserve" font-family="HurmeGeometricSans4-Bold" font-weight="bold" font-size="96.0" fill="#5E5E5E" transform="matrix(1.00, 0.00, -0.00, -1.00, 382.0, 514.0)">S</text><text xml:space="preserve" font-family="HurmeGeometricSans4-Bold" font-weight="bold" font-size="96.0" fill="#5E5E5E" transform="matrix(1.00, 0.00, -0.00, -1.00, 433.8, 514.0)">V</text><text xml:space="preserve" font-family="HurmeGeometricSans4-Bold" font-weight="bold" font-size="96.0" fill="#5E5E5E" transform="matrix(1.00, 0.00, -0.00, -1.00, 504.6, 514.0)">M</text><text xml:space="preserve" font-family="HurmeGeometricSans4-Bold" font-weight="bold" font-size="96.0" fill="#5E5E5E" transform="matrix(1.00, 0.00, -0.00, -1.00, 588.3, 514.0)"> </text><text xml:space="preserve" font-family="HurmeGeometricSans4-Bold" font-weight="bold" font-size="96.0" fill="#5E5E5E" transform="matrix(1.00, 0.00, -0.00, -1.00, 634.5, 514.0)">/</text><text xml:space="preserve" font-family="HurmeGeometricSans4-Bold" font-weight="bold" font-size="96.0" fill="#5E5E5E" transform="matrix(1.00, 0.00, -0.00, -1.00, 676.8, 514.0)"> </text><text xml:space="preserve" font-family="HurmeGeometricSans4-Bold" font-weight="bold" font-size="96.0" fill="#5E5E5E" transform="matrix(1.00, 0.00, -0.00, -1.00, 715.6, 514.0)">K</text><text xml:space="preserve" font-family="HurmeGeometricSans4-Bold" font-weight="bold" font-size="96.0" fill="#5E5E5E" transform="matrix(1.00, 0.00, -0.00, -1.00, 776.1, 514.0)">-</text><text xml:space="preserve" font-family="HurmeGeometricSans4-Bold" font-weight="bold" font-size="96.0" fill="#5E5E5E" transform="matrix(1.00, 0.00, -0.00, -1.00, 817.9, 514.0)">M</text><text xml:space="preserve" font-family="HurmeGeometricSans4-Bold" font-weight="bold" font-size="96.0" fill="#5E5E5E" transform="matrix(1.00, 0.00, -0.00, -1.00, 901.6, 514.0)">E</text><text xml:space="preserve" font-family="HurmeGeometricSans4-Bold" font-weight="bold" font-size="96.0" fill="#5E5E5E" transform="matrix(1.00, 0.00, -0.00, -1.00, 958.5, 514.0)">A</text><text xml:space="preserve" font-family="HurmeGeometricSans4-Bold" font-weight="bold" font-size="96.0" fill="#5E5E5E" transform="matrix(1.00, 0.00, -0.00, -1.00, 1029.8, 514.0)">N</text><text xml:space="preserve" font-family="HurmeGeometricSans4-Bold" font-weight="bold" font-size="96.0" fill="#5E5E5E" transform="matrix(1.00, 0.00, -0.00, -1.00, 1102.4, 514.0)"> </text><text xml:space="preserve" font-family="HurmeGeometricSans4-Bold" font-weight="bold" font-size="96.0" fill="#5E5E5E" transform="matrix(1.00, 0.00, -0.00, -1.00, 1148.6, 514.0)">/</text><text xml:space="preserve" font-family="HurmeGeometricSans4-Bold" font-weight="bold" font-size="96.0" fill="#5E5E5E" transform="matrix(1.00, 0.00, -0.00, -1.00, 1190.9, 514.0)"> </text><text xml:space="preserve" font-family="HurmeGeometricSans4-Bold" font-weight="bold" font-size="96.0" fill="#5E5E5E" transform="matrix(1.00, 0.00, -0.00, -1.00, 1229.7, 514.0)">F</text><text xml:space="preserve" font-family="HurmeGeometricSans4-Bold" font-weight="bold" font-size="96.0" fill="#5E5E5E" transform="matrix(1.00, 0.00, -0.00, -1.00, 1284.0, 514.0)">U</text><text xml:space="preserve" font-family="HurmeGeometricSans4-Bold" font-weight="bold" font-size="96.0" fill="#5E5E5E" transform="matrix(1.00, 0.00, -0.00, -1.00, 1349.8, 514.0)">Z</text><text xml:space="preserve" font-family="HurmeGeometricSans4-Bold" font-weight="bold" font-size="96.0" fill="#5E5E5E" transform="matrix(1.00, 0.00, -0.00, -1.00, 1410.7, 514.0)">Z</text><text xml:space="preserve" font-family="HurmeGeometricSans4-Bold" font-weight="bold" font-size="96.0" fill="#5E5E5E" transform="matrix(1.00, 0.00, -0.00, -1.00, 1470.3, 514.0)">Y</text></g></svg>