<?xml version="1.0" encoding="UTF-8" standalone="no"?><svg xmlns="http://www.w3.org/2000/svg" xmlns:xlink="http://www.w3.org/1999/xlink" clip-rule="evenodd" stroke-miterlimit="4.00" viewBox="0 0 276 40"><desc>SVG generated by Keynote</desc><defs></defs><g transform="matrix(1.00, 0.00, -0.00, -1.00, 0.0, 40.0)"><text xml:space="preserve" font-family="HurmeGeometricSans3-Regular" font-size="50.0" fill="#000000" transform="matrix(1.00, 0.00, -0.00, -1.00, -3.0, 3.0)">N</text><text xml:space="preserve" font-family="HurmeGeometricSans3-Regular" font-size="50.0" fill="#000000" transform="matrix(1.00, 0.00, -0.00, -1.00, 34.6, 3.0)">o</text><text xml:space="preserve" font-family="HurmeGeometricSans3-Regular" font-size="50.0" fill="#000000" transform="matrix(1.00, 0.00, -0.00, -1.00, 64.4, 3.0)"> </text><text xml:space="preserve" font-family="HurmeGeometricSans3-Regular" font-size="50.0" fill="#000000" transform="matrix(1.00, 0.00, -0.00, -1.00, 85.0, 3.0)">D</text><text xml:space="preserve" font-family="HurmeGeometricSans3-Regular" font-size="50.0" fill="#000000" transform="matrix(1.00, 0.00, -0.00, -1.00, 121.3, 3.0)">i</text><text xml:space="preserve" font-family="HurmeGeometricSans3-Regular" font-size="50.0" fill="#000000" transform="matrix(1.00, 0.00, -0.00, -1.00, 130.8, 3.0)">s</text><text xml:space="preserve" font-family="HurmeGeometricSans3-Regular" font-size="50.0" fill="#000000" transform="matrix(1.00, 0.00, -0.00, -1.00, 151.5, 3.0)">t</text><text xml:space="preserve" font-family="HurmeGeometricSans3-Regular" font-size="50.0" fill="#000000" transform="matrix(1.00, 0.00, -0.00, -1.00, 165.4, 3.0)">a</text><text xml:space="preserve" font-family="HurmeGeometricSans3-Regular" font-size="50.0" fill="#000000" transform="matrix(1.00, 0.00, -0.00, -1.00, 195.3, 3.0)">n</text><text xml:space="preserve" font-family="HurmeGeometricSans3-Regular" font-size="50.0" fill="#000000" transform="matrix(1.00, 0.00, -0.00, -1.00, 221.9, 3.0)">c</text><text xml:space="preserve" font-family="HurmeGeometricSans3-Regular" font-size="50.0" fill="#000000" transform="matrix(1.00, 0.00, -0.00, -1.00, 247.8, 3.0)">e</text></g></svg>