<?xml version="1.0" encoding="UTF-8" standalone="no"?><svg xmlns="http://www.w3.org/2000/svg" xmlns:xlink="http://www.w3.org/1999/xlink" clip-rule="evenodd" stroke-miterlimit="4.00" viewBox="0 0 1920 1080"><desc>SVG generated by Keynote</desc><defs><linearGradient id="gradSh1.31" x1="0.0" y1="0.0" x2="100.0" y2="0.0" gradientUnits="userSpaceOnUse" gradientTransform="matrix(0.00, -2.21, -2.21, 0.00, 686.0, 359.0)"><stop offset="0.00000" stop-color="#DA5C67"></stop><stop offset="0.01026" stop-color="#DA5B67"></stop><stop offset="1.00000" stop-color="#D52B73"></stop></linearGradient><linearGradient id="gradSh1.32" x1="0.0" y1="0.0" x2="100.0" y2="0.0" gradientUnits="userSpaceOnUse" gradientTransform="matrix(0.00, -2.17, -2.17, 0.00, 1086.0, 355.0)"><stop offset="0.00000" stop-color="#DA5C67"></stop><stop offset="0.01026" stop-color="#DA5B67"></stop><stop offset="1.00000" stop-color="#D52B73"></stop></linearGradient><linearGradient id="gradSh1.33" x1="0.0" y1="0.0" x2="100.0" y2="0.0" gradientUnits="userSpaceOnUse" gradientTransform="matrix(0.00, -6.62, -6.62, 0.00, 1486.0, 800.0)"><stop offset="0.00000" stop-color="#DA5C67"></stop><stop offset="0.01026" stop-color="#DA5B67"></stop><stop offset="1.00000" stop-color="#D52B73"></stop></linearGradient><linearGradient id="gradSh2.34" x1="0.0" y1="0.0" x2="100.0" y2="0.0" gradientUnits="userSpaceOnUse" gradientTransform="matrix(0.00, -2.83, -2.83, 0.00, 509.5, 421.0)"><stop offset="0.00000" stop-color="#E3A535"></stop><stop offset="0.01173" stop-color="#E3A435"></stop><stop offset="0.29179" stop-color="#E19840"></stop><stop offset="0.30059" stop-color="#E19740"></stop><stop offset="1.00000" stop-color="#DC7859"></stop></linearGradient><linearGradient id="gradSh2.35" x1="0.0" y1="0.0" x2="100.0" y2="0.0" gradientUnits="userSpaceOnUse" gradientTransform="matrix(0.00, -2.66, -2.66, 0.00, 910.0, 404.0)"><stop offset="0.00000" stop-color="#E3A535"></stop><stop offset="0.01173" stop-color="#E3A435"></stop><stop offset="0.29179" stop-color="#E19840"></stop><stop offset="0.30059" stop-color="#E19740"></stop><stop offset="1.00000" stop-color="#DC7859"></stop></linearGradient><linearGradient id="gradSh2.36" x1="0.0" y1="0.0" x2="100.0" y2="0.0" gradientUnits="userSpaceOnUse" gradientTransform="matrix(0.00, -6.13, -6.13, 0.00, 1310.0, 751.0)"><stop offset="0.00000" stop-color="#E3A535"></stop><stop offset="0.01173" stop-color="#E3A435"></stop><stop offset="0.29179" stop-color="#E19840"></stop><stop offset="0.30059" stop-color="#E19740"></stop><stop offset="1.00000" stop-color="#DC7859"></stop></linearGradient><linearGradient id="gradSh2.37" x1="0.0" y1="0.0" x2="100.0" y2="0.0" gradientUnits="userSpaceOnUse" gradientTransform="matrix(0.00, -0.25, -0.25, 0.00, 698.0, 54.0)"><stop offset="0.00000" stop-color="#E3A535"></stop><stop offset="0.01173" stop-color="#E3A435"></stop><stop offset="0.29179" stop-color="#E19840"></stop><stop offset="0.30059" stop-color="#E19740"></stop><stop offset="1.00000" stop-color="#DC7859"></stop></linearGradient><linearGradient id="gradSh1.38" x1="0.0" y1="0.0" x2="100.0" y2="0.0" gradientUnits="userSpaceOnUse" gradientTransform="matrix(0.00, -0.25, -0.25, 0.00, 1133.0, 54.0)"><stop offset="0.00000" stop-color="#DA5C67"></stop><stop offset="0.01026" stop-color="#DA5B67"></stop><stop offset="1.00000" stop-color="#D52B73"></stop></linearGradient></defs><g transform="matrix(1.00, 0.00, -0.00, -1.00, 0.0, 1080.0)"><path d="M 0.0 1080.0 L 1920.0 1080.0 L 1920.0 0.0 L 0.0 0.0 Z M 0.0 1080.0 " fill="#FEFFFF"></path><text xml:space="preserve" font-family="HurmeGeometricSans4-SemiBold" font-weight="bold" font-size="112.0" fill="#5E5E5E" transform="matrix(1.00, 0.00, -0.00, -1.00, 734.0, 925.0)">R</text><text xml:space="preserve" font-family="HurmeGeometricSans4-SemiBold" font-weight="bold" font-size="112.0" fill="#5E5E5E" transform="matrix(1.00, 0.00, -0.00, -1.00, 805.2, 925.0)">E</text><text xml:space="preserve" font-family="HurmeGeometricSans4-SemiBold" font-weight="bold" font-size="112.0" fill="#5E5E5E" transform="matrix(1.00, 0.00, -0.00, -1.00, 870.4, 925.0)">S</text><text xml:space="preserve" font-family="HurmeGeometricSans4-SemiBold" font-weight="bold" font-size="112.0" fill="#5E5E5E" transform="matrix(1.00, 0.00, -0.00, -1.00, 933.7, 925.0)">U</text><text xml:space="preserve" font-family="HurmeGeometricSans4-SemiBold" font-weight="bold" font-size="112.0" fill="#5E5E5E" transform="matrix(1.00, 0.00, -0.00, -1.00, 1013.0, 925.0)">L</text><text xml:space="preserve" font-family="HurmeGeometricSans4-SemiBold" font-weight="bold" font-size="112.0" fill="#5E5E5E" transform="matrix(1.00, 0.00, -0.00, -1.00, 1061.6, 925.0)">T</text><text xml:space="preserve" font-family="HurmeGeometricSans4-SemiBold" font-weight="bold" font-size="112.0" fill="#5E5E5E" transform="matrix(1.00, 0.00, -0.00, -1.00, 1121.4, 925.0)">S</text><path d="M 134.0 601.3 L 1335.0 601.3 " fill="none" stroke="#919191" stroke-width="1.00" stroke-dasharray="2.0, 2.0" transform="matrix(1.00, 0.00, 0.00, -1.00, 263.0, 925.8)"></path><path d="M 134.0 413.3 L 1335.0 413.3 " fill="none" stroke="#919191" stroke-width="1.00" stroke-dasharray="2.0, 2.0" transform="matrix(1.00, 0.00, 0.00, -1.00, 263.0, 925.8)"></path><path d="M 134.0 225.3 L 1335.0 225.3 " fill="none" stroke="#919191" stroke-width="1.00" stroke-dasharray="2.0, 2.0" transform="matrix(1.00, 0.00, 0.00, -1.00, 263.0, 925.8)"></path><path d="M 134.0 38.3 L 1335.0 38.3 " fill="none" stroke="#919191" stroke-width="1.00" stroke-dasharray="2.0, 2.0" transform="matrix(1.00, 0.00, 0.00, -1.00, 263.0, 925.8)"></path><g><clipPath id="clip-792"><path d="M 263.0 137.3 L 263.0 887.9 L 317.0 887.9 L 317.0 137.3 Z M 263.0 137.3 "></path></clipPath><g clip-path="url(#clip-792)"><text xml:space="preserve" font-family="HurmeGeometricSans4-Regular" font-size="38.0" fill="#000000" transform="matrix(0.00, 1.00, 1.00, -0.00, 292.0, 410.4)">A</text><text xml:space="preserve" font-family="HurmeGeometricSans4-Regular" font-size="38.0" fill="#000000" transform="matrix(0.00, 1.00, 1.00, -0.00, 292.0, 436.3)">C</text><text xml:space="preserve" font-family="HurmeGeometricSans4-Regular" font-size="38.0" fill="#000000" transform="matrix(0.00, 1.00, 1.00, -0.00, 292.0, 463.3)">C</text><text xml:space="preserve" font-family="HurmeGeometricSans4-Regular" font-size="38.0" fill="#000000" transform="matrix(0.00, 1.00, 1.00, -0.00, 292.0, 490.3)">U</text><text xml:space="preserve" font-family="HurmeGeometricSans4-Regular" font-size="38.0" fill="#000000" transform="matrix(0.00, 1.00, 1.00, -0.00, 292.0, 516.8)">R</text><text xml:space="preserve" font-family="HurmeGeometricSans4-Regular" font-size="38.0" fill="#000000" transform="matrix(0.00, 1.00, 1.00, -0.00, 292.0, 539.0)">A</text><text xml:space="preserve" font-family="HurmeGeometricSans4-Regular" font-size="38.0" fill="#000000" transform="matrix(0.00, 1.00, 1.00, -0.00, 292.0, 564.9)">C</text><text xml:space="preserve" font-family="HurmeGeometricSans4-Regular" font-size="38.0" fill="#000000" transform="matrix(0.00, 1.00, 1.00, -0.00, 292.0, 591.1)">Y</text></g></g><g><clipPath id="clip-793"><path d="M 324.3 120.3 L 377.4 120.3 L 377.4 154.3 L 324.3 154.3 Z M 324.3 120.3 "></path></clipPath><g clip-path="url(#clip-793)"><text xml:space="preserve" font-family="HurmeGeometricSans4-Regular" font-size="32.0" fill="#000000" transform="matrix(1.00, 0.00, -0.00, -1.00, 326.0, 129.0)">6</text><text xml:space="preserve" font-family="HurmeGeometricSans4-Regular" font-size="32.0" fill="#000000" transform="matrix(1.00, 0.00, -0.00, -1.00, 343.1, 129.0)">1</text><text xml:space="preserve" font-family="HurmeGeometricSans4-Regular" font-size="32.0" fill="#000000" transform="matrix(1.00, 0.00, -0.00, -1.00, 352.7, 129.0)">%</text></g></g><g><clipPath id="clip-794"><path d="M 317.4 308.0 L 377.4 308.0 L 377.4 342.0 L 317.4 342.0 Z M 317.4 308.0 "></path></clipPath><g clip-path="url(#clip-794)"><text xml:space="preserve" font-family="HurmeGeometricSans4-Regular" font-size="32.0" fill="#000000" transform="matrix(1.00, 0.00, -0.00, -1.00, 319.0, 317.0)">6</text><text xml:space="preserve" font-family="HurmeGeometricSans4-Regular" font-size="32.0" fill="#000000" transform="matrix(1.00, 0.00, -0.00, -1.00, 336.5, 317.0)">2</text><text xml:space="preserve" font-family="HurmeGeometricSans4-Regular" font-size="32.0" fill="#000000" transform="matrix(1.00, 0.00, -0.00, -1.00, 352.6, 317.0)">%</text></g></g><g><clipPath id="clip-795"><path d="M 316.0 495.6 L 377.4 495.6 L 377.4 529.6 L 316.0 529.6 Z M 316.0 495.6 "></path></clipPath><g clip-path="url(#clip-795)"><text xml:space="preserve" font-family="HurmeGeometricSans4-Regular" font-size="32.0" fill="#000000" transform="matrix(1.00, 0.00, -0.00, -1.00, 317.0, 504.0)">6</text><text xml:space="preserve" font-family="HurmeGeometricSans4-Regular" font-size="32.0" fill="#000000" transform="matrix(1.00, 0.00, -0.00, -1.00, 335.0, 504.0)">3</text><text xml:space="preserve" font-family="HurmeGeometricSans4-Regular" font-size="32.0" fill="#000000" transform="matrix(1.00, 0.00, -0.00, -1.00, 352.0, 504.0)">%</text></g></g><g><clipPath id="clip-796"><path d="M 316.3 683.2 L 377.4 683.2 L 377.4 717.2 L 316.3 717.2 Z M 316.3 683.2 "></path></clipPath><g clip-path="url(#clip-796)"><text xml:space="preserve" font-family="HurmeGeometricSans4-Regular" font-size="32.0" fill="#000000" transform="matrix(1.00, 0.00, -0.00, -1.00, 318.0, 692.0)">6</text><text xml:space="preserve" font-family="HurmeGeometricSans4-Regular" font-size="32.0" fill="#000000" transform="matrix(1.00, 0.00, -0.00, -1.00, 336.0, 692.0)">4</text><text xml:space="preserve" font-family="HurmeGeometricSans4-Regular" font-size="32.0" fill="#000000" transform="matrix(1.00, 0.00, -0.00, -1.00, 352.7, 692.0)">%</text></g></g><g><clipPath id="clip-797"><path d="M 317.0 870.9 L 377.4 870.9 L 377.4 904.9 L 317.0 904.9 Z M 317.0 870.9 "></path></clipPath><g clip-path="url(#clip-797)"><text xml:space="preserve" font-family="HurmeGeometricSans4-Regular" font-size="32.0" fill="#000000" transform="matrix(1.00, 0.00, -0.00, -1.00, 318.0, 879.0)">6</text><text xml:space="preserve" font-family="HurmeGeometricSans4-Regular" font-size="32.0" fill="#000000" transform="matrix(1.00, 0.00, -0.00, -1.00, 335.5, 879.0)">5</text><text xml:space="preserve" font-family="HurmeGeometricSans4-Regular" font-size="32.0" fill="#000000" transform="matrix(1.00, 0.00, -0.00, -1.00, 352.0, 879.0)">%</text></g></g><path d="M 134.5 788.3 L 1334.5 788.3 " fill="none" stroke="#000000" stroke-width="1.00" stroke-linecap="square" transform="matrix(1.00, 0.00, 0.00, -1.00, 263.0, 925.8)"></path><g><clipPath id="clip-798"><path d="M 538.6 80.9 L 656.5 80.9 L 656.5 120.8 L 538.6 120.8 Z M 538.6 80.9 "></path></clipPath><g clip-path="url(#clip-798)"><text xml:space="preserve" font-family="HurmeGeometricSans4-Regular" font-size="38.0" fill="#000000" transform="matrix(1.00, 0.00, -0.00, -1.00, 540.0, 91.0)">F</text><text xml:space="preserve" font-family="HurmeGeometricSans4-Regular" font-size="38.0" fill="#000000" transform="matrix(1.00, 0.00, -0.00, -1.00, 559.2, 91.0)">U</text><text xml:space="preserve" font-family="HurmeGeometricSans4-Regular" font-size="38.0" fill="#000000" transform="matrix(1.00, 0.00, -0.00, -1.00, 584.3, 91.0)">Z</text><text xml:space="preserve" font-family="HurmeGeometricSans4-Regular" font-size="38.0" fill="#000000" transform="matrix(1.00, 0.00, -0.00, -1.00, 607.7, 91.0)">Z</text><text xml:space="preserve" font-family="HurmeGeometricSans4-Regular" font-size="38.0" fill="#000000" transform="matrix(1.00, 0.00, -0.00, -1.00, 631.3, 91.0)">Y</text></g></g><g><clipPath id="clip-799"><path d="M 923.1 80.9 L 1072.3 80.9 L 1072.3 120.8 L 923.1 120.8 Z M 923.1 80.9 "></path></clipPath><g clip-path="url(#clip-799)"><text xml:space="preserve" font-family="HurmeGeometricSans4-Regular" font-size="38.0" fill="#000000" transform="matrix(1.00, 0.00, -0.00, -1.00, 925.0, 91.0)">K</text><text xml:space="preserve" font-family="HurmeGeometricSans4-Regular" font-size="38.0" fill="#000000" transform="matrix(1.00, 0.00, -0.00, -1.00, 947.3, 91.0)">-</text><text xml:space="preserve" font-family="HurmeGeometricSans4-Regular" font-size="38.0" fill="#000000" transform="matrix(1.00, 0.00, -0.00, -1.00, 961.9, 91.0)">M</text><text xml:space="preserve" font-family="HurmeGeometricSans4-Regular" font-size="38.0" fill="#000000" transform="matrix(1.00, 0.00, -0.00, -1.00, 994.6, 91.0)">E</text><text xml:space="preserve" font-family="HurmeGeometricSans4-Regular" font-size="38.0" fill="#000000" transform="matrix(1.00, 0.00, -0.00, -1.00, 1015.2, 91.0)">A</text><text xml:space="preserve" font-family="HurmeGeometricSans4-Regular" font-size="38.0" fill="#000000" transform="matrix(1.00, 0.00, -0.00, -1.00, 1042.6, 91.0)">N</text></g></g><g><clipPath id="clip-800"><path d="M 1356.9 80.9 L 1438.8 80.9 L 1438.8 120.8 L 1356.9 120.8 Z M 1356.9 80.9 "></path></clipPath><g clip-path="url(#clip-800)"><text xml:space="preserve" font-family="HurmeGeometricSans4-Regular" font-size="38.0" fill="#000000" transform="matrix(1.00, 0.00, -0.00, -1.00, 1358.0, 91.0)">S</text><text xml:space="preserve" font-family="HurmeGeometricSans4-Regular" font-size="38.0" fill="#000000" transform="matrix(1.00, 0.00, -0.00, -1.00, 1377.4, 91.0)">V</text><text xml:space="preserve" font-family="HurmeGeometricSans4-Regular" font-size="38.0" fill="#000000" transform="matrix(1.00, 0.00, -0.00, -1.00, 1404.3, 91.0)">M</text></g></g><g><clipPath id="clip-801"><path d="M 606.0 138.0 L 766.0 138.0 L 766.0 359.0 L 606.0 359.0 Z M 606.0 138.0 "></path></clipPath><g clip-path="url(#clip-801)"><path d="M 606.0 138.0 L 766.0 138.0 L 766.0 359.0 L 606.0 359.0 Z M 606.0 138.0 " fill="url(#gradSh1.31)"></path></g></g><g><clipPath id="clip-802"><path d="M 1006.0 138.0 L 1166.0 138.0 L 1166.0 355.0 L 1006.0 355.0 Z M 1006.0 138.0 "></path></clipPath><g clip-path="url(#clip-802)"><path d="M 1006.0 138.0 L 1166.0 138.0 L 1166.0 355.0 L 1006.0 355.0 Z M 1006.0 138.0 " fill="url(#gradSh1.32)"></path></g></g><g><clipPath id="clip-803"><path d="M 1406.0 138.0 L 1566.0 138.0 L 1566.0 800.0 L 1406.0 800.0 Z M 1406.0 138.0 "></path></clipPath><g clip-path="url(#clip-803)"><path d="M 1406.0 138.0 L 1566.0 138.0 L 1566.0 800.0 L 1406.0 800.0 Z M 1406.0 138.0 " fill="url(#gradSh1.33)"></path></g></g><g><clipPath id="clip-804"><path d="M 429.0 138.0 L 590.0 138.0 L 590.0 421.0 L 429.0 421.0 Z M 429.0 138.0 "></path></clipPath><g clip-path="url(#clip-804)"><path d="M 429.0 138.0 L 590.0 138.0 L 590.0 421.0 L 429.0 421.0 Z M 429.0 138.0 " fill="url(#gradSh2.34)"></path></g></g><g><clipPath id="clip-805"><path d="M 830.0 138.0 L 990.0 138.0 L 990.0 404.0 L 830.0 404.0 Z M 830.0 138.0 "></path></clipPath><g clip-path="url(#clip-805)"><path d="M 830.0 138.0 L 990.0 138.0 L 990.0 404.0 L 830.0 404.0 Z M 830.0 138.0 " fill="url(#gradSh2.35)"></path></g></g><g><clipPath id="clip-806"><path d="M 1230.0 138.0 L 1390.0 138.0 L 1390.0 751.0 L 1230.0 751.0 Z M 1230.0 138.0 "></path></clipPath><g clip-path="url(#clip-806)"><path d="M 1230.0 138.0 L 1390.0 138.0 L 1390.0 751.0 L 1230.0 751.0 Z M 1230.0 138.0 " fill="url(#gradSh2.36)"></path></g></g><g><image xlink:href="../../5BE57F64-C32F-4816-81DF-E08CE8F64362/assets/3E91EF879C1B6C1E4B90051C2E1AADD0.png" width="157.00" height="41.00" transform="matrix(1.00, 0.00, -0.00, -1.00, 1407.0, 797.0)"></image><g><clipPath id="clip-807"><path d="M 1404.0 744.0 L 1567.0 744.0 L 1567.0 799.0 L 1404.0 799.0 Z M 1404.0 744.0 "></path></clipPath><g clip-path="url(#clip-807)"><text xml:space="preserve" font-family="HurmeGeometricSans4-Regular" font-size="50.0" fill="#FEFFFE" transform="matrix(1.00, 0.00, -0.00, -1.00, 1407.0, 760.0)">6</text><text xml:space="preserve" font-family="HurmeGeometricSans4-Regular" font-size="50.0" fill="#FEFFFE" transform="matrix(1.00, 0.00, -0.00, -1.00, 1435.2, 760.0)">4</text><text xml:space="preserve" font-family="HurmeGeometricSans4-Regular" font-size="50.0" fill="#FEFFFE" transform="matrix(1.00, 0.00, -0.00, -1.00, 1463.7, 760.0)">.</text><text xml:space="preserve" font-family="HurmeGeometricSans4-Regular" font-size="50.0" fill="#FEFFFE" transform="matrix(1.00, 0.00, -0.00, -1.00, 1473.1, 760.0)">5</text><text xml:space="preserve" font-family="HurmeGeometricSans4-Regular" font-size="50.0" fill="#FEFFFE" transform="matrix(1.00, 0.00, -0.00, -1.00, 1500.8, 760.0)">3</text><text xml:space="preserve" font-family="HurmeGeometricSans4-Regular" font-size="50.0" fill="#FEFFFE" transform="matrix(1.00, 0.00, -0.00, -1.00, 1527.4, 760.0)">%</text></g></g></g><g><image xlink:href="../../5BE57F64-C32F-4816-81DF-E08CE8F64362/assets/0ABBC865A3BB9F4BF369394A214BFC49.png" width="137.00" height="41.00" transform="matrix(1.00, 0.00, -0.00, -1.00, 1017.0, 352.0)"></image><g><clipPath id="clip-808"><path d="M 1014.0 300.0 L 1157.0 300.0 L 1157.0 354.0 L 1014.0 354.0 Z M 1014.0 300.0 "></path></clipPath><g clip-path="url(#clip-808)"><text xml:space="preserve" font-family="HurmeGeometricSans4-Regular" font-size="50.0" fill="#FEFFFE" transform="matrix(1.00, 0.00, -0.00, -1.00, 1017.0, 315.0)">6</text><text xml:space="preserve" font-family="HurmeGeometricSans4-Regular" font-size="50.0" fill="#FEFFFE" transform="matrix(1.00, 0.00, -0.00, -1.00, 1044.4, 315.0)">2</text><text xml:space="preserve" font-family="HurmeGeometricSans4-Regular" font-size="50.0" fill="#FEFFFE" transform="matrix(1.00, 0.00, -0.00, -1.00, 1069.5, 315.0)">.</text><text xml:space="preserve" font-family="HurmeGeometricSans4-Regular" font-size="50.0" fill="#FEFFFE" transform="matrix(1.00, 0.00, -0.00, -1.00, 1077.2, 315.0)">1</text><text xml:space="preserve" font-family="HurmeGeometricSans4-Regular" font-size="50.0" fill="#FEFFFE" transform="matrix(1.00, 0.00, -0.00, -1.00, 1092.2, 315.0)">6</text><text xml:space="preserve" font-family="HurmeGeometricSans4-Regular" font-size="50.0" fill="#FEFFFE" transform="matrix(1.00, 0.00, -0.00, -1.00, 1117.3, 315.0)">%</text></g></g></g><g><image xlink:href="../../5BE57F64-C32F-4816-81DF-E08CE8F64362/assets/61B146D71318D0BD1065897A0FC3BE64.png" width="137.00" height="41.00" transform="matrix(1.00, 0.00, -0.00, -1.00, 617.0, 356.0)"></image><g><clipPath id="clip-809"><path d="M 614.0 303.0 L 757.0 303.0 L 757.0 358.0 L 614.0 358.0 Z M 614.0 303.0 "></path></clipPath><g clip-path="url(#clip-809)"><text xml:space="preserve" font-family="HurmeGeometricSans4-Regular" font-size="50.0" fill="#FEFFFE" transform="matrix(1.00, 0.00, -0.00, -1.00, 617.0, 319.0)">6</text><text xml:space="preserve" font-family="HurmeGeometricSans4-Regular" font-size="50.0" fill="#FEFFFE" transform="matrix(1.00, 0.00, -0.00, -1.00, 644.4, 319.0)">2</text><text xml:space="preserve" font-family="HurmeGeometricSans4-Regular" font-size="50.0" fill="#FEFFFE" transform="matrix(1.00, 0.00, -0.00, -1.00, 669.5, 319.0)">.</text><text xml:space="preserve" font-family="HurmeGeometricSans4-Regular" font-size="50.0" fill="#FEFFFE" transform="matrix(1.00, 0.00, -0.00, -1.00, 677.1, 319.0)">1</text><text xml:space="preserve" font-family="HurmeGeometricSans4-Regular" font-size="50.0" fill="#FEFFFE" transform="matrix(1.00, 0.00, -0.00, -1.00, 692.2, 319.0)">8</text><text xml:space="preserve" font-family="HurmeGeometricSans4-Regular" font-size="50.0" fill="#FEFFFE" transform="matrix(1.00, 0.00, -0.00, -1.00, 717.8, 319.0)">%</text></g></g></g><g><image xlink:href="../../5BE57F64-C32F-4816-81DF-E08CE8F64362/assets/FE4476CD1E579F0F56143494F2724A04.png" width="155.00" height="41.00" transform="matrix(1.00, 0.00, -0.00, -1.00, 1232.0, 748.0)"></image><g><clipPath id="clip-810"><path d="M 1229.0 696.0 L 1390.0 696.0 L 1390.0 750.0 L 1229.0 750.0 Z M 1229.0 696.0 "></path></clipPath><g clip-path="url(#clip-810)"><text xml:space="preserve" font-family="HurmeGeometricSans4-Regular" font-size="50.0" fill="#FEFFFE" transform="matrix(1.00, 0.00, -0.00, -1.00, 1232.0, 711.0)">6</text><text xml:space="preserve" font-family="HurmeGeometricSans4-Regular" font-size="50.0" fill="#FEFFFE" transform="matrix(1.00, 0.00, -0.00, -1.00, 1260.2, 711.0)">4</text><text xml:space="preserve" font-family="HurmeGeometricSans4-Regular" font-size="50.0" fill="#FEFFFE" transform="matrix(1.00, 0.00, -0.00, -1.00, 1288.7, 711.0)">.</text><text xml:space="preserve" font-family="HurmeGeometricSans4-Regular" font-size="50.0" fill="#FEFFFE" transform="matrix(1.00, 0.00, -0.00, -1.00, 1298.8, 711.0)">2</text><text xml:space="preserve" font-family="HurmeGeometricSans4-Regular" font-size="50.0" fill="#FEFFFE" transform="matrix(1.00, 0.00, -0.00, -1.00, 1323.0, 711.0)">7</text><text xml:space="preserve" font-family="HurmeGeometricSans4-Regular" font-size="50.0" fill="#FEFFFE" transform="matrix(1.00, 0.00, -0.00, -1.00, 1350.3, 711.0)">%</text></g></g></g><g><image xlink:href="../../5BE57F64-C32F-4816-81DF-E08CE8F64362/assets/05545C51B2B33CEE6BFECFF630FB3FB5.png" width="151.00" height="41.00" transform="matrix(1.00, 0.00, -0.00, -1.00, 834.0, 401.0)"></image><g><clipPath id="clip-811"><path d="M 831.0 348.0 L 988.0 348.0 L 988.0 403.0 L 831.0 403.0 Z M 831.0 348.0 "></path></clipPath><g clip-path="url(#clip-811)"><text xml:space="preserve" font-family="HurmeGeometricSans4-Regular" font-size="50.0" fill="#FEFFFE" transform="matrix(1.00, 0.00, -0.00, -1.00, 834.0, 364.0)">6</text><text xml:space="preserve" font-family="HurmeGeometricSans4-Regular" font-size="50.0" fill="#FEFFFE" transform="matrix(1.00, 0.00, -0.00, -1.00, 861.4, 364.0)">2</text><text xml:space="preserve" font-family="HurmeGeometricSans4-Regular" font-size="50.0" fill="#FEFFFE" transform="matrix(1.00, 0.00, -0.00, -1.00, 886.5, 364.0)">.</text><text xml:space="preserve" font-family="HurmeGeometricSans4-Regular" font-size="50.0" fill="#FEFFFE" transform="matrix(1.00, 0.00, -0.00, -1.00, 894.6, 364.0)">4</text><text xml:space="preserve" font-family="HurmeGeometricSans4-Regular" font-size="50.0" fill="#FEFFFE" transform="matrix(1.00, 0.00, -0.00, -1.00, 923.2, 364.0)">2</text><text xml:space="preserve" font-family="HurmeGeometricSans4-Regular" font-size="50.0" fill="#FEFFFE" transform="matrix(1.00, 0.00, -0.00, -1.00, 948.3, 364.0)">%</text></g></g></g><g><image xlink:href="../../5BE57F64-C32F-4816-81DF-E08CE8F64362/assets/E300ABE5480E6752BC3D10B8CDFEB8D2.png" width="141.00" height="41.00" transform="matrix(1.00, 0.00, -0.00, -1.00, 439.0, 418.0)"></image><g><clipPath id="clip-812"><path d="M 436.0 365.0 L 583.0 365.0 L 583.0 420.0 L 436.0 420.0 Z M 436.0 365.0 "></path></clipPath><g clip-path="url(#clip-812)"><text xml:space="preserve" font-family="HurmeGeometricSans4-Regular" font-size="50.0" fill="#FEFFFE" transform="matrix(1.00, 0.00, -0.00, -1.00, 439.0, 381.0)">6</text><text xml:space="preserve" font-family="HurmeGeometricSans4-Regular" font-size="50.0" fill="#FEFFFE" transform="matrix(1.00, 0.00, -0.00, -1.00, 466.4, 381.0)">2</text><text xml:space="preserve" font-family="HurmeGeometricSans4-Regular" font-size="50.0" fill="#FEFFFE" transform="matrix(1.00, 0.00, -0.00, -1.00, 491.5, 381.0)">.</text><text xml:space="preserve" font-family="HurmeGeometricSans4-Regular" font-size="50.0" fill="#FEFFFE" transform="matrix(1.00, 0.00, -0.00, -1.00, 500.9, 381.0)">5</text><text xml:space="preserve" font-family="HurmeGeometricSans4-Regular" font-size="50.0" fill="#FEFFFE" transform="matrix(1.00, 0.00, -0.00, -1.00, 528.6, 381.0)">1</text><text xml:space="preserve" font-family="HurmeGeometricSans4-Regular" font-size="50.0" fill="#FEFFFE" transform="matrix(1.00, 0.00, -0.00, -1.00, 543.7, 381.0)">%</text></g></g></g><g><clipPath id="clip-813"><path d="M 686.0 29.0 L 710.0 29.0 L 710.0 54.0 L 686.0 54.0 Z M 686.0 29.0 "></path></clipPath><g clip-path="url(#clip-813)"><path d="M 686.0 29.0 L 710.0 29.0 L 710.0 54.0 L 686.0 54.0 Z M 686.0 29.0 " fill="url(#gradSh2.37)"></path></g></g><text xml:space="preserve" font-family="HurmeGeometricSans4-Regular" font-size="32.0" fill="#000000" transform="matrix(1.00, 0.00, -0.00, -1.00, 729.0, 33.0)">B</text><text xml:space="preserve" font-family="HurmeGeometricSans4-Regular" font-size="32.0" fill="#000000" transform="matrix(1.00, 0.00, -0.00, -1.00, 747.9, 33.0)">R</text><text xml:space="preserve" font-family="HurmeGeometricSans4-Regular" font-size="32.0" fill="#000000" transform="matrix(1.00, 0.00, -0.00, -1.00, 767.3, 33.0)">I</text><text xml:space="preserve" font-family="HurmeGeometricSans4-Regular" font-size="32.0" fill="#000000" transform="matrix(1.00, 0.00, -0.00, -1.00, 776.0, 33.0)">S</text><text xml:space="preserve" font-family="HurmeGeometricSans4-Regular" font-size="32.0" fill="#000000" transform="matrix(1.00, 0.00, -0.00, -1.00, 793.6, 33.0)">K</text><g><clipPath id="clip-814"><path d="M 1121.0 29.0 L 1145.0 29.0 L 1145.0 54.0 L 1121.0 54.0 Z M 1121.0 29.0 "></path></clipPath><g clip-path="url(#clip-814)"><path d="M 1121.0 29.0 L 1145.0 29.0 L 1145.0 54.0 L 1121.0 54.0 Z M 1121.0 29.0 " fill="url(#gradSh1.38)"></path></g></g><text xml:space="preserve" font-family="HurmeGeometricSans4-Regular" font-size="32.0" fill="#000000" transform="matrix(1.00, 0.00, -0.00, -1.00, 1164.0, 33.0)">F</text><text xml:space="preserve" font-family="HurmeGeometricSans4-Regular" font-size="32.0" fill="#000000" transform="matrix(1.00, 0.00, -0.00, -1.00, 1178.1, 33.0)">A</text><text xml:space="preserve" font-family="HurmeGeometricSans4-Regular" font-size="32.0" fill="#000000" transform="matrix(1.00, 0.00, -0.00, -1.00, 1200.5, 33.0)">S</text><text xml:space="preserve" font-family="HurmeGeometricSans4-Regular" font-size="32.0" fill="#000000" transform="matrix(1.00, 0.00, -0.00, -1.00, 1217.2, 33.0)">T</text></g></svg>