<?xml version="1.0" encoding="UTF-8" standalone="no"?><svg xmlns="http://www.w3.org/2000/svg" xmlns:xlink="http://www.w3.org/1999/xlink" clip-rule="evenodd" stroke-miterlimit="10" viewBox="0 0 1920 1080"><desc>SVG generated by Keynote</desc><defs></defs><g transform="matrix(1.00, 0.00, -0.00, -1.00, 0.0, 1080.0)"><g><clipPath id="clip0x7fbe63555f80"><path d="M 0.0 1080.0 L 1920.0 1080.0 L 1920.0 0.0 L 0.0 0.0 Z M 0.0 1080.0 "></path></clipPath><g clip-path="url(#clip0x7fbe63555f80)"><image xlink:href="../../C5EFF758-B34A-4B0E-A680-DC5C8C3FC782/assets/64EC4B803291EC1E306EFFF32124BCBF.png" width="4000.00" height="2672.00" transform="matrix(0.48, 0.00, -0.00, -0.48, 0.0, 1181.3)"></image></g></g><image xlink:href="../../C5EFF758-B34A-4B0E-A680-DC5C8C3FC782/assets/D26C59579934930CF870A619DC511192.png" width="1957.00" height="666.00" transform="matrix(1.00, 0.00, -0.00, -1.00, -18.3, 872.1)"></image><text xml:space="preserve" font-family="Helvetica-Light,Helvetica" font-size="171.5" fill="#FEFFFF" transform="matrix(1.00, 0.00, -0.00, -1.00, 30.5, 476.4)">W</text><text xml:space="preserve" font-family="Helvetica-Light,Helvetica" font-size="171.5" fill="#FEFFFF" transform="matrix(1.00, 0.00, -0.00, -1.00, 183.0, 476.4)">h</text><text xml:space="preserve" font-family="Helvetica-Light,Helvetica" font-size="171.5" fill="#FEFFFF" transform="matrix(1.00, 0.00, -0.00, -1.00, 278.4, 476.4)">a</text><text xml:space="preserve" font-family="Helvetica-Light,Helvetica" font-size="171.5" fill="#FEFFFF" transform="matrix(1.00, 0.00, -0.00, -1.00, 373.7, 476.4)">t</text><text xml:space="preserve" font-family="Helvetica-Light,Helvetica" font-size="171.5" fill="#FEFFFF" transform="matrix(1.00, 0.00, -0.00, -1.00, 421.4, 476.4)"> </text><text xml:space="preserve" font-family="Helvetica-Light,Helvetica" font-size="171.5" fill="#FEFFFF" transform="matrix(1.00, 0.00, -0.00, -1.00, 469.1, 476.4)">O</text><text xml:space="preserve" font-family="Helvetica-Light,Helvetica" font-size="171.5" fill="#FEFFFF" transform="matrix(1.00, 0.00, -0.00, -1.00, 602.6, 476.4)">t</text><text xml:space="preserve" font-family="Helvetica-Light,Helvetica" font-size="171.5" fill="#FEFFFF" transform="matrix(1.00, 0.00, -0.00, -1.00, 650.2, 476.4)">h</text><text xml:space="preserve" font-family="Helvetica-Light,Helvetica" font-size="171.5" fill="#FEFFFF" transform="matrix(1.00, 0.00, -0.00, -1.00, 745.6, 476.4)">e</text><text xml:space="preserve" font-family="Helvetica-Light,Helvetica" font-size="171.5" fill="#FEFFFF" transform="matrix(1.00, 0.00, -0.00, -1.00, 841.0, 476.4)">r</text><text xml:space="preserve" font-family="Helvetica-Light,Helvetica" font-size="171.5" fill="#FEFFFF" transform="matrix(1.00, 0.00, -0.00, -1.00, 898.1, 476.4)">s</text><text xml:space="preserve" font-family="Helvetica-Light,Helvetica" font-size="171.5" fill="#FEFFFF" transform="matrix(1.00, 0.00, -0.00, -1.00, 983.8, 476.4)"> </text><text xml:space="preserve" font-family="Helvetica-Light,Helvetica" font-size="171.5" fill="#FEFFFF" transform="matrix(1.00, 0.00, -0.00, -1.00, 1031.5, 476.4)">H</text><text xml:space="preserve" font-family="Helvetica-Light,Helvetica" font-size="171.5" fill="#FEFFFF" transform="matrix(1.00, 0.00, -0.00, -1.00, 1155.4, 476.4)">a</text><text xml:space="preserve" font-family="Helvetica-Light,Helvetica" font-size="171.5" fill="#FEFFFF" transform="matrix(1.00, 0.00, -0.00, -1.00, 1250.7, 476.4)">v</text><text xml:space="preserve" font-family="Helvetica-Light,Helvetica" font-size="171.5" fill="#FEFFFF" transform="matrix(1.00, 0.00, -0.00, -1.00, 1336.5, 476.4)">e</text><text xml:space="preserve" font-family="Helvetica-Light,Helvetica" font-size="171.5" fill="#FEFFFF" transform="matrix(1.00, 0.00, -0.00, -1.00, 1431.9, 476.4)"> </text><text xml:space="preserve" font-family="Helvetica-Light,Helvetica" font-size="171.5" fill="#FEFFFF" transform="matrix(1.00, 0.00, -0.00, -1.00, 1479.5, 476.4)">D</text><text xml:space="preserve" font-family="Helvetica-Light,Helvetica" font-size="171.5" fill="#FEFFFF" transform="matrix(1.00, 0.00, -0.00, -1.00, 1603.4, 476.4)">o</text><text xml:space="preserve" font-family="Helvetica-Light,Helvetica" font-size="171.5" fill="#FEFFFF" transform="matrix(1.00, 0.00, -0.00, -1.00, 1698.7, 476.4)">n</text><text xml:space="preserve" font-family="Helvetica-Light,Helvetica" font-size="171.5" fill="#FEFFFF" transform="matrix(1.00, 0.00, -0.00, -1.00, 1794.1, 476.4)">e</text><text xml:space="preserve" font-family="Helvetica-Light,Helvetica" font-size="36.0" fill="#FEFFFF" transform="matrix(1.00, 0.00, -0.00, -1.00, 1794.9, 11.7)">©</text><text xml:space="preserve" font-family="Helvetica-Light,Helvetica" font-size="36.0" fill="#FEFFFF" transform="matrix(1.00, 0.00, -0.00, -1.00, 1823.7, 11.7)">F</text><text xml:space="preserve" font-family="Helvetica-Light,Helvetica" font-size="36.0" fill="#FEFFFF" transform="matrix(1.00, 0.00, -0.00, -1.00, 1843.7, 11.7)">l</text><text xml:space="preserve" font-family="Helvetica-Light,Helvetica" font-size="36.0" fill="#FEFFFF" transform="matrix(1.00, 0.00, -0.00, -1.00, 1851.7, 11.7)">i</text><text xml:space="preserve" font-family="Helvetica-Light,Helvetica" font-size="36.0" fill="#FEFFFF" transform="matrix(1.00, 0.00, -0.00, -1.00, 1859.7, 11.7)">c</text><text xml:space="preserve" font-family="Helvetica-Light,Helvetica" font-size="36.0" fill="#FEFFFF" transform="matrix(1.00, 0.00, -0.00, -1.00, 1879.7, 11.7)">k</text><text xml:space="preserve" font-family="Helvetica-Light,Helvetica" font-size="36.0" fill="#FEFFFF" transform="matrix(1.00, 0.00, -0.00, -1.00, 1897.7, 11.7)">r</text></g></svg>