<?xml version="1.0" encoding="UTF-8" standalone="no"?><svg xmlns="http://www.w3.org/2000/svg" xmlns:xlink="http://www.w3.org/1999/xlink" clip-rule="evenodd" stroke-miterlimit="4.00" viewBox="0 0 1622 78"><desc>SVG generated by Keynote</desc><defs></defs><g transform="matrix(1.00, 0.00, -0.00, -1.00, 0.0, 78.0)"><text xml:space="preserve" font-family="HurmeGeometricSans4-SemiBold" font-weight="bold" font-size="101.9" fill="#5E5E5E" transform="matrix(1.00, 0.00, -0.00, -1.00, -6.0, 4.0)">B</text><text xml:space="preserve" font-family="HurmeGeometricSans4-SemiBold" font-weight="bold" font-size="101.9" fill="#5E5E5E" transform="matrix(1.00, 0.00, -0.00, -1.00, 56.6, 4.0)">R</text><text xml:space="preserve" font-family="HurmeGeometricSans4-SemiBold" font-weight="bold" font-size="101.9" fill="#5E5E5E" transform="matrix(1.00, 0.00, -0.00, -1.00, 121.4, 4.0)">E</text><text xml:space="preserve" font-family="HurmeGeometricSans4-SemiBold" font-weight="bold" font-size="101.9" fill="#5E5E5E" transform="matrix(1.00, 0.00, -0.00, -1.00, 179.8, 4.0)">A</text><text xml:space="preserve" font-family="HurmeGeometricSans4-SemiBold" font-weight="bold" font-size="101.9" fill="#5E5E5E" transform="matrix(1.00, 0.00, -0.00, -1.00, 252.6, 4.0)">S</text><text xml:space="preserve" font-family="HurmeGeometricSans4-SemiBold" font-weight="bold" font-size="101.9" fill="#5E5E5E" transform="matrix(1.00, 0.00, -0.00, -1.00, 308.2, 4.0)">T</text><text xml:space="preserve" font-family="HurmeGeometricSans4-SemiBold" font-weight="bold" font-size="101.9" fill="#5E5E5E" transform="matrix(1.00, 0.00, -0.00, -1.00, 356.2, 4.0)"> </text><text xml:space="preserve" font-family="HurmeGeometricSans4-SemiBold" font-weight="bold" font-size="101.9" fill="#5E5E5E" transform="matrix(1.00, 0.00, -0.00, -1.00, 394.2, 4.0)">C</text><text xml:space="preserve" font-family="HurmeGeometricSans4-SemiBold" font-weight="bold" font-size="101.9" fill="#5E5E5E" transform="matrix(1.00, 0.00, -0.00, -1.00, 466.8, 4.0)">A</text><text xml:space="preserve" font-family="HurmeGeometricSans4-SemiBold" font-weight="bold" font-size="101.9" fill="#5E5E5E" transform="matrix(1.00, 0.00, -0.00, -1.00, 541.6, 4.0)">N</text><text xml:space="preserve" font-family="HurmeGeometricSans4-SemiBold" font-weight="bold" font-size="101.9" fill="#5E5E5E" transform="matrix(1.00, 0.00, -0.00, -1.00, 618.5, 4.0)">C</text><text xml:space="preserve" font-family="HurmeGeometricSans4-SemiBold" font-weight="bold" font-size="101.9" fill="#5E5E5E" transform="matrix(1.00, 0.00, -0.00, -1.00, 691.0, 4.0)">E</text><text xml:space="preserve" font-family="HurmeGeometricSans4-SemiBold" font-weight="bold" font-size="101.9" fill="#5E5E5E" transform="matrix(1.00, 0.00, -0.00, -1.00, 749.9, 4.0)">R</text><text xml:space="preserve" font-family="HurmeGeometricSans4-SemiBold" font-weight="bold" font-size="101.9" fill="#5E5E5E" transform="matrix(1.00, 0.00, -0.00, -1.00, 813.5, 4.0)"> </text><text xml:space="preserve" font-family="HurmeGeometricSans4-SemiBold" font-weight="bold" font-size="101.9" fill="#5E5E5E" transform="matrix(1.00, 0.00, -0.00, -1.00, 854.1, 4.0)">S</text><text xml:space="preserve" font-family="HurmeGeometricSans4-SemiBold" font-weight="bold" font-size="101.9" fill="#5E5E5E" transform="matrix(1.00, 0.00, -0.00, -1.00, 912.0, 4.0)">E</text><text xml:space="preserve" font-family="HurmeGeometricSans4-SemiBold" font-weight="bold" font-size="101.9" fill="#5E5E5E" transform="matrix(1.00, 0.00, -0.00, -1.00, 970.9, 4.0)">G</text><text xml:space="preserve" font-family="HurmeGeometricSans4-SemiBold" font-weight="bold" font-size="101.9" fill="#5E5E5E" transform="matrix(1.00, 0.00, -0.00, -1.00, 1046.9, 4.0)">M</text><text xml:space="preserve" font-family="HurmeGeometricSans4-SemiBold" font-weight="bold" font-size="101.9" fill="#5E5E5E" transform="matrix(1.00, 0.00, -0.00, -1.00, 1135.3, 4.0)">E</text><text xml:space="preserve" font-family="HurmeGeometricSans4-SemiBold" font-weight="bold" font-size="101.9" fill="#5E5E5E" transform="matrix(1.00, 0.00, -0.00, -1.00, 1194.2, 4.0)">N</text><text xml:space="preserve" font-family="HurmeGeometricSans4-SemiBold" font-weight="bold" font-size="101.9" fill="#5E5E5E" transform="matrix(1.00, 0.00, -0.00, -1.00, 1271.1, 4.0)">T</text><text xml:space="preserve" font-family="HurmeGeometricSans4-SemiBold" font-weight="bold" font-size="101.9" fill="#5E5E5E" transform="matrix(1.00, 0.00, -0.00, -1.00, 1317.5, 4.0)">A</text><text xml:space="preserve" font-family="HurmeGeometricSans4-SemiBold" font-weight="bold" font-size="101.9" fill="#5E5E5E" transform="matrix(1.00, 0.00, -0.00, -1.00, 1383.5, 4.0)">T</text><text xml:space="preserve" font-family="HurmeGeometricSans4-SemiBold" font-weight="bold" font-size="101.9" fill="#5E5E5E" transform="matrix(1.00, 0.00, -0.00, -1.00, 1438.8, 4.0)">I</text><text xml:space="preserve" font-family="HurmeGeometricSans4-SemiBold" font-weight="bold" font-size="101.9" fill="#5E5E5E" transform="matrix(1.00, 0.00, -0.00, -1.00, 1468.2, 4.0)">O</text><text xml:space="preserve" font-family="HurmeGeometricSans4-SemiBold" font-weight="bold" font-size="101.9" fill="#5E5E5E" transform="matrix(1.00, 0.00, -0.00, -1.00, 1551.3, 4.0)">N</text></g></svg>