<?xml version="1.0" encoding="UTF-8" standalone="no"?><svg xmlns="http://www.w3.org/2000/svg" xmlns:xlink="http://www.w3.org/1999/xlink" clip-rule="evenodd" stroke-miterlimit="4.00" viewBox="0 0 1920 1080"><desc>SVG generated by Keynote</desc><defs></defs><g transform="matrix(1.00, 0.00, -0.00, -1.00, 0.0, 1080.0)"><path d="M 0.0 1080.0 L 1920.0 1080.0 L 1920.0 0.0 L 0.0 0.0 Z M 0.0 1080.0 " fill="#FEFFFF"></path><text xml:space="preserve" font-family="HurmeGeometricSans4-SemiBold" font-weight="bold" font-size="112.0" fill="#5E5E5E" transform="matrix(1.00, 0.00, -0.00, -1.00, 320.0, 925.0)">C</text><text xml:space="preserve" font-family="HurmeGeometricSans4-SemiBold" font-weight="bold" font-size="112.0" fill="#5E5E5E" transform="matrix(1.00, 0.00, -0.00, -1.00, 399.7, 925.0)">A</text><text xml:space="preserve" font-family="HurmeGeometricSans4-SemiBold" font-weight="bold" font-size="112.0" fill="#5E5E5E" transform="matrix(1.00, 0.00, -0.00, -1.00, 482.0, 925.0)">L</text><text xml:space="preserve" font-family="HurmeGeometricSans4-SemiBold" font-weight="bold" font-size="112.0" fill="#5E5E5E" transform="matrix(1.00, 0.00, -0.00, -1.00, 535.6, 925.0)">C</text><text xml:space="preserve" font-family="HurmeGeometricSans4-SemiBold" font-weight="bold" font-size="112.0" fill="#5E5E5E" transform="matrix(1.00, 0.00, -0.00, -1.00, 615.3, 925.0)">U</text><text xml:space="preserve" font-family="HurmeGeometricSans4-SemiBold" font-weight="bold" font-size="112.0" fill="#5E5E5E" transform="matrix(1.00, 0.00, -0.00, -1.00, 694.6, 925.0)">L</text><text xml:space="preserve" font-family="HurmeGeometricSans4-SemiBold" font-weight="bold" font-size="112.0" fill="#5E5E5E" transform="matrix(1.00, 0.00, -0.00, -1.00, 750.5, 925.0)">A</text><text xml:space="preserve" font-family="HurmeGeometricSans4-SemiBold" font-weight="bold" font-size="112.0" fill="#5E5E5E" transform="matrix(1.00, 0.00, -0.00, -1.00, 823.0, 925.0)">T</text><text xml:space="preserve" font-family="HurmeGeometricSans4-SemiBold" font-weight="bold" font-size="112.0" fill="#5E5E5E" transform="matrix(1.00, 0.00, -0.00, -1.00, 883.8, 925.0)">E</text><text xml:space="preserve" font-family="HurmeGeometricSans4-SemiBold" font-weight="bold" font-size="112.0" fill="#5E5E5E" transform="matrix(1.00, 0.00, -0.00, -1.00, 948.5, 925.0)"> </text><text xml:space="preserve" font-family="HurmeGeometricSans4-SemiBold" font-weight="bold" font-size="112.0" fill="#5E5E5E" transform="matrix(1.00, 0.00, -0.00, -1.00, 987.0, 925.0)">A</text><text xml:space="preserve" font-family="HurmeGeometricSans4-SemiBold" font-weight="bold" font-size="112.0" fill="#5E5E5E" transform="matrix(1.00, 0.00, -0.00, -1.00, 1064.5, 925.0)">C</text><text xml:space="preserve" font-family="HurmeGeometricSans4-SemiBold" font-weight="bold" font-size="112.0" fill="#5E5E5E" transform="matrix(1.00, 0.00, -0.00, -1.00, 1143.8, 925.0)">C</text><text xml:space="preserve" font-family="HurmeGeometricSans4-SemiBold" font-weight="bold" font-size="112.0" fill="#5E5E5E" transform="matrix(1.00, 0.00, -0.00, -1.00, 1223.5, 925.0)">U</text><text xml:space="preserve" font-family="HurmeGeometricSans4-SemiBold" font-weight="bold" font-size="112.0" fill="#5E5E5E" transform="matrix(1.00, 0.00, -0.00, -1.00, 1302.8, 925.0)">R</text><text xml:space="preserve" font-family="HurmeGeometricSans4-SemiBold" font-weight="bold" font-size="112.0" fill="#5E5E5E" transform="matrix(1.00, 0.00, -0.00, -1.00, 1371.3, 925.0)">A</text><text xml:space="preserve" font-family="HurmeGeometricSans4-SemiBold" font-weight="bold" font-size="112.0" fill="#5E5E5E" transform="matrix(1.00, 0.00, -0.00, -1.00, 1448.8, 925.0)">C</text><text xml:space="preserve" font-family="HurmeGeometricSans4-SemiBold" font-weight="bold" font-size="112.0" fill="#5E5E5E" transform="matrix(1.00, 0.00, -0.00, -1.00, 1526.4, 925.0)">Y</text><g opacity="0.80"><g><clipPath id="clip-766"><path d="M 259.0 40.0 L 661.0 40.0 L 661.0 1080.0 L 259.0 1080.0 Z M 259.0 40.0 "></path></clipPath><g clip-path="url(#clip-766)"><image xlink:href="../../83C4ECCC-9265-4D9E-8149-8A54482977F8/assets/BBBD20BB6C7CA63AA6BA2825FD591B43.png" width="132.00" height="534.00" transform="matrix(3.03, 0.00, -0.00, -2.62, 260.0, 1440.0)"></image></g></g></g><g opacity="0.70"><g><clipPath id="clip-767"><path d="M 260.0 1440.0 L 660.0 1440.0 L 660.0 42.0 L 260.0 42.0 Z M 260.4 1440.0 "></path></clipPath><g clip-path="url(#clip-767)"><g><clipPath id="clip-768"><path d="M 259.0 40.0 L 661.0 40.0 L 661.0 1080.0 L 259.0 1080.0 Z M 259.0 40.0 "></path></clipPath><g clip-path="url(#clip-768)"><image xlink:href="../../83C4ECCC-9265-4D9E-8149-8A54482977F8/assets/43C475C75DC5C678EF091F9DB5FC16CC.png" width="132.00" height="534.00" transform="matrix(3.03, 0.00, -0.00, -2.62, 260.0, 1440.0)"></image></g></g></g></g></g><image xlink:href="../../C2EDB9A6-27F4-4423-B6EC-03CDF0CA9BDB/assets/930447099AAB4B8C6C12042F4CDF6900.png" width="842.00" height="288.00" transform="matrix(1.48, 0.00, -0.00, -1.48, 513.0, 675.0)"></image></g></svg>