<?xml version="1.0" encoding="UTF-8" standalone="no"?><svg xmlns="http://www.w3.org/2000/svg" xmlns:xlink="http://www.w3.org/1999/xlink" clip-rule="evenodd" stroke-miterlimit="4.00" viewBox="0 0 409 263"><desc>SVG generated by Keynote</desc><defs><linearGradient id="gradSh1.13" x1="0.0" y1="0.0" x2="100.0" y2="0.0" gradientUnits="userSpaceOnUse" gradientTransform="matrix(4.02, 0.00, 0.00, -2.52, 3.5, 131.1)"><stop offset="0.00000" stop-color="#E3A535"></stop><stop offset="0.01173" stop-color="#E3A435"></stop><stop offset="0.29179" stop-color="#E19840"></stop><stop offset="0.30059" stop-color="#E19740"></stop><stop offset="1.00000" stop-color="#DC7859"></stop></linearGradient></defs><g transform="matrix(1.00, 0.00, -0.00, -1.00, 0.0, 263.0)"><image xlink:href="../../ACB504D6-39B2-48B8-8574-D9454584DAED/assets/2ED23C6B0003F639B4591751B1FF2A84.png" width="406.00" height="256.00" transform="matrix(1.00, 0.00, -0.00, -1.00, 1.5, 257.1)" opacity="0.50"></image><g><clipPath id="clip-726"><path d="M 4.5 255.7 L 324.5 256.1 L 404.5 131.0 L 324.9 6.8 L 4.9 6.1 L 84.2 130.5 L 4.5 255.7 Z M 4.5 255.7 "></path></clipPath><g clip-path="url(#clip-726)"><path d="M 4.5 255.7 L 324.5 256.1 L 404.5 131.0 L 324.9 6.8 L 4.9 6.1 L 84.2 130.5 L 4.5 255.7 Z M 4.5 255.7 " fill="url(#gradSh1.13)"></path></g></g><g><clipPath id="clip-727"><path d="M 4.5 6.1 L 404.5 6.1 L 404.5 256.1 L 4.5 256.1 Z M 4.5 6.1 "></path></clipPath><g clip-path="url(#clip-727)"><text xml:space="preserve" font-family="HurmeGeometricSans4-SemiBold" font-weight="bold" font-size="48.0" fill="#424242" transform="matrix(1.00, 0.00, -0.00, -1.00, 103.0, 127.0)">T</text><text xml:space="preserve" font-family="HurmeGeometricSans4-SemiBold" font-weight="bold" font-size="48.0" fill="#424242" transform="matrix(1.00, 0.00, -0.00, -1.00, 129.1, 127.0)">R</text><text xml:space="preserve" font-family="HurmeGeometricSans4-SemiBold" font-weight="bold" font-size="48.0" fill="#424242" transform="matrix(1.00, 0.00, -0.00, -1.00, 158.4, 127.0)">A</text><text xml:space="preserve" font-family="HurmeGeometricSans4-SemiBold" font-weight="bold" font-size="48.0" fill="#424242" transform="matrix(1.00, 0.00, -0.00, -1.00, 193.7, 127.0)">I</text><text xml:space="preserve" font-family="HurmeGeometricSans4-SemiBold" font-weight="bold" font-size="48.0" fill="#424242" transform="matrix(1.00, 0.00, -0.00, -1.00, 207.5, 127.0)">N</text><text xml:space="preserve" font-family="HurmeGeometricSans4-SemiBold" font-weight="bold" font-size="48.0" fill="#424242" transform="matrix(1.00, 0.00, -0.00, -1.00, 243.7, 127.0)">N</text><text xml:space="preserve" font-family="HurmeGeometricSans4-SemiBold" font-weight="bold" font-size="48.0" fill="#424242" transform="matrix(1.00, 0.00, -0.00, -1.00, 279.9, 127.0)">I</text><text xml:space="preserve" font-family="HurmeGeometricSans4-SemiBold" font-weight="bold" font-size="48.0" fill="#424242" transform="matrix(1.00, 0.00, -0.00, -1.00, 293.7, 127.0)">N</text><text xml:space="preserve" font-family="HurmeGeometricSans4-SemiBold" font-weight="bold" font-size="48.0" fill="#424242" transform="matrix(1.00, 0.00, -0.00, -1.00, 329.9, 127.0)">G</text></g></g></g></svg>