<?xml version="1.0" encoding="UTF-8" standalone="no"?><svg xmlns="http://www.w3.org/2000/svg" xmlns:xlink="http://www.w3.org/1999/xlink" clip-rule="evenodd" stroke-miterlimit="4.00" viewBox="0 0 409 263"><desc>SVG generated by Keynote</desc><defs><linearGradient id="gradSh1.15" x1="0.0" y1="0.0" x2="100.0" y2="0.0" gradientUnits="userSpaceOnUse" gradientTransform="matrix(4.02, 0.00, 0.00, -2.52, 3.4, 131.1)"><stop offset="0.00000" stop-color="#DA5C67"></stop><stop offset="0.01026" stop-color="#DA5B67"></stop><stop offset="1.00000" stop-color="#D52B73"></stop></linearGradient></defs><g transform="matrix(1.00, 0.00, -0.00, -1.00, 0.0, 263.0)"><image xlink:href="../../ACB504D6-39B2-48B8-8574-D9454584DAED/assets/2ED23C6B0003F639B4591751B1FF2A84.png" width="406.00" height="256.00" transform="matrix(1.00, 0.00, -0.00, -1.00, 1.4, 257.1)" opacity="0.50"></image><g><clipPath id="clip-730"><path d="M 4.4 255.7 L 324.4 256.1 L 404.4 131.0 L 324.8 6.8 L 4.9 6.1 L 84.2 130.5 L 4.4 255.7 Z M 4.4 255.7 "></path></clipPath><g clip-path="url(#clip-730)"><path d="M 4.4 255.7 L 324.4 256.1 L 404.4 131.0 L 324.8 6.8 L 4.9 6.1 L 84.2 130.5 L 4.4 255.7 Z M 4.4 255.7 " fill="url(#gradSh1.15)"></path></g></g><g><clipPath id="clip-731"><path d="M 4.4 6.1 L 404.4 6.1 L 404.4 256.1 L 4.4 256.1 Z M 4.4 6.1 "></path></clipPath><g clip-path="url(#clip-731)"><text xml:space="preserve" font-family="HurmeGeometricSans4-SemiBold" font-weight="bold" font-size="48.0" fill="#424242" transform="matrix(1.00, 0.00, -0.00, -1.00, 138.0, 127.0)">T</text><text xml:space="preserve" font-family="HurmeGeometricSans4-SemiBold" font-weight="bold" font-size="48.0" fill="#424242" transform="matrix(1.00, 0.00, -0.00, -1.00, 164.1, 127.0)">E</text><text xml:space="preserve" font-family="HurmeGeometricSans4-SemiBold" font-weight="bold" font-size="48.0" fill="#424242" transform="matrix(1.00, 0.00, -0.00, -1.00, 192.0, 127.0)">S</text><text xml:space="preserve" font-family="HurmeGeometricSans4-SemiBold" font-weight="bold" font-size="48.0" fill="#424242" transform="matrix(1.00, 0.00, -0.00, -1.00, 218.2, 127.0)">T</text><text xml:space="preserve" font-family="HurmeGeometricSans4-SemiBold" font-weight="bold" font-size="48.0" fill="#424242" transform="matrix(1.00, 0.00, -0.00, -1.00, 244.3, 127.0)">I</text><text xml:space="preserve" font-family="HurmeGeometricSans4-SemiBold" font-weight="bold" font-size="48.0" fill="#424242" transform="matrix(1.00, 0.00, -0.00, -1.00, 258.1, 127.0)">N</text><text xml:space="preserve" font-family="HurmeGeometricSans4-SemiBold" font-weight="bold" font-size="48.0" fill="#424242" transform="matrix(1.00, 0.00, -0.00, -1.00, 294.3, 127.0)">G</text></g></g></g></svg>