<?xml version="1.0" encoding="UTF-8" standalone="no"?><svg xmlns="http://www.w3.org/2000/svg" xmlns:xlink="http://www.w3.org/1999/xlink" clip-rule="evenodd" stroke-miterlimit="4.00" viewBox="0 0 1920 1080"><desc>SVG generated by Keynote</desc><defs></defs><g transform="matrix(1.00, 0.00, -0.00, -1.00, 0.0, 1080.0)"><path d="M 0.0 1080.0 L 1920.0 1080.0 L 1920.0 0.0 L 0.0 0.0 Z M 0.0 1080.0 " fill="#FEFFFF"></path><text xml:space="preserve" font-family="HurmeGeometricSans4-SemiBold" font-weight="bold" font-size="112.0" fill="#5E5E5E" transform="matrix(1.00, 0.00, -0.00, -1.00, 519.0, 925.0)">T</text><text xml:space="preserve" font-family="HurmeGeometricSans4-SemiBold" font-weight="bold" font-size="112.0" fill="#5E5E5E" transform="matrix(1.00, 0.00, -0.00, -1.00, 579.8, 925.0)">E</text><text xml:space="preserve" font-family="HurmeGeometricSans4-SemiBold" font-weight="bold" font-size="112.0" fill="#5E5E5E" transform="matrix(1.00, 0.00, -0.00, -1.00, 645.0, 925.0)">S</text><text xml:space="preserve" font-family="HurmeGeometricSans4-SemiBold" font-weight="bold" font-size="112.0" fill="#5E5E5E" transform="matrix(1.00, 0.00, -0.00, -1.00, 706.2, 925.0)">T</text><text xml:space="preserve" font-family="HurmeGeometricSans4-SemiBold" font-weight="bold" font-size="112.0" fill="#5E5E5E" transform="matrix(1.00, 0.00, -0.00, -1.00, 767.0, 925.0)">I</text><text xml:space="preserve" font-family="HurmeGeometricSans4-SemiBold" font-weight="bold" font-size="112.0" fill="#5E5E5E" transform="matrix(1.00, 0.00, -0.00, -1.00, 799.2, 925.0)">N</text><text xml:space="preserve" font-family="HurmeGeometricSans4-SemiBold" font-weight="bold" font-size="112.0" fill="#5E5E5E" transform="matrix(1.00, 0.00, -0.00, -1.00, 883.7, 925.0)">G</text><text xml:space="preserve" font-family="HurmeGeometricSans4-SemiBold" font-weight="bold" font-size="112.0" fill="#5E5E5E" transform="matrix(1.00, 0.00, -0.00, -1.00, 967.2, 925.0)"> </text><text xml:space="preserve" font-family="HurmeGeometricSans4-SemiBold" font-weight="bold" font-size="112.0" fill="#5E5E5E" transform="matrix(1.00, 0.00, -0.00, -1.00, 1012.8, 925.0)">R</text><text xml:space="preserve" font-family="HurmeGeometricSans4-SemiBold" font-weight="bold" font-size="112.0" fill="#5E5E5E" transform="matrix(1.00, 0.00, -0.00, -1.00, 1084.0, 925.0)">E</text><text xml:space="preserve" font-family="HurmeGeometricSans4-SemiBold" font-weight="bold" font-size="112.0" fill="#5E5E5E" transform="matrix(1.00, 0.00, -0.00, -1.00, 1149.2, 925.0)">S</text><text xml:space="preserve" font-family="HurmeGeometricSans4-SemiBold" font-weight="bold" font-size="112.0" fill="#5E5E5E" transform="matrix(1.00, 0.00, -0.00, -1.00, 1212.5, 925.0)">U</text><text xml:space="preserve" font-family="HurmeGeometricSans4-SemiBold" font-weight="bold" font-size="112.0" fill="#5E5E5E" transform="matrix(1.00, 0.00, -0.00, -1.00, 1291.8, 925.0)">L</text><text xml:space="preserve" font-family="HurmeGeometricSans4-SemiBold" font-weight="bold" font-size="112.0" fill="#5E5E5E" transform="matrix(1.00, 0.00, -0.00, -1.00, 1340.4, 925.0)">T</text><image xlink:href="../../D35177F8-5F38-46AB-93E9-A6D3014E769C/assets/EC46D3F6A68B356F3C7D17C420556E80.png" width="136.00" height="541.00" transform="matrix(1.47, 0.00, -0.00, -1.29, 380.0, 864.0)"></image><image xlink:href="../../D35177F8-5F38-46AB-93E9-A6D3014E769C/assets/073BD88DDCB3173D4F1F9B2DC921C8F5.png" width="220.00" height="726.00" transform="matrix(1.00, 0.00, -0.00, 1.00, 370.0, 145.0)"></image><image xlink:href="7EF7417F63176ED3B7C4676876616006.png" width="134.00" height="535.00" transform="matrix(1.49, 0.00, -0.00, -1.31, 700.0, 864.0)"></image><image xlink:href="../../D35177F8-5F38-46AB-93E9-A6D3014E769C/assets/073BD88DDCB3173D4F1F9B2DC921C8F5.png" width="220.00" height="726.00" transform="matrix(1.00, 0.00, -0.00, 1.00, 690.0, 145.0)"></image><image xlink:href="FF844ED199D118FFE15782C0E9F66A3D.png" width="290.00" height="1216.00" transform="matrix(1.00, 0.00, -0.00, -1.00, 975.2, 1121.7)"></image><image xlink:href="D1EE185A0DBD24DF48A388173B0CB53E.png" width="85.00" height="342.00" transform="matrix(2.35, 0.00, -0.00, -2.05, 1020.0, 864.0)"></image><path d="M -0.2 0.4 L 199.8 0.4 L 199.8 700.4 L -0.2 700.4 Z M -0.2 0.4 " fill="none" stroke="#DC7758" stroke-width="10.00" transform="matrix(1.00, 0.00, 0.00, -1.00, 1020.2, 864.4)"></path><image xlink:href="1C0A4ADA421288F864D8CA369BD0C0F5.png" width="132.00" height="535.00" transform="matrix(1.52, 0.00, -0.00, -1.31, 1340.0, 864.0)"></image><image xlink:href="../../D35177F8-5F38-46AB-93E9-A6D3014E769C/assets/073BD88DDCB3173D4F1F9B2DC921C8F5.png" width="220.00" height="726.00" transform="matrix(1.00, 0.00, -0.00, 1.00, 1330.0, 145.0)"></image><text xml:space="preserve" font-family="HurmeGeometricSans3-Regular" font-size="50.0" fill="#000000" transform="matrix(1.00, 0.00, -0.00, -1.00, 393.0, 68.0)">O</text><text xml:space="preserve" font-family="HurmeGeometricSans3-Regular" font-size="50.0" fill="#000000" transform="matrix(1.00, 0.00, -0.00, -1.00, 434.0, 68.0)">r</text><text xml:space="preserve" font-family="HurmeGeometricSans3-Regular" font-size="50.0" fill="#000000" transform="matrix(1.00, 0.00, -0.00, -1.00, 452.1, 68.0)">i</text><text xml:space="preserve" font-family="HurmeGeometricSans3-Regular" font-size="50.0" fill="#000000" transform="matrix(1.00, 0.00, -0.00, -1.00, 461.6, 68.0)">g</text><text xml:space="preserve" font-family="HurmeGeometricSans3-Regular" font-size="50.0" fill="#000000" transform="matrix(1.00, 0.00, -0.00, -1.00, 491.6, 68.0)">i</text><text xml:space="preserve" font-family="HurmeGeometricSans3-Regular" font-size="50.0" fill="#000000" transform="matrix(1.00, 0.00, -0.00, -1.00, 501.1, 68.0)">n</text><text xml:space="preserve" font-family="HurmeGeometricSans3-Regular" font-size="50.0" fill="#000000" transform="matrix(1.00, 0.00, -0.00, -1.00, 527.6, 68.0)">a</text><text xml:space="preserve" font-family="HurmeGeometricSans3-Regular" font-size="50.0" fill="#000000" transform="matrix(1.00, 0.00, -0.00, -1.00, 557.6, 68.0)">l</text><text xml:space="preserve" font-family="HurmeGeometricSans3-Regular" font-size="50.0" fill="#000000" transform="matrix(1.00, 0.00, -0.00, -1.00, 685.0, 68.0)">K</text><text xml:space="preserve" font-family="HurmeGeometricSans3-Regular" font-size="50.0" fill="#000000" transform="matrix(1.00, 0.00, -0.00, -1.00, 714.6, 68.0)">e</text><text xml:space="preserve" font-family="HurmeGeometricSans3-Regular" font-size="50.0" fill="#000000" transform="matrix(1.00, 0.00, -0.00, -1.00, 741.7, 68.0)">y</text><text xml:space="preserve" font-family="HurmeGeometricSans3-Regular" font-size="50.0" fill="#000000" transform="matrix(1.00, 0.00, -0.00, -1.00, 766.2, 68.0)"> </text><text xml:space="preserve" font-family="HurmeGeometricSans3-Regular" font-size="50.0" fill="#000000" transform="matrix(1.00, 0.00, -0.00, -1.00, 786.8, 68.0)">P</text><text xml:space="preserve" font-family="HurmeGeometricSans3-Regular" font-size="50.0" fill="#000000" transform="matrix(1.00, 0.00, -0.00, -1.00, 814.0, 68.0)">o</text><text xml:space="preserve" font-family="HurmeGeometricSans3-Regular" font-size="50.0" fill="#000000" transform="matrix(1.00, 0.00, -0.00, -1.00, 844.2, 68.0)">i</text><text xml:space="preserve" font-family="HurmeGeometricSans3-Regular" font-size="50.0" fill="#000000" transform="matrix(1.00, 0.00, -0.00, -1.00, 853.8, 68.0)">n</text><text xml:space="preserve" font-family="HurmeGeometricSans3-Regular" font-size="50.0" fill="#000000" transform="matrix(1.00, 0.00, -0.00, -1.00, 880.4, 68.0)">t</text><text xml:space="preserve" font-family="HurmeGeometricSans3-Regular" font-size="50.0" fill="#000000" transform="matrix(1.00, 0.00, -0.00, -1.00, 895.8, 68.0)">s</text><text xml:space="preserve" font-family="HurmeGeometricSans3-Regular" font-size="50.0" fill="#000000" transform="matrix(1.00, 0.00, -0.00, -1.00, 916.0, 68.0)"> </text><text xml:space="preserve" font-family="HurmeGeometricSans3-Regular" font-size="50.0" fill="#000000" transform="matrix(1.00, 0.00, -0.00, -1.00, 981.0, 68.0)">N</text><text xml:space="preserve" font-family="HurmeGeometricSans3-Regular" font-size="50.0" fill="#000000" transform="matrix(1.00, 0.00, -0.00, -1.00, 1018.5, 68.0)">o</text><text xml:space="preserve" font-family="HurmeGeometricSans3-Regular" font-size="50.0" fill="#000000" transform="matrix(1.00, 0.00, -0.00, -1.00, 1048.3, 68.0)"> </text><text xml:space="preserve" font-family="HurmeGeometricSans3-Regular" font-size="50.0" fill="#000000" transform="matrix(1.00, 0.00, -0.00, -1.00, 1069.0, 68.0)">D</text><text xml:space="preserve" font-family="HurmeGeometricSans3-Regular" font-size="50.0" fill="#000000" transform="matrix(1.00, 0.00, -0.00, -1.00, 1105.2, 68.0)">i</text><text xml:space="preserve" font-family="HurmeGeometricSans3-Regular" font-size="50.0" fill="#000000" transform="matrix(1.00, 0.00, -0.00, -1.00, 1114.8, 68.0)">s</text><text xml:space="preserve" font-family="HurmeGeometricSans3-Regular" font-size="50.0" fill="#000000" transform="matrix(1.00, 0.00, -0.00, -1.00, 1135.5, 68.0)">t</text><text xml:space="preserve" font-family="HurmeGeometricSans3-Regular" font-size="50.0" fill="#000000" transform="matrix(1.00, 0.00, -0.00, -1.00, 1149.4, 68.0)">a</text><text xml:space="preserve" font-family="HurmeGeometricSans3-Regular" font-size="50.0" fill="#000000" transform="matrix(1.00, 0.00, -0.00, -1.00, 1179.3, 68.0)">n</text><text xml:space="preserve" font-family="HurmeGeometricSans3-Regular" font-size="50.0" fill="#000000" transform="matrix(1.00, 0.00, -0.00, -1.00, 1205.9, 68.0)">c</text><text xml:space="preserve" font-family="HurmeGeometricSans3-Regular" font-size="50.0" fill="#000000" transform="matrix(1.00, 0.00, -0.00, -1.00, 1231.8, 68.0)">e</text><text xml:space="preserve" font-family="HurmeGeometricSans3-Regular" font-size="50.0" fill="#000000" transform="matrix(1.00, 0.00, -0.00, -1.00, 1363.0, 68.0)">D</text><text xml:space="preserve" font-family="HurmeGeometricSans3-Regular" font-size="50.0" fill="#000000" transform="matrix(1.00, 0.00, -0.00, -1.00, 1399.3, 68.0)">o</text><text xml:space="preserve" font-family="HurmeGeometricSans3-Regular" font-size="50.0" fill="#000000" transform="matrix(1.00, 0.00, -0.00, -1.00, 1429.6, 68.0)">c</text><text xml:space="preserve" font-family="HurmeGeometricSans3-Regular" font-size="50.0" fill="#000000" transform="matrix(1.00, 0.00, -0.00, -1.00, 1455.5, 68.0)">t</text><text xml:space="preserve" font-family="HurmeGeometricSans3-Regular" font-size="50.0" fill="#000000" transform="matrix(1.00, 0.00, -0.00, -1.00, 1469.3, 68.0)">o</text><text xml:space="preserve" font-family="HurmeGeometricSans3-Regular" font-size="50.0" fill="#000000" transform="matrix(1.00, 0.00, -0.00, -1.00, 1499.7, 68.0)">r</text></g></svg>