<?xml version="1.0" encoding="UTF-8" standalone="no"?><svg xmlns="http://www.w3.org/2000/svg" xmlns:xlink="http://www.w3.org/1999/xlink" clip-rule="evenodd" stroke-miterlimit="10" viewBox="0 0 1920 1080"><desc>SVG generated by Keynote</desc><defs></defs><g transform="matrix(1.00, 0.00, -0.00, -1.00, 0.0, 1080.0)"><g><clipPath id="clip0x7fbe67301900"><path d="M 0.0 1080.0 L 1920.0 1080.0 L 1920.0 0.0 L 0.0 0.0 Z M 0.0 1080.0 "></path></clipPath><g clip-path="url(#clip0x7fbe67301900)"><image xlink:href="../../92C41203-608F-4CA2-BB45-47A281EB484E/assets/E2F31E63E9407399ED1E785261896202.png" width="4000.00" height="2672.00" transform="matrix(0.48, 0.00, -0.00, -0.48, 0.0, 1181.3)"></image></g></g><image xlink:href="../../92C41203-608F-4CA2-BB45-47A281EB484E/assets/9127B55CB9D2512F5B840186A9CDD1AD.png" width="1071.00" height="928.00" transform="matrix(1.00, 0.00, -0.00, -1.00, 652.8, 1008.5)"></image><text xml:space="preserve" font-family="Helvetica-Light,Helvetica" font-size="256.0" fill="#FEFFFF" transform="matrix(1.00, 0.00, -0.00, -1.00, 732.9, 558.1)">T</text><text xml:space="preserve" font-family="Helvetica-Light,Helvetica" font-size="256.0" fill="#FEFFFF" transform="matrix(1.00, 0.00, -0.00, -1.00, 875.2, 558.1)">h</text><text xml:space="preserve" font-family="Helvetica-Light,Helvetica" font-size="256.0" fill="#FEFFFF" transform="matrix(1.00, 0.00, -0.00, -1.00, 1017.6, 558.1)">a</text><text xml:space="preserve" font-family="Helvetica-Light,Helvetica" font-size="256.0" fill="#FEFFFF" transform="matrix(1.00, 0.00, -0.00, -1.00, 1159.9, 558.1)">n</text><text xml:space="preserve" font-family="Helvetica-Light,Helvetica" font-size="256.0" fill="#FEFFFF" transform="matrix(1.00, 0.00, -0.00, -1.00, 1302.3, 558.1)">k</text><text xml:space="preserve" font-family="Helvetica-Light,Helvetica" font-size="256.0" fill="#FEFFFF" transform="matrix(1.00, 0.00, -0.00, -1.00, 1430.3, 558.1)">s</text><text xml:space="preserve" font-family="Helvetica-Light,Helvetica" font-size="256.0" fill="#FEFFFF" transform="matrix(1.00, 0.00, -0.00, -1.00, 1558.3, 558.1)">!</text><text xml:space="preserve" font-family="Helvetica-Light,Helvetica" font-size="256.0" fill="#FEFFFF" transform="matrix(1.00, 0.00, -0.00, -1.00, 1643.5, 558.1)"> </text><text xml:space="preserve" font-family="Helvetica-Light,Helvetica" font-size="256.0" fill="#FEFFFF" transform="matrix(1.00, 0.00, -0.00, -1.00, 917.9, 343.2)">Q</text><text xml:space="preserve" font-family="Helvetica-Light,Helvetica" font-size="256.0" fill="#FEFFFF" transform="matrix(1.00, 0.00, -0.00, -1.00, 1117.0, 343.2)">&amp;</text><text xml:space="preserve" font-family="Helvetica-Light,Helvetica" font-size="256.0" fill="#FEFFFF" transform="matrix(1.00, 0.00, -0.00, -1.00, 1287.8, 343.2)">A</text><text xml:space="preserve" font-family="Helvetica-Light,Helvetica" font-size="36.0" fill="#FEFFFF" transform="matrix(1.00, 0.00, -0.00, -1.00, 1794.9, 11.7)">©</text><text xml:space="preserve" font-family="Helvetica-Light,Helvetica" font-size="36.0" fill="#FEFFFF" transform="matrix(1.00, 0.00, -0.00, -1.00, 1823.7, 11.7)">F</text><text xml:space="preserve" font-family="Helvetica-Light,Helvetica" font-size="36.0" fill="#FEFFFF" transform="matrix(1.00, 0.00, -0.00, -1.00, 1843.7, 11.7)">l</text><text xml:space="preserve" font-family="Helvetica-Light,Helvetica" font-size="36.0" fill="#FEFFFF" transform="matrix(1.00, 0.00, -0.00, -1.00, 1851.7, 11.7)">i</text><text xml:space="preserve" font-family="Helvetica-Light,Helvetica" font-size="36.0" fill="#FEFFFF" transform="matrix(1.00, 0.00, -0.00, -1.00, 1859.7, 11.7)">c</text><text xml:space="preserve" font-family="Helvetica-Light,Helvetica" font-size="36.0" fill="#FEFFFF" transform="matrix(1.00, 0.00, -0.00, -1.00, 1879.7, 11.7)">k</text><text xml:space="preserve" font-family="Helvetica-Light,Helvetica" font-size="36.0" fill="#FEFFFF" transform="matrix(1.00, 0.00, -0.00, -1.00, 1897.7, 11.7)">r</text><image xlink:href="../../1552D041-5B07-4115-81E9-1B9401547BCC/assets/A5E0D44F65EC64DD367EA00CCE3D6D9E.png" width="512.00" height="512.00" transform="matrix(1.00, 0.00, -0.00, -1.00, 236.0, 782.0)"></image></g></svg>