<?xml version="1.0" encoding="UTF-8" standalone="no"?><svg xmlns="http://www.w3.org/2000/svg" xmlns:xlink="http://www.w3.org/1999/xlink" clip-rule="evenodd" stroke-miterlimit="4.00" viewBox="0 0 1920 1080"><desc>SVG generated by Keynote</desc><defs></defs><g transform="matrix(1.00, 0.00, -0.00, -1.00, 0.0, 1080.0)"><path d="M 0.0 1080.0 L 1920.0 1080.0 L 1920.0 0.0 L 0.0 0.0 Z M 0.0 1080.0 " fill="#FEFFFF"></path><text xml:space="preserve" font-family="HurmeGeometricSans4-SemiBold" font-weight="bold" font-size="112.0" fill="#5E5E5E" transform="matrix(1.00, 0.00, -0.00, -1.00, 572.0, 925.0)">D</text><text xml:space="preserve" font-family="HurmeGeometricSans4-SemiBold" font-weight="bold" font-size="112.0" fill="#5E5E5E" transform="matrix(1.00, 0.00, -0.00, -1.00, 654.1, 925.0)">R</text><text xml:space="preserve" font-family="HurmeGeometricSans4-SemiBold" font-weight="bold" font-size="112.0" fill="#5E5E5E" transform="matrix(1.00, 0.00, -0.00, -1.00, 722.6, 925.0)">A</text><text xml:space="preserve" font-family="HurmeGeometricSans4-SemiBold" font-weight="bold" font-size="112.0" fill="#5E5E5E" transform="matrix(1.00, 0.00, -0.00, -1.00, 793.5, 925.0)">W</text><text xml:space="preserve" font-family="HurmeGeometricSans4-SemiBold" font-weight="bold" font-size="112.0" fill="#5E5E5E" transform="matrix(1.00, 0.00, -0.00, -1.00, 894.9, 925.0)"> </text><text xml:space="preserve" font-family="HurmeGeometricSans4-SemiBold" font-weight="bold" font-size="112.0" fill="#5E5E5E" transform="matrix(1.00, 0.00, -0.00, -1.00, 940.5, 925.0)">E</text><text xml:space="preserve" font-family="HurmeGeometricSans4-SemiBold" font-weight="bold" font-size="112.0" fill="#5E5E5E" transform="matrix(1.00, 0.00, -0.00, -1.00, 1005.2, 925.0)">L</text><text xml:space="preserve" font-family="HurmeGeometricSans4-SemiBold" font-weight="bold" font-size="112.0" fill="#5E5E5E" transform="matrix(1.00, 0.00, -0.00, -1.00, 1062.4, 925.0)">L</text><text xml:space="preserve" font-family="HurmeGeometricSans4-SemiBold" font-weight="bold" font-size="112.0" fill="#5E5E5E" transform="matrix(1.00, 0.00, -0.00, -1.00, 1119.7, 925.0)">I</text><text xml:space="preserve" font-family="HurmeGeometricSans4-SemiBold" font-weight="bold" font-size="112.0" fill="#5E5E5E" transform="matrix(1.00, 0.00, -0.00, -1.00, 1151.9, 925.0)">P</text><text xml:space="preserve" font-family="HurmeGeometricSans4-SemiBold" font-weight="bold" font-size="112.0" fill="#5E5E5E" transform="matrix(1.00, 0.00, -0.00, -1.00, 1219.0, 925.0)">S</text><text xml:space="preserve" font-family="HurmeGeometricSans4-SemiBold" font-weight="bold" font-size="112.0" fill="#5E5E5E" transform="matrix(1.00, 0.00, -0.00, -1.00, 1282.6, 925.0)">E</text><image xlink:href="../../0FFE58DA-B6E4-4EC5-B380-22EAD88AD249/assets/988408168D80DD1D946F7635BC17CEA9.png" width="134.00" height="535.00" transform="matrix(1.49, 0.00, -0.00, -1.31, 261.0, 818.0)"></image><image xlink:href="../../D35177F8-5F38-46AB-93E9-A6D3014E769C/assets/073BD88DDCB3173D4F1F9B2DC921C8F5.png" width="220.00" height="726.00" transform="matrix(1.00, 0.00, -0.00, 1.00, 251.0, 99.0)"></image><image xlink:href="../../0FFE58DA-B6E4-4EC5-B380-22EAD88AD249/assets/24A9F830198B221034E67D3A787407F9.png" width="938.00" height="390.00" transform="matrix(1.39, 0.00, -0.00, -1.39, 523.0, 733.0)"></image><path d="M 0.0 0.0 L 236.9 0.0 " fill="none" stroke="#D42B73" stroke-width="10.00" transform="matrix(0.00, 1.00, 1.00, 0.00, 321.1, 329.9)"></path><path d="M 0.0 0.0 L 199.6 0.0 " fill="none" stroke="#D42B73" stroke-width="10.00" transform="matrix(0.00, 1.00, 1.00, 0.00, 320.8, 130.3)"></path><path d="M 0.0 0.0 L 59.3 0.0 " fill="none" stroke="#E3A434" stroke-width="10.00" transform="matrix(1.00, 0.00, 0.00, -1.00, 322.5, 330.7)"></path><path d="M 0.0 0.0 L 48.2 0.0 " fill="none" stroke="#E3A434" stroke-width="10.00" transform="matrix(1.00, 0.00, 0.00, -1.00, 273.5, 330.7)"></path><image xlink:href="../../0FFE58DA-B6E4-4EC5-B380-22EAD88AD249/assets/428CFE0032BD411763DC030CD468DE6D.png" width="22.00" height="22.00" transform="matrix(1.01, 0.00, -0.00, -1.01, 309.7, 339.8)" opacity="0.50"></image><path d="M 326.5 336.4 C 329.7 333.3 329.7 328.2 326.5 325.0 C 323.4 321.8 318.2 321.8 315.1 325.0 C 311.9 328.2 311.9 333.3 315.1 336.4 C 318.2 339.6 323.4 339.6 326.5 336.4 Z M 326.5 336.4 " fill="#DA5B67"></path><text xml:space="preserve" font-family="HurmeGeometricSans3-Regular" font-size="50.0" fill="#000000" transform="matrix(1.00, 0.00, -0.00, -1.00, 290.0, 407.0)">a</text><text xml:space="preserve" font-family="HurmeGeometricSans3-Regular" font-size="50.0" fill="#000000" transform="matrix(1.00, 0.00, -0.00, -1.00, 319.0, 407.0)">1</text><text xml:space="preserve" font-family="HurmeGeometricSans3-Regular" font-size="50.0" fill="#000000" transform="matrix(1.00, 0.00, -0.00, -1.00, 289.0, 217.0)">a</text><text xml:space="preserve" font-family="HurmeGeometricSans3-Regular" font-size="50.0" fill="#000000" transform="matrix(1.00, 0.00, -0.00, -1.00, 318.9, 217.0)">2</text><text xml:space="preserve" font-family="HurmeGeometricSans3-Regular" font-size="50.0" fill="#000000" transform="matrix(1.00, 0.00, -0.00, -1.00, 270.0, 317.0)">b</text><text xml:space="preserve" font-family="HurmeGeometricSans3-Regular" font-size="50.0" fill="#000000" transform="matrix(1.00, 0.00, -0.00, -1.00, 298.5, 317.0)">1</text><text xml:space="preserve" font-family="HurmeGeometricSans3-Regular" font-size="50.0" fill="#000000" transform="matrix(1.00, 0.00, -0.00, -1.00, 334.0, 317.0)">b</text><text xml:space="preserve" font-family="HurmeGeometricSans3-Regular" font-size="50.0" fill="#000000" transform="matrix(1.00, 0.00, -0.00, -1.00, 362.5, 317.0)">2</text></g></svg>