<?xml version="1.0" encoding="UTF-8" standalone="no"?><svg xmlns="http://www.w3.org/2000/svg" xmlns:xlink="http://www.w3.org/1999/xlink" clip-rule="evenodd" stroke-miterlimit="10" viewBox="0 0 1920 1080"><desc>SVG generated by Keynote</desc><defs></defs><g transform="matrix(1.00, 0.00, -0.00, -1.00, 0.0, 1080.0)"><image xlink:href="5313BE11A6E32D8C39AB666CD76C1C7B.png" width="1920.00" height="1080.00" transform="matrix(1.00, 0.00, -0.00, -1.00, 0.0, 1080.0)"></image><image xlink:href="../../31F4D2FD-2DAD-46C9-B92F-BC427726094B/assets/999A44880C3699254496C9545ABA5CD2.png" width="117.00" height="162.00" transform="matrix(1.00, 0.00, -0.00, -1.00, 48.0, 762.0)"></image><image xlink:href="../../31F4D2FD-2DAD-46C9-B92F-BC427726094B/assets/999A44880C3699254496C9545ABA5CD2.png" width="117.00" height="162.00" transform="matrix(1.00, 0.00, -0.00, -1.00, 178.0, 762.0)"></image><image xlink:href="../../31F4D2FD-2DAD-46C9-B92F-BC427726094B/assets/A2C31BC8FF0BF3B14EB6AC245BAD317E.png" width="117.00" height="162.00" transform="matrix(1.00, 0.00, -0.00, -1.00, 309.0, 762.0)"></image><image xlink:href="../../31F4D2FD-2DAD-46C9-B92F-BC427726094B/assets/999A44880C3699254496C9545ABA5CD2.png" width="117.00" height="162.00" transform="matrix(1.00, 0.00, -0.00, -1.00, 439.0, 762.0)"></image><image xlink:href="../../31F4D2FD-2DAD-46C9-B92F-BC427726094B/assets/999A44880C3699254496C9545ABA5CD2.png" width="117.00" height="162.00" transform="matrix(1.00, 0.00, -0.00, -1.00, 569.0, 762.0)"></image><image xlink:href="../../31F4D2FD-2DAD-46C9-B92F-BC427726094B/assets/A2C31BC8FF0BF3B14EB6AC245BAD317E.png" width="117.00" height="162.00" transform="matrix(1.00, 0.00, -0.00, -1.00, 700.0, 762.0)"></image><image xlink:href="../../31F4D2FD-2DAD-46C9-B92F-BC427726094B/assets/A2C31BC8FF0BF3B14EB6AC245BAD317E.png" width="117.00" height="162.00" transform="matrix(1.00, 0.00, -0.00, -1.00, 830.0, 762.0)"></image><image xlink:href="../../31F4D2FD-2DAD-46C9-B92F-BC427726094B/assets/999A44880C3699254496C9545ABA5CD2.png" width="117.00" height="162.00" transform="matrix(1.00, 0.00, -0.00, -1.00, 960.0, 762.0)"></image><image xlink:href="../../31F4D2FD-2DAD-46C9-B92F-BC427726094B/assets/A2C31BC8FF0BF3B14EB6AC245BAD317E.png" width="117.00" height="162.00" transform="matrix(1.00, 0.00, -0.00, -1.00, 1091.0, 762.0)"></image><image xlink:href="../../31F4D2FD-2DAD-46C9-B92F-BC427726094B/assets/6D39F2BDC3354604E5FE8DE5B89ED4D2.png" width="117.00" height="162.00" transform="matrix(1.00, 0.00, -0.00, -1.00, 48.0, 593.0)"></image><image xlink:href="../../31F4D2FD-2DAD-46C9-B92F-BC427726094B/assets/6D39F2BDC3354604E5FE8DE5B89ED4D2.png" width="117.00" height="162.00" transform="matrix(1.00, 0.00, -0.00, -1.00, 178.0, 593.0)"></image><image xlink:href="../../31F4D2FD-2DAD-46C9-B92F-BC427726094B/assets/AC26CE7D7276C8096CBB18BDC4094631.png" width="117.00" height="162.00" transform="matrix(1.00, 0.00, -0.00, -1.00, 309.0, 593.0)"></image><image xlink:href="../../31F4D2FD-2DAD-46C9-B92F-BC427726094B/assets/6D39F2BDC3354604E5FE8DE5B89ED4D2.png" width="117.00" height="162.00" transform="matrix(1.00, 0.00, -0.00, -1.00, 439.0, 593.0)"></image><image xlink:href="../../31F4D2FD-2DAD-46C9-B92F-BC427726094B/assets/6D39F2BDC3354604E5FE8DE5B89ED4D2.png" width="117.00" height="162.00" transform="matrix(1.00, 0.00, -0.00, -1.00, 569.0, 593.0)"></image><image xlink:href="../../31F4D2FD-2DAD-46C9-B92F-BC427726094B/assets/AC26CE7D7276C8096CBB18BDC4094631.png" width="117.00" height="162.00" transform="matrix(1.00, 0.00, -0.00, -1.00, 700.0, 593.0)"></image><image xlink:href="../../31F4D2FD-2DAD-46C9-B92F-BC427726094B/assets/AC26CE7D7276C8096CBB18BDC4094631.png" width="117.00" height="162.00" transform="matrix(1.00, 0.00, -0.00, -1.00, 830.0, 593.0)"></image><image xlink:href="../../31F4D2FD-2DAD-46C9-B92F-BC427726094B/assets/6D39F2BDC3354604E5FE8DE5B89ED4D2.png" width="117.00" height="162.00" transform="matrix(1.00, 0.00, -0.00, -1.00, 960.0, 593.0)"></image><image xlink:href="../../31F4D2FD-2DAD-46C9-B92F-BC427726094B/assets/AC26CE7D7276C8096CBB18BDC4094631.png" width="117.00" height="162.00" transform="matrix(1.00, 0.00, -0.00, -1.00, 1091.0, 593.0)"></image><image xlink:href="../../31F4D2FD-2DAD-46C9-B92F-BC427726094B/assets/A2C31BC8FF0BF3B14EB6AC245BAD317E.png" width="117.00" height="162.00" transform="matrix(1.00, 0.00, -0.00, -1.00, 1221.0, 762.0)"></image><image xlink:href="../../31F4D2FD-2DAD-46C9-B92F-BC427726094B/assets/AC26CE7D7276C8096CBB18BDC4094631.png" width="117.00" height="162.00" transform="matrix(1.00, 0.00, -0.00, -1.00, 1221.0, 593.0)"></image><image xlink:href="72D8376AE18968DD01895B2EA8444C69.png" width="219.00" height="308.00" transform="matrix(1.00, 0.00, -0.00, -1.00, 1499.0, 844.0)"></image><image xlink:href="../../31F4D2FD-2DAD-46C9-B92F-BC427726094B/assets/85A170BBD23E091C2BF6C215FA23F602.png" width="117.00" height="170.00" transform="matrix(1.00, 0.00, -0.00, -1.00, 49.0, 233.0)"></image><image xlink:href="../../31F4D2FD-2DAD-46C9-B92F-BC427726094B/assets/85A170BBD23E091C2BF6C215FA23F602.png" width="117.00" height="170.00" transform="matrix(1.00, 0.00, -0.00, -1.00, 178.0, 233.0)"></image><image xlink:href="E83F188B1A52806E7DBAF4E9E8A20380.png" width="220.00" height="308.00" transform="matrix(1.00, 0.00, -0.00, -1.00, 1500.0, 301.0)"></image><image xlink:href="2ABA00AA67941FA07F69E53D692C593D.png" width="1086.00" height="203.00" transform="matrix(1.00, 0.00, -0.00, -1.00, 415.0, 1018.0)"></image><image xlink:href="../../31F4D2FD-2DAD-46C9-B92F-BC427726094B/assets/85A170BBD23E091C2BF6C215FA23F602.png" width="117.00" height="170.00" transform="matrix(1.00, 0.00, -0.00, -1.00, 307.0, 233.0)"></image><image xlink:href="../../31F4D2FD-2DAD-46C9-B92F-BC427726094B/assets/C6FE46C7FC3B8E4CC069BC9F2B23F01A.png" width="117.00" height="170.00" transform="matrix(1.00, 0.00, -0.00, -1.00, 438.0, 233.0)"></image><image xlink:href="../../31F4D2FD-2DAD-46C9-B92F-BC427726094B/assets/C6FE46C7FC3B8E4CC069BC9F2B23F01A.png" width="117.00" height="170.00" transform="matrix(1.00, 0.00, -0.00, -1.00, 568.0, 233.0)"></image><image xlink:href="../../31F4D2FD-2DAD-46C9-B92F-BC427726094B/assets/C6FE46C7FC3B8E4CC069BC9F2B23F01A.png" width="117.00" height="170.00" transform="matrix(1.00, 0.00, -0.00, -1.00, 698.0, 233.0)"></image><image xlink:href="../../31F4D2FD-2DAD-46C9-B92F-BC427726094B/assets/85A170BBD23E091C2BF6C215FA23F602.png" width="117.00" height="170.00" transform="matrix(1.00, 0.00, -0.00, -1.00, 828.0, 233.0)"></image><image xlink:href="../../31F4D2FD-2DAD-46C9-B92F-BC427726094B/assets/6D39F2BDC3354604E5FE8DE5B89ED4D2.png" width="117.00" height="162.00" transform="matrix(1.00, 0.00, -0.00, -1.00, 47.0, 423.0)"></image><image xlink:href="../../31F4D2FD-2DAD-46C9-B92F-BC427726094B/assets/6D39F2BDC3354604E5FE8DE5B89ED4D2.png" width="117.00" height="162.00" transform="matrix(1.00, 0.00, -0.00, -1.00, 177.0, 423.0)"></image><image xlink:href="../../31F4D2FD-2DAD-46C9-B92F-BC427726094B/assets/AC26CE7D7276C8096CBB18BDC4094631.png" width="117.00" height="162.00" transform="matrix(1.00, 0.00, -0.00, -1.00, 308.0, 423.0)"></image><image xlink:href="../../31F4D2FD-2DAD-46C9-B92F-BC427726094B/assets/AC26CE7D7276C8096CBB18BDC4094631.png" width="117.00" height="162.00" transform="matrix(1.00, 0.00, -0.00, -1.00, 438.0, 423.0)"></image></g></svg>