<?xml version="1.0" encoding="UTF-8" standalone="no"?><svg xmlns="http://www.w3.org/2000/svg" xmlns:xlink="http://www.w3.org/1999/xlink" clip-rule="evenodd" stroke-miterlimit="10" viewBox="0 0 1920 1080"><desc>SVG generated by Keynote</desc><defs></defs><g transform="matrix(1.00, 0.00, -0.00, -1.00, 0.0, 1080.0)"><g><clipPath id="clip0x7fbe671b1720"><path d="M 0.0 1080.0 L 1920.0 1080.0 L 1920.0 0.0 L 0.0 0.0 Z M 0.0 1080.0 "></path></clipPath><g clip-path="url(#clip0x7fbe671b1720)"><image xlink:href="../../D06C0A10-A828-4D3E-98E4-495F8E52CCA8/assets/FBB7813D470116890D962248E6AD6C40.png" width="4000.00" height="2672.00" transform="matrix(1.00, 0.00, -0.00, -1.00, 0.0, 1080.0)"></image></g></g><image xlink:href="../../EBE4A95E-595C-4A94-96CC-1229E25F17A6/assets/D427B502A0DE7969818E904919AC6785.png" width="2560.00" height="1440.00" transform="matrix(0.75, 0.00, -0.00, -0.75, -400.0, 1080.0)"></image><image xlink:href="../../EBE4A95E-595C-4A94-96CC-1229E25F17A6/assets/ED4EEE084FEF876910C2A595B9D0C921.png" width="816.00" height="855.00" transform="matrix(1.00, 0.00, -0.00, -1.00, 859.7, 1114.5)"></image><text xml:space="preserve" font-family="Helvetica-Bold,Helvetica" font-weight="bold" font-size="96.0" fill="#FEFFFF" transform="matrix(1.00, 0.00, -0.00, -1.00, 975.7, 815.3)">C</text><text xml:space="preserve" font-family="Helvetica-Bold,Helvetica" font-weight="bold" font-size="96.0" fill="#FEFFFF" transform="matrix(1.00, 0.00, -0.00, -1.00, 1045.1, 815.3)">o</text><text xml:space="preserve" font-family="Helvetica-Bold,Helvetica" font-weight="bold" font-size="96.0" fill="#FEFFFF" transform="matrix(1.00, 0.00, -0.00, -1.00, 1103.7, 815.3)">u</text><text xml:space="preserve" font-family="Helvetica-Bold,Helvetica" font-weight="bold" font-size="96.0" fill="#FEFFFF" transform="matrix(1.00, 0.00, -0.00, -1.00, 1162.4, 815.3)">r</text><text xml:space="preserve" font-family="Helvetica-Bold,Helvetica" font-weight="bold" font-size="96.0" fill="#FEFFFF" transform="matrix(1.00, 0.00, -0.00, -1.00, 1199.8, 815.3)">s</text><text xml:space="preserve" font-family="Helvetica-Bold,Helvetica" font-weight="bold" font-size="96.0" fill="#FEFFFF" transform="matrix(1.00, 0.00, -0.00, -1.00, 1253.2, 815.3)">e</text><text xml:space="preserve" font-family="Helvetica-Bold,Helvetica" font-weight="bold" font-size="96.0" fill="#FEFFFF" transform="matrix(1.00, 0.00, -0.00, -1.00, 1306.6, 815.3)"> </text><text xml:space="preserve" font-family="Helvetica,Helvetica" font-size="25.2" fill="#000000" transform="matrix(1.00, 0.00, -0.00, -1.00, 903.7, 724.6)"> </text><text xml:space="preserve" font-family="Helvetica-Light,Helvetica" font-size="54.0" fill="#FEFFFF" transform="matrix(1.00, 0.00, -0.00, -1.00, 903.7, 644.9)">•</text><text xml:space="preserve" font-family="Helvetica-Light,Helvetica" font-size="72.0" fill="#FEFFFF" transform="matrix(1.00, 0.00, -0.00, -1.00, 970.2, 638.6)">C</text><text xml:space="preserve" font-family="Helvetica-Light,Helvetica" font-size="72.0" fill="#FEFFFF" transform="matrix(1.00, 0.00, -0.00, -1.00, 1022.2, 638.6)">o</text><text xml:space="preserve" font-family="Helvetica-Light,Helvetica" font-size="72.0" fill="#FEFFFF" transform="matrix(1.00, 0.00, -0.00, -1.00, 1062.2, 638.6)">u</text><text xml:space="preserve" font-family="Helvetica-Light,Helvetica" font-size="72.0" fill="#FEFFFF" transform="matrix(1.00, 0.00, -0.00, -1.00, 1102.2, 638.6)">r</text><text xml:space="preserve" font-family="Helvetica-Light,Helvetica" font-size="72.0" fill="#FEFFFF" transform="matrix(1.00, 0.00, -0.00, -1.00, 1126.2, 638.6)">s</text><text xml:space="preserve" font-family="Helvetica-Light,Helvetica" font-size="72.0" fill="#FEFFFF" transform="matrix(1.00, 0.00, -0.00, -1.00, 1162.2, 638.6)">e</text><text xml:space="preserve" font-family="Helvetica-Light,Helvetica" font-size="72.0" fill="#FEFFFF" transform="matrix(1.00, 0.00, -0.00, -1.00, 1202.2, 638.6)"> </text><text xml:space="preserve" font-family="Helvetica-Light,Helvetica" font-size="72.0" fill="#FEFFFF" transform="matrix(1.00, 0.00, -0.00, -1.00, 1222.3, 638.6)">S</text><text xml:space="preserve" font-family="Helvetica-Light,Helvetica" font-size="72.0" fill="#FEFFFF" transform="matrix(1.00, 0.00, -0.00, -1.00, 1266.3, 638.6)">c</text><text xml:space="preserve" font-family="Helvetica-Light,Helvetica" font-size="72.0" fill="#FEFFFF" transform="matrix(1.00, 0.00, -0.00, -1.00, 1306.3, 638.6)">h</text><text xml:space="preserve" font-family="Helvetica-Light,Helvetica" font-size="72.0" fill="#FEFFFF" transform="matrix(1.00, 0.00, -0.00, -1.00, 1346.3, 638.6)">e</text><text xml:space="preserve" font-family="Helvetica-Light,Helvetica" font-size="72.0" fill="#FEFFFF" transform="matrix(1.00, 0.00, -0.00, -1.00, 1386.4, 638.6)">d</text><text xml:space="preserve" font-family="Helvetica-Light,Helvetica" font-size="72.0" fill="#FEFFFF" transform="matrix(1.00, 0.00, -0.00, -1.00, 1430.3, 638.6)">u</text><text xml:space="preserve" font-family="Helvetica-Light,Helvetica" font-size="72.0" fill="#FEFFFF" transform="matrix(1.00, 0.00, -0.00, -1.00, 1470.4, 638.6)">l</text><text xml:space="preserve" font-family="Helvetica-Light,Helvetica" font-size="72.0" fill="#FEFFFF" transform="matrix(1.00, 0.00, -0.00, -1.00, 1486.4, 638.6)">e</text><text xml:space="preserve" font-family="Helvetica-Light,Helvetica" font-size="72.0" fill="#FEFFFF" transform="matrix(1.00, 0.00, -0.00, -1.00, 1526.4, 638.6)"> </text><text xml:space="preserve" font-family="Helvetica-Light,Helvetica" font-size="54.0" fill="#FEFFFF" transform="matrix(1.00, 0.00, -0.00, -1.00, 903.7, 558.9)">•</text><text xml:space="preserve" font-family="Helvetica-Light,Helvetica" font-size="72.0" fill="#FEFFFF" transform="matrix(1.00, 0.00, -0.00, -1.00, 970.2, 552.6)">C</text><text xml:space="preserve" font-family="Helvetica-Light,Helvetica" font-size="72.0" fill="#FEFFFF" transform="matrix(1.00, 0.00, -0.00, -1.00, 1022.2, 552.6)">o</text><text xml:space="preserve" font-family="Helvetica-Light,Helvetica" font-size="72.0" fill="#FEFFFF" transform="matrix(1.00, 0.00, -0.00, -1.00, 1062.2, 552.6)">u</text><text xml:space="preserve" font-family="Helvetica-Light,Helvetica" font-size="72.0" fill="#FEFFFF" transform="matrix(1.00, 0.00, -0.00, -1.00, 1102.2, 552.6)">r</text><text xml:space="preserve" font-family="Helvetica-Light,Helvetica" font-size="72.0" fill="#FEFFFF" transform="matrix(1.00, 0.00, -0.00, -1.00, 1126.2, 552.6)">s</text><text xml:space="preserve" font-family="Helvetica-Light,Helvetica" font-size="72.0" fill="#FEFFFF" transform="matrix(1.00, 0.00, -0.00, -1.00, 1162.2, 552.6)">e</text><text xml:space="preserve" font-family="Helvetica-Light,Helvetica" font-size="72.0" fill="#FEFFFF" transform="matrix(1.00, 0.00, -0.00, -1.00, 1202.2, 552.6)"> </text><text xml:space="preserve" font-family="Helvetica-Light,Helvetica" font-size="72.0" fill="#FEFFFF" transform="matrix(1.00, 0.00, -0.00, -1.00, 1222.3, 552.6)">D</text><text xml:space="preserve" font-family="Helvetica-Light,Helvetica" font-size="72.0" fill="#FEFFFF" transform="matrix(1.00, 0.00, -0.00, -1.00, 1274.2, 552.6)">i</text><text xml:space="preserve" font-family="Helvetica-Light,Helvetica" font-size="72.0" fill="#FEFFFF" transform="matrix(1.00, 0.00, -0.00, -1.00, 1290.2, 552.6)">s</text><text xml:space="preserve" font-family="Helvetica-Light,Helvetica" font-size="72.0" fill="#FEFFFF" transform="matrix(1.00, 0.00, -0.00, -1.00, 1326.2, 552.6)">c</text><text xml:space="preserve" font-family="Helvetica-Light,Helvetica" font-size="72.0" fill="#FEFFFF" transform="matrix(1.00, 0.00, -0.00, -1.00, 1366.3, 552.6)">u</text><text xml:space="preserve" font-family="Helvetica-Light,Helvetica" font-size="72.0" fill="#FEFFFF" transform="matrix(1.00, 0.00, -0.00, -1.00, 1406.3, 552.6)">s</text><text xml:space="preserve" font-family="Helvetica-Light,Helvetica" font-size="72.0" fill="#FEFFFF" transform="matrix(1.00, 0.00, -0.00, -1.00, 1442.3, 552.6)">s</text><text xml:space="preserve" font-family="Helvetica-Light,Helvetica" font-size="72.0" fill="#FEFFFF" transform="matrix(1.00, 0.00, -0.00, -1.00, 1478.3, 552.6)">i</text><text xml:space="preserve" font-family="Helvetica-Light,Helvetica" font-size="72.0" fill="#FEFFFF" transform="matrix(1.00, 0.00, -0.00, -1.00, 1494.3, 552.6)">o</text><text xml:space="preserve" font-family="Helvetica-Light,Helvetica" font-size="72.0" fill="#FEFFFF" transform="matrix(1.00, 0.00, -0.00, -1.00, 1534.3, 552.6)">n</text><text xml:space="preserve" font-family="Helvetica-Light,Helvetica" font-size="72.0" fill="#FEFFFF" transform="matrix(1.00, 0.00, -0.00, -1.00, 1574.3, 552.6)"> </text><text xml:space="preserve" font-family="Helvetica-Light,Helvetica" font-size="72.0" fill="#FEFFFF" transform="matrix(1.00, 0.00, -0.00, -1.00, 1594.4, 552.6)"> </text><text xml:space="preserve" font-family="Helvetica-Light,Helvetica" font-size="54.0" fill="#FEFFFF" transform="matrix(1.00, 0.00, -0.00, -1.00, 903.7, 472.9)">•</text><text xml:space="preserve" font-family="Helvetica-Light,Helvetica" font-size="72.0" fill="#FEFFFF" transform="matrix(1.00, 0.00, -0.00, -1.00, 970.2, 466.6)">C</text><text xml:space="preserve" font-family="Helvetica-Light,Helvetica" font-size="72.0" fill="#FEFFFF" transform="matrix(1.00, 0.00, -0.00, -1.00, 1022.2, 466.6)">a</text><text xml:space="preserve" font-family="Helvetica-Light,Helvetica" font-size="72.0" fill="#FEFFFF" transform="matrix(1.00, 0.00, -0.00, -1.00, 1062.2, 466.6)">l</text><text xml:space="preserve" font-family="Helvetica-Light,Helvetica" font-size="72.0" fill="#FEFFFF" transform="matrix(1.00, 0.00, -0.00, -1.00, 1078.2, 466.6)">e</text><text xml:space="preserve" font-family="Helvetica-Light,Helvetica" font-size="72.0" fill="#FEFFFF" transform="matrix(1.00, 0.00, -0.00, -1.00, 1118.2, 466.6)">n</text><text xml:space="preserve" font-family="Helvetica-Light,Helvetica" font-size="72.0" fill="#FEFFFF" transform="matrix(1.00, 0.00, -0.00, -1.00, 1158.3, 466.6)">d</text><text xml:space="preserve" font-family="Helvetica-Light,Helvetica" font-size="72.0" fill="#FEFFFF" transform="matrix(1.00, 0.00, -0.00, -1.00, 1202.2, 466.6)">a</text><text xml:space="preserve" font-family="Helvetica-Light,Helvetica" font-size="72.0" fill="#FEFFFF" transform="matrix(1.00, 0.00, -0.00, -1.00, 1242.3, 466.6)">r</text><text xml:space="preserve" font-family="Helvetica-Light,Helvetica" font-size="72.0" fill="#FEFFFF" transform="matrix(1.00, 0.00, -0.00, -1.00, 1266.3, 466.6)"> </text><text xml:space="preserve" font-family="Helvetica-Light,Helvetica" font-size="72.0" fill="#FEFFFF" transform="matrix(1.00, 0.00, -0.00, -1.00, 1286.3, 466.6)">I</text><text xml:space="preserve" font-family="Helvetica-Light,Helvetica" font-size="72.0" fill="#FEFFFF" transform="matrix(1.00, 0.00, -0.00, -1.00, 1306.3, 466.6)">n</text><text xml:space="preserve" font-family="Helvetica-Light,Helvetica" font-size="72.0" fill="#FEFFFF" transform="matrix(1.00, 0.00, -0.00, -1.00, 1346.3, 466.6)">t</text><text xml:space="preserve" font-family="Helvetica-Light,Helvetica" font-size="72.0" fill="#FEFFFF" transform="matrix(1.00, 0.00, -0.00, -1.00, 1366.3, 466.6)">e</text><text xml:space="preserve" font-family="Helvetica-Light,Helvetica" font-size="72.0" fill="#FEFFFF" transform="matrix(1.00, 0.00, -0.00, -1.00, 1406.4, 466.6)">g</text><text xml:space="preserve" font-family="Helvetica-Light,Helvetica" font-size="72.0" fill="#FEFFFF" transform="matrix(1.00, 0.00, -0.00, -1.00, 1450.4, 466.6)">r</text><text xml:space="preserve" font-family="Helvetica-Light,Helvetica" font-size="72.0" fill="#FEFFFF" transform="matrix(1.00, 0.00, -0.00, -1.00, 1474.3, 466.6)">a</text><text xml:space="preserve" font-family="Helvetica-Light,Helvetica" font-size="72.0" fill="#FEFFFF" transform="matrix(1.00, 0.00, -0.00, -1.00, 1514.4, 466.6)">t</text><text xml:space="preserve" font-family="Helvetica-Light,Helvetica" font-size="72.0" fill="#FEFFFF" transform="matrix(1.00, 0.00, -0.00, -1.00, 1534.4, 466.6)">i</text><text xml:space="preserve" font-family="Helvetica-Light,Helvetica" font-size="72.0" fill="#FEFFFF" transform="matrix(1.00, 0.00, -0.00, -1.00, 1550.4, 466.6)">o</text><text xml:space="preserve" font-family="Helvetica-Light,Helvetica" font-size="72.0" fill="#FEFFFF" transform="matrix(1.00, 0.00, -0.00, -1.00, 1590.4, 466.6)">n</text></g></svg>