<?xml version="1.0" encoding="UTF-8" standalone="no"?><svg xmlns="http://www.w3.org/2000/svg" xmlns:xlink="http://www.w3.org/1999/xlink" clip-rule="evenodd" stroke-miterlimit="4.00" viewBox="0 0 354 40"><desc>SVG generated by Keynote</desc><defs></defs><g transform="matrix(1.00, 0.00, -0.00, -1.00, 0.0, 40.0)"><text xml:space="preserve" font-family="HurmeGeometricSans4-SemiBold" font-weight="bold" font-size="50.0" fill="#5E5E5E" transform="matrix(1.00, 0.00, -0.00, -1.00, -1.3, 2.7)">D</text><text xml:space="preserve" font-family="HurmeGeometricSans4-SemiBold" font-weight="bold" font-size="50.0" fill="#5E5E5E" transform="matrix(1.00, 0.00, -0.00, -1.00, 35.3, 2.7)">I</text><text xml:space="preserve" font-family="HurmeGeometricSans4-SemiBold" font-weight="bold" font-size="50.0" fill="#5E5E5E" transform="matrix(1.00, 0.00, -0.00, -1.00, 49.7, 2.7)">G</text><text xml:space="preserve" font-family="HurmeGeometricSans4-SemiBold" font-weight="bold" font-size="50.0" fill="#5E5E5E" transform="matrix(1.00, 0.00, -0.00, -1.00, 87.0, 2.7)">I</text><text xml:space="preserve" font-family="HurmeGeometricSans4-SemiBold" font-weight="bold" font-size="50.0" fill="#5E5E5E" transform="matrix(1.00, 0.00, -0.00, -1.00, 101.4, 2.7)">T</text><text xml:space="preserve" font-family="HurmeGeometricSans4-SemiBold" font-weight="bold" font-size="50.0" fill="#5E5E5E" transform="matrix(1.00, 0.00, -0.00, -1.00, 125.0, 2.7)"> </text><text xml:space="preserve" font-family="HurmeGeometricSans4-SemiBold" font-weight="bold" font-size="50.0" fill="#5E5E5E" transform="matrix(1.00, 0.00, -0.00, -1.00, 145.3, 2.7)">N</text><text xml:space="preserve" font-family="HurmeGeometricSans4-SemiBold" font-weight="bold" font-size="50.0" fill="#5E5E5E" transform="matrix(1.00, 0.00, -0.00, -1.00, 183.0, 2.7)">U</text><text xml:space="preserve" font-family="HurmeGeometricSans4-SemiBold" font-weight="bold" font-size="50.0" fill="#5E5E5E" transform="matrix(1.00, 0.00, -0.00, -1.00, 218.4, 2.7)">M</text><text xml:space="preserve" font-family="HurmeGeometricSans4-SemiBold" font-weight="bold" font-size="50.0" fill="#5E5E5E" transform="matrix(1.00, 0.00, -0.00, -1.00, 261.8, 2.7)">B</text><text xml:space="preserve" font-family="HurmeGeometricSans4-SemiBold" font-weight="bold" font-size="50.0" fill="#5E5E5E" transform="matrix(1.00, 0.00, -0.00, -1.00, 292.5, 2.7)">E</text><text xml:space="preserve" font-family="HurmeGeometricSans4-SemiBold" font-weight="bold" font-size="50.0" fill="#5E5E5E" transform="matrix(1.00, 0.00, -0.00, -1.00, 321.4, 2.7)">R</text></g></svg>