<?xml version="1.0" encoding="UTF-8" standalone="no"?><svg xmlns="http://www.w3.org/2000/svg" xmlns:xlink="http://www.w3.org/1999/xlink" clip-rule="evenodd" stroke-miterlimit="4.00" viewBox="0 0 459 74"><desc>SVG generated by Keynote</desc><defs></defs><g transform="matrix(1.00, 0.00, -0.00, -1.00, 0.0, 74.0)"><text xml:space="preserve" font-family="HurmeGeometricSans4-SemiBold" font-weight="bold" font-size="84.0" fill="#5E5E5E" transform="matrix(1.00, 0.00, -0.00, -1.00, 4.0, 12.0)">,</text><text xml:space="preserve" font-family="HurmeGeometricSans4-SemiBold" font-weight="bold" font-size="84.0" fill="#5E5E5E" transform="matrix(1.00, 0.00, -0.00, -1.00, 22.6, 12.0)"> </text><text xml:space="preserve" font-family="HurmeGeometricSans4-SemiBold" font-weight="bold" font-size="84.0" fill="#D62A72" transform="matrix(1.00, 0.00, -0.00, -1.00, 56.8, 12.0)">D</text><text xml:space="preserve" font-family="HurmeGeometricSans4-SemiBold" font-weight="bold" font-size="84.0" fill="#D62A72" transform="matrix(1.00, 0.00, -0.00, -1.00, 118.4, 12.0)">I</text><text xml:space="preserve" font-family="HurmeGeometricSans4-SemiBold" font-weight="bold" font-size="84.0" fill="#D62A72" transform="matrix(1.00, 0.00, -0.00, -1.00, 142.6, 12.0)">S</text><text xml:space="preserve" font-family="HurmeGeometricSans4-SemiBold" font-weight="bold" font-size="84.0" fill="#D62A72" transform="matrix(1.00, 0.00, -0.00, -1.00, 188.5, 12.0)">T</text><text xml:space="preserve" font-family="HurmeGeometricSans4-SemiBold" font-weight="bold" font-size="84.0" fill="#D62A72" transform="matrix(1.00, 0.00, -0.00, -1.00, 226.8, 12.0)">A</text><text xml:space="preserve" font-family="HurmeGeometricSans4-SemiBold" font-weight="bold" font-size="84.0" fill="#D62A72" transform="matrix(1.00, 0.00, -0.00, -1.00, 288.4, 12.0)">N</text><text xml:space="preserve" font-family="HurmeGeometricSans4-SemiBold" font-weight="bold" font-size="84.0" fill="#D62A72" transform="matrix(1.00, 0.00, -0.00, -1.00, 351.8, 12.0)">C</text><text xml:space="preserve" font-family="HurmeGeometricSans4-SemiBold" font-weight="bold" font-size="84.0" fill="#D62A72" transform="matrix(1.00, 0.00, -0.00, -1.00, 411.6, 12.0)">E</text></g></svg>